G04 #@! TF.FileFunction,Copper,L2,Bot,Signal*
%FSLAX46Y46*%
G04 Gerber Fmt 4.6, Leading zero omitted, Abs format (unit mm)*
G04 Created by KiCad (PCBNEW 4.0.7) date 10/29/17 06:02:24*
%MOMM*%
%LPD*%
G01*
G04 APERTURE LIST*
%ADD10C,0.100000*%
%ADD11R,1.500000X1.300000*%
%ADD12C,1.780000*%
%ADD13C,1.524000*%
%ADD14R,1.250000X1.500000*%
%ADD15R,1.500000X1.250000*%
%ADD16R,1.300000X1.500000*%
%ADD17C,1.778000*%
%ADD18C,2.000000*%
%ADD19C,0.600000*%
%ADD20C,0.887184*%
%ADD21C,0.152400*%
G04 APERTURE END LIST*
D10*
D11*
X104060000Y-87884000D03*
X106760000Y-87884000D03*
D12*
X110678000Y-67117000D03*
X110678000Y-69657000D03*
X110678000Y-72197000D03*
X110678000Y-74737000D03*
X110678000Y-77277000D03*
X110678000Y-79817000D03*
X110678000Y-82357000D03*
X110678000Y-84897000D03*
X118938000Y-67117000D03*
X118938000Y-69657000D03*
X118938000Y-72197000D03*
X118938000Y-74737000D03*
X118938000Y-77277000D03*
X118938000Y-79817000D03*
X118938000Y-82357000D03*
X118938000Y-84897000D03*
D13*
X119596000Y-51054000D03*
X119634000Y-48154000D03*
X119634000Y-53954000D03*
D14*
X106934000Y-41422000D03*
X106934000Y-43922000D03*
X113284000Y-46502000D03*
X113284000Y-49002000D03*
D15*
X129774000Y-76200000D03*
X127274000Y-76200000D03*
D11*
X110824000Y-56134000D03*
X108124000Y-56134000D03*
D16*
X101346000Y-65198000D03*
X101346000Y-67898000D03*
X125222000Y-70438000D03*
X125222000Y-67738000D03*
X129794000Y-78152000D03*
X129794000Y-80852000D03*
X134874000Y-80438000D03*
X134874000Y-83138000D03*
X122174000Y-72818000D03*
X122174000Y-75518000D03*
D11*
X106506000Y-82042000D03*
X103806000Y-82042000D03*
D13*
X146604000Y-40894000D03*
X146604000Y-43434000D03*
X146604000Y-45974000D03*
X146604000Y-48514000D03*
X146604000Y-51054000D03*
X146604000Y-53594000D03*
X146604000Y-56134000D03*
X146604000Y-58674000D03*
X146604000Y-61214000D03*
X146604000Y-63754000D03*
X146604000Y-66294000D03*
X146604000Y-68834000D03*
X146604000Y-71374000D03*
X146604000Y-73914000D03*
X130764000Y-40894000D03*
X130764000Y-43434000D03*
X130764000Y-45974000D03*
X130764000Y-48514000D03*
X130764000Y-51054000D03*
X130764000Y-53594000D03*
X130764000Y-56134000D03*
X130764000Y-58674000D03*
X130764000Y-61214000D03*
X130764000Y-63754000D03*
X130764000Y-66294000D03*
X130764000Y-68834000D03*
X130764000Y-71374000D03*
X130764000Y-73914000D03*
X133404000Y-73914000D03*
X136044000Y-73914000D03*
X138684000Y-73914000D03*
X141324000Y-73914000D03*
X143964000Y-73914000D03*
X144064000Y-43434000D03*
X144064000Y-48514000D03*
X144064000Y-51054000D03*
X144064000Y-53594000D03*
X104180000Y-46482000D03*
X104180000Y-43942000D03*
X104180000Y-41402000D03*
D17*
X113284000Y-60007500D03*
X113284000Y-51752500D03*
X110744000Y-60007500D03*
X108204000Y-60007500D03*
X105664000Y-60007500D03*
X110744000Y-51752500D03*
X108204000Y-51752500D03*
X105664000Y-51752500D03*
D18*
X100330000Y-83820000D03*
X100584000Y-41402000D03*
D13*
X122258000Y-44120000D03*
X119758000Y-44120000D03*
X117258000Y-44120000D03*
X118534000Y-61392000D03*
X121034000Y-61392000D03*
X123534000Y-61392000D03*
D18*
X100584000Y-46736000D03*
X113538000Y-74168000D03*
X137414000Y-86868000D03*
D19*
X115824000Y-74676000D03*
X112522000Y-83312000D03*
X108458000Y-78232000D03*
X106172000Y-57912000D03*
X109728000Y-57912000D03*
X115824000Y-48514000D03*
X113284000Y-55626000D03*
X107950000Y-46482000D03*
X110744000Y-48514000D03*
X123444000Y-53848000D03*
X122174000Y-69088000D03*
X131826000Y-76962000D03*
X131826000Y-84582000D03*
X117094000Y-84582000D03*
X103124000Y-65532000D03*
X131572000Y-79248000D03*
X102108000Y-63246000D03*
X105410000Y-56134000D03*
X108204000Y-57912000D03*
X114808000Y-70358000D03*
X125222000Y-76200000D03*
X124968000Y-78232000D03*
X114046000Y-86868000D03*
X124206000Y-81280000D03*
X127000000Y-69088000D03*
X126746000Y-71882000D03*
X115316000Y-68580000D03*
X115316000Y-64008000D03*
X105410000Y-63500000D03*
X102616000Y-76454000D03*
X104140000Y-85090000D03*
X106680000Y-72898000D03*
X125984000Y-86868000D03*
X114300000Y-80772000D03*
X114300000Y-77216000D03*
X112268000Y-44196000D03*
X123952000Y-74676000D03*
X106680000Y-66548000D03*
X115824000Y-45974000D03*
X125730000Y-43180000D03*
X119888000Y-57658000D03*
X112776000Y-57658000D03*
X128524000Y-65786000D03*
X123190000Y-55626000D03*
D20*
X118938000Y-74737000D02*
X115885000Y-74737000D01*
X115885000Y-74737000D02*
X115824000Y-74676000D01*
X118938000Y-74737000D02*
X118557000Y-74737000D01*
X118557000Y-74737000D02*
X112522000Y-80772000D01*
X104648000Y-58674000D02*
X99568000Y-63754000D01*
X99568000Y-63754000D02*
X99568000Y-70866000D01*
X112522000Y-83312000D02*
X112522000Y-80772000D01*
X99568000Y-70866000D02*
X108458000Y-78232000D01*
X105664000Y-58420000D02*
X104648000Y-58420000D01*
X106172000Y-57912000D02*
X105664000Y-58420000D01*
X110744000Y-56896000D02*
X109728000Y-57912000D01*
X110744000Y-56134000D02*
X110744000Y-56896000D01*
X104648000Y-58420000D02*
X104648000Y-58674000D01*
X115824000Y-48514000D02*
X115296000Y-48514000D01*
X115296000Y-48514000D02*
X113284000Y-46502000D01*
X110824000Y-56134000D02*
X110744000Y-56134000D01*
X118872000Y-74676000D02*
X118938000Y-74737000D01*
X113284000Y-55626000D02*
X110744000Y-56134000D01*
X104180000Y-46482000D02*
X107950000Y-46482000D01*
X113284000Y-46502000D02*
X113284000Y-46482000D01*
X110744000Y-48514000D02*
X112776000Y-46482000D01*
X112776000Y-46482000D02*
X113284000Y-46482000D01*
X113284000Y-46482000D02*
X113284000Y-46502000D01*
X123444000Y-53848000D02*
X119634000Y-53848000D01*
X122174000Y-72136000D02*
X122174000Y-69088000D01*
X126746000Y-74168000D02*
X125476000Y-74168000D01*
X125476000Y-74168000D02*
X124126000Y-72818000D01*
X122174000Y-72818000D02*
X124126000Y-72818000D01*
X128524000Y-68326000D02*
X128524000Y-72898000D01*
X128524000Y-72898000D02*
X128270000Y-73152000D01*
X128270000Y-73152000D02*
X126746000Y-74168000D01*
X127000000Y-66802000D02*
X128524000Y-68326000D01*
X127000000Y-61976000D02*
X127000000Y-66802000D01*
X122174000Y-72898000D02*
X122174000Y-72818000D01*
X122174000Y-72818000D02*
X122174000Y-72136000D01*
X119634000Y-54864000D02*
X119888000Y-54864000D01*
X119888000Y-54864000D02*
X127000000Y-61976000D01*
X131826000Y-76962000D02*
X131318000Y-76454000D01*
X121920000Y-84582000D02*
X131826000Y-84582000D01*
X120142000Y-86360000D02*
X121920000Y-84582000D01*
X119888000Y-86360000D02*
X120142000Y-86360000D01*
X119634000Y-86614000D02*
X119888000Y-86360000D01*
X118110000Y-86614000D02*
X119634000Y-86614000D01*
X117094000Y-85598000D02*
X118110000Y-86614000D01*
X117094000Y-84582000D02*
X117094000Y-85598000D01*
X131318000Y-76454000D02*
X130028000Y-76454000D01*
X130028000Y-76454000D02*
X129774000Y-76200000D01*
X119634000Y-54864000D02*
X119634000Y-53954000D01*
X119634000Y-53848000D02*
X109982000Y-53848000D01*
X109982000Y-53848000D02*
X108204000Y-55626000D01*
X108204000Y-55626000D02*
X108124000Y-56134000D01*
X108124000Y-56134000D02*
X108204000Y-56134000D01*
X108204000Y-56134000D02*
X108204000Y-55626000D01*
X119634000Y-53848000D02*
X119634000Y-53954000D01*
X101346000Y-65198000D02*
X101346000Y-65278000D01*
X101346000Y-65278000D02*
X103378000Y-65278000D01*
X103378000Y-65278000D02*
X103124000Y-65532000D01*
X129794000Y-78152000D02*
X129794000Y-78232000D01*
X129794000Y-78232000D02*
X130810000Y-79248000D01*
X130810000Y-79248000D02*
X131572000Y-79248000D01*
X119634000Y-53954000D02*
X119634000Y-53848000D01*
X102108000Y-63246000D02*
X102108000Y-64516000D01*
X102108000Y-64516000D02*
X101346000Y-65278000D01*
X108124000Y-56134000D02*
X105410000Y-56134000D01*
X108124000Y-56134000D02*
X108204000Y-56134000D01*
X108204000Y-56134000D02*
X108204000Y-57912000D01*
X129774000Y-76200000D02*
X129794000Y-76200000D01*
X129794000Y-76200000D02*
X129794000Y-78152000D01*
X114808000Y-70358000D02*
X118872000Y-72136000D01*
X118872000Y-72136000D02*
X118938000Y-72197000D01*
X127274000Y-76200000D02*
X125222000Y-76200000D01*
X124968000Y-78232000D02*
X124206000Y-77470000D01*
X124206000Y-77470000D02*
X123952000Y-77470000D01*
X123952000Y-77470000D02*
X123698000Y-77216000D01*
X123698000Y-77216000D02*
X118872000Y-77216000D01*
X118872000Y-77216000D02*
X118938000Y-77277000D01*
X127274000Y-76200000D02*
X127254000Y-76200000D01*
X127254000Y-76200000D02*
X127000000Y-76454000D01*
X112522000Y-87884000D02*
X106760000Y-87884000D01*
X124206000Y-81280000D02*
X120015000Y-81280000D01*
X120015000Y-81280000D02*
X118938000Y-82357000D01*
X112776000Y-87630000D02*
X114046000Y-86868000D01*
X112522000Y-87884000D02*
X112776000Y-87630000D01*
X118872000Y-82296000D02*
X118938000Y-82357000D01*
X124206000Y-81280000D02*
X125984000Y-83058000D01*
X125984000Y-83058000D02*
X134874000Y-83058000D01*
X134874000Y-83058000D02*
X134874000Y-83138000D01*
X127000000Y-69088000D02*
X126572000Y-69088000D01*
X126572000Y-69088000D02*
X125222000Y-70438000D01*
X125222000Y-70438000D02*
X125396000Y-70438000D01*
X125222000Y-70438000D02*
X125222000Y-70358000D01*
X125222000Y-70358000D02*
X126746000Y-71882000D01*
X125222000Y-70358000D02*
X125222000Y-70438000D01*
X112207000Y-72197000D02*
X110678000Y-72197000D01*
X112776000Y-71628000D02*
X112207000Y-72197000D01*
X112776000Y-68580000D02*
X112776000Y-71628000D01*
X115316000Y-68580000D02*
X112776000Y-68580000D01*
X105918000Y-64008000D02*
X115316000Y-64008000D01*
X105410000Y-63500000D02*
X105918000Y-64008000D01*
X102616000Y-81026000D02*
X103632000Y-82042000D01*
X102616000Y-76454000D02*
X102616000Y-81026000D01*
X103632000Y-82042000D02*
X103806000Y-82042000D01*
X104140000Y-87884000D02*
X104140000Y-85090000D01*
X110678000Y-77277000D02*
X110297000Y-77277000D01*
X110297000Y-77277000D02*
X106680000Y-72898000D01*
X110678000Y-77277000D02*
X110937000Y-77277000D01*
X110937000Y-77277000D02*
X114300000Y-77216000D01*
X122174000Y-86868000D02*
X121158000Y-87884000D01*
X125984000Y-86868000D02*
X122174000Y-86868000D01*
X116840000Y-87884000D02*
X121158000Y-87884000D01*
X114300000Y-85344000D02*
X116840000Y-87884000D01*
X114300000Y-80772000D02*
X114300000Y-85344000D01*
X110490000Y-77216000D02*
X110744000Y-77216000D01*
X110744000Y-77216000D02*
X110678000Y-77277000D01*
X112268000Y-44196000D02*
X117348000Y-44196000D01*
X117348000Y-44196000D02*
X117258000Y-44120000D01*
X118872000Y-69596000D02*
X114554000Y-65278000D01*
X101346000Y-67818000D02*
X103124000Y-67818000D01*
X114554000Y-65278000D02*
X105664000Y-65278000D01*
X103124000Y-67818000D02*
X105664000Y-65278000D01*
X118938000Y-69657000D02*
X118872000Y-69596000D01*
X101346000Y-67818000D02*
X101346000Y-67898000D01*
X129794000Y-80852000D02*
X129794000Y-80772000D01*
X129794000Y-80772000D02*
X128778000Y-79756000D01*
X128778000Y-79756000D02*
X118872000Y-79756000D01*
X118872000Y-79756000D02*
X118938000Y-79817000D01*
X134874000Y-80438000D02*
X134874000Y-80518000D01*
X134874000Y-80518000D02*
X134620000Y-80772000D01*
X134620000Y-80772000D02*
X129794000Y-80772000D01*
X122936000Y-74676000D02*
X122174000Y-75438000D01*
X122936000Y-74676000D02*
X123952000Y-74676000D01*
X109728000Y-73660000D02*
X108966000Y-73660000D01*
X108966000Y-68834000D02*
X106680000Y-66548000D01*
X108966000Y-73660000D02*
X108966000Y-68834000D01*
X109728000Y-73660000D02*
X110744000Y-74676000D01*
X110678000Y-74737000D02*
X110744000Y-74676000D01*
X122174000Y-75518000D02*
X122174000Y-75438000D01*
X106426000Y-82042000D02*
X104648000Y-83820000D01*
X104648000Y-83820000D02*
X99822000Y-83820000D01*
X106426000Y-82042000D02*
X106506000Y-82042000D01*
X122936000Y-45974000D02*
X115824000Y-45974000D01*
X122936000Y-45974000D02*
X125730000Y-43180000D01*
X130810000Y-66294000D02*
X130764000Y-66294000D01*
X112776000Y-57658000D02*
X119888000Y-57658000D01*
X128524000Y-60960000D02*
X128524000Y-65786000D01*
X123190000Y-55626000D02*
X128524000Y-60960000D01*
X133858000Y-41148000D02*
X133858000Y-68280000D01*
X109474000Y-47244000D02*
X109474000Y-42418000D01*
X109474000Y-42418000D02*
X112776000Y-39116000D01*
X112776000Y-39116000D02*
X131826000Y-39116000D01*
X131826000Y-39116000D02*
X133858000Y-41148000D01*
X105664000Y-51054000D02*
X109474000Y-47244000D01*
X133858000Y-68280000D02*
X130764000Y-71374000D01*
X105664000Y-51752500D02*
X105664000Y-51054000D01*
X105664000Y-51752500D02*
X105664000Y-51308000D01*
X104180000Y-41402000D02*
X100584000Y-41402000D01*
X104180000Y-41402000D02*
X106934000Y-41402000D01*
X106934000Y-41402000D02*
X106934000Y-41422000D01*
X118938000Y-67117000D02*
X118872000Y-67056000D01*
X118872000Y-67056000D02*
X119634000Y-67818000D01*
X119634000Y-67818000D02*
X125222000Y-67818000D01*
X125222000Y-67818000D02*
X125222000Y-67738000D01*
D21*
G36*
X112228846Y-38568846D02*
X112228844Y-38568849D01*
X108926846Y-41870846D01*
X108759109Y-42121882D01*
X108700207Y-42418000D01*
X108700208Y-42418005D01*
X108700208Y-46363435D01*
X108664891Y-46185883D01*
X108497154Y-45934846D01*
X108246117Y-45767109D01*
X107950000Y-45708208D01*
X104950815Y-45708208D01*
X104799489Y-45556618D01*
X104398205Y-45389990D01*
X103963701Y-45389611D01*
X103562127Y-45555538D01*
X103254618Y-45862511D01*
X103087990Y-46263795D01*
X103087611Y-46698299D01*
X103253538Y-47099873D01*
X103560511Y-47407382D01*
X103961795Y-47574010D01*
X104396299Y-47574389D01*
X104797873Y-47408462D01*
X104950810Y-47255792D01*
X107950000Y-47255792D01*
X108246117Y-47196891D01*
X108497154Y-47029154D01*
X108664891Y-46778117D01*
X108700208Y-46600565D01*
X108700208Y-46923485D01*
X105116846Y-50506846D01*
X104976035Y-50717584D01*
X104974281Y-50718309D01*
X104631015Y-51060977D01*
X104445012Y-51508922D01*
X104444588Y-51993950D01*
X104629809Y-52442219D01*
X104972477Y-52785485D01*
X105420422Y-52971488D01*
X105905450Y-52971912D01*
X106353719Y-52786691D01*
X106696985Y-52444023D01*
X106882988Y-51996078D01*
X106882989Y-51993950D01*
X106984588Y-51993950D01*
X107169809Y-52442219D01*
X107512477Y-52785485D01*
X107960422Y-52971488D01*
X108445450Y-52971912D01*
X108893719Y-52786691D01*
X109236985Y-52444023D01*
X109422988Y-51996078D01*
X109422989Y-51993950D01*
X109524588Y-51993950D01*
X109709809Y-52442219D01*
X110052477Y-52785485D01*
X110500422Y-52971488D01*
X110985450Y-52971912D01*
X111433719Y-52786691D01*
X111776985Y-52444023D01*
X111962988Y-51996078D01*
X111962989Y-51993950D01*
X112064588Y-51993950D01*
X112249809Y-52442219D01*
X112592477Y-52785485D01*
X113040422Y-52971488D01*
X113525450Y-52971912D01*
X113973719Y-52786691D01*
X114316985Y-52444023D01*
X114502988Y-51996078D01*
X114503412Y-51511050D01*
X114403936Y-51270299D01*
X118503611Y-51270299D01*
X118669538Y-51671873D01*
X118976511Y-51979382D01*
X119377795Y-52146010D01*
X119812299Y-52146389D01*
X120213873Y-51980462D01*
X120521382Y-51673489D01*
X120688010Y-51272205D01*
X120688011Y-51270299D01*
X129671611Y-51270299D01*
X129837538Y-51671873D01*
X130144511Y-51979382D01*
X130545795Y-52146010D01*
X130980299Y-52146389D01*
X131381873Y-51980462D01*
X131689382Y-51673489D01*
X131856010Y-51272205D01*
X131856389Y-50837701D01*
X131690462Y-50436127D01*
X131383489Y-50128618D01*
X130982205Y-49961990D01*
X130547701Y-49961611D01*
X130146127Y-50127538D01*
X129838618Y-50434511D01*
X129671990Y-50835795D01*
X129671611Y-51270299D01*
X120688011Y-51270299D01*
X120688389Y-50837701D01*
X120522462Y-50436127D01*
X120215489Y-50128618D01*
X119814205Y-49961990D01*
X119379701Y-49961611D01*
X118978127Y-50127538D01*
X118670618Y-50434511D01*
X118503990Y-50835795D01*
X118503611Y-51270299D01*
X114403936Y-51270299D01*
X114318191Y-51062781D01*
X113975523Y-50719515D01*
X113527578Y-50533512D01*
X113042550Y-50533088D01*
X112594281Y-50718309D01*
X112251015Y-51060977D01*
X112065012Y-51508922D01*
X112064588Y-51993950D01*
X111962989Y-51993950D01*
X111963412Y-51511050D01*
X111778191Y-51062781D01*
X111435523Y-50719515D01*
X110987578Y-50533512D01*
X110502550Y-50533088D01*
X110054281Y-50718309D01*
X109711015Y-51060977D01*
X109525012Y-51508922D01*
X109524588Y-51993950D01*
X109422989Y-51993950D01*
X109423412Y-51511050D01*
X109238191Y-51062781D01*
X108895523Y-50719515D01*
X108447578Y-50533512D01*
X107962550Y-50533088D01*
X107514281Y-50718309D01*
X107171015Y-51060977D01*
X106985012Y-51508922D01*
X106984588Y-51993950D01*
X106882989Y-51993950D01*
X106883412Y-51511050D01*
X106713201Y-51099107D01*
X109298307Y-48514000D01*
X109970207Y-48514000D01*
X110029109Y-48810118D01*
X110196846Y-49061154D01*
X110447882Y-49228891D01*
X110744000Y-49287793D01*
X111040118Y-49228891D01*
X111291154Y-49061154D01*
X112763639Y-47588669D01*
X113276361Y-47588669D01*
X114748844Y-49061151D01*
X114748846Y-49061154D01*
X114854685Y-49131873D01*
X114999882Y-49228891D01*
X115296000Y-49287793D01*
X115296005Y-49287792D01*
X115824000Y-49287792D01*
X116120117Y-49228891D01*
X116371154Y-49061154D01*
X116538891Y-48810117D01*
X116554767Y-48730299D01*
X129671611Y-48730299D01*
X129837538Y-49131873D01*
X130144511Y-49439382D01*
X130545795Y-49606010D01*
X130980299Y-49606389D01*
X131381873Y-49440462D01*
X131689382Y-49133489D01*
X131856010Y-48732205D01*
X131856389Y-48297701D01*
X131690462Y-47896127D01*
X131383489Y-47588618D01*
X130982205Y-47421990D01*
X130547701Y-47421611D01*
X130146127Y-47587538D01*
X129838618Y-47894511D01*
X129671990Y-48295795D01*
X129671611Y-48730299D01*
X116554767Y-48730299D01*
X116597792Y-48514000D01*
X116538891Y-48217883D01*
X116371154Y-47966846D01*
X116120117Y-47799109D01*
X115824000Y-47740208D01*
X115616515Y-47740208D01*
X114245669Y-46369361D01*
X114245669Y-45752000D01*
X114222644Y-45629635D01*
X114150327Y-45517251D01*
X114039983Y-45441856D01*
X113909000Y-45415331D01*
X112659000Y-45415331D01*
X112536635Y-45438356D01*
X112424251Y-45510673D01*
X112348856Y-45621017D01*
X112322331Y-45752000D01*
X112322331Y-45872381D01*
X112228846Y-45934846D01*
X110196846Y-47966846D01*
X110029109Y-48217882D01*
X109970207Y-48514000D01*
X109298307Y-48514000D01*
X110021151Y-47791156D01*
X110021154Y-47791154D01*
X110156484Y-47588618D01*
X110188891Y-47540118D01*
X110247793Y-47244000D01*
X110247792Y-47243995D01*
X110247792Y-44196000D01*
X111494208Y-44196000D01*
X111553109Y-44492117D01*
X111720846Y-44743154D01*
X111971883Y-44910891D01*
X112268000Y-44969792D01*
X116563053Y-44969792D01*
X116638511Y-45045382D01*
X117011373Y-45200208D01*
X115824000Y-45200208D01*
X115527883Y-45259109D01*
X115276846Y-45426846D01*
X115109109Y-45677883D01*
X115050208Y-45974000D01*
X115109109Y-46270117D01*
X115276846Y-46521154D01*
X115527883Y-46688891D01*
X115824000Y-46747792D01*
X122935995Y-46747792D01*
X122936000Y-46747793D01*
X123232118Y-46688891D01*
X123483154Y-46521154D01*
X123814008Y-46190299D01*
X129671611Y-46190299D01*
X129837538Y-46591873D01*
X130144511Y-46899382D01*
X130545795Y-47066010D01*
X130980299Y-47066389D01*
X131381873Y-46900462D01*
X131689382Y-46593489D01*
X131856010Y-46192205D01*
X131856389Y-45757701D01*
X131690462Y-45356127D01*
X131383489Y-45048618D01*
X130982205Y-44881990D01*
X130547701Y-44881611D01*
X130146127Y-45047538D01*
X129838618Y-45354511D01*
X129671990Y-45755795D01*
X129671611Y-46190299D01*
X123814008Y-46190299D01*
X126277154Y-43727153D01*
X126328506Y-43650299D01*
X129671611Y-43650299D01*
X129837538Y-44051873D01*
X130144511Y-44359382D01*
X130545795Y-44526010D01*
X130980299Y-44526389D01*
X131381873Y-44360462D01*
X131689382Y-44053489D01*
X131856010Y-43652205D01*
X131856389Y-43217701D01*
X131690462Y-42816127D01*
X131383489Y-42508618D01*
X130982205Y-42341990D01*
X130547701Y-42341611D01*
X130146127Y-42507538D01*
X129838618Y-42814511D01*
X129671990Y-43215795D01*
X129671611Y-43650299D01*
X126328506Y-43650299D01*
X126444891Y-43476118D01*
X126503793Y-43180000D01*
X126444891Y-42883882D01*
X126277154Y-42632846D01*
X126026118Y-42465109D01*
X125730000Y-42406207D01*
X125433882Y-42465109D01*
X125182847Y-42632846D01*
X123259489Y-44556203D01*
X123350010Y-44338205D01*
X123350389Y-43903701D01*
X123184462Y-43502127D01*
X122877489Y-43194618D01*
X122476205Y-43027990D01*
X122041701Y-43027611D01*
X121640127Y-43193538D01*
X121332618Y-43500511D01*
X121165990Y-43901795D01*
X121165611Y-44336299D01*
X121331538Y-44737873D01*
X121638511Y-45045382D01*
X122011373Y-45200208D01*
X117503779Y-45200208D01*
X117875873Y-45046462D01*
X118183382Y-44739489D01*
X118350010Y-44338205D01*
X118350389Y-43903701D01*
X118184462Y-43502127D01*
X117877489Y-43194618D01*
X117476205Y-43027990D01*
X117041701Y-43027611D01*
X116640127Y-43193538D01*
X116411058Y-43422208D01*
X112268000Y-43422208D01*
X111971883Y-43481109D01*
X111720846Y-43648846D01*
X111553109Y-43899883D01*
X111494208Y-44196000D01*
X110247792Y-44196000D01*
X110247792Y-42738516D01*
X113096515Y-39889792D01*
X130334287Y-39889792D01*
X130146127Y-39967538D01*
X129838618Y-40274511D01*
X129671990Y-40675795D01*
X129671611Y-41110299D01*
X129837538Y-41511873D01*
X130144511Y-41819382D01*
X130545795Y-41986010D01*
X130980299Y-41986389D01*
X131381873Y-41820462D01*
X131689382Y-41513489D01*
X131856010Y-41112205D01*
X131856389Y-40677701D01*
X131690462Y-40276127D01*
X131383489Y-39968618D01*
X131193655Y-39889792D01*
X131505484Y-39889792D01*
X133084208Y-41468516D01*
X133084208Y-67959485D01*
X131759808Y-69283884D01*
X131856010Y-69052205D01*
X131856389Y-68617701D01*
X131690462Y-68216127D01*
X131383489Y-67908618D01*
X130982205Y-67741990D01*
X130547701Y-67741611D01*
X130146127Y-67907538D01*
X129838618Y-68214511D01*
X129671990Y-68615795D01*
X129671611Y-69050299D01*
X129837538Y-69451873D01*
X130144511Y-69759382D01*
X130545795Y-69926010D01*
X130980299Y-69926389D01*
X131213773Y-69829920D01*
X130761894Y-70281798D01*
X130547701Y-70281611D01*
X130146127Y-70447538D01*
X129838618Y-70754511D01*
X129671990Y-71155795D01*
X129671611Y-71590299D01*
X129837538Y-71991873D01*
X130144511Y-72299382D01*
X130545795Y-72466010D01*
X130980299Y-72466389D01*
X131381873Y-72300462D01*
X131689382Y-71993489D01*
X131856010Y-71592205D01*
X131856011Y-71590299D01*
X145511611Y-71590299D01*
X145677538Y-71991873D01*
X145984511Y-72299382D01*
X146385795Y-72466010D01*
X146820299Y-72466389D01*
X147221873Y-72300462D01*
X147529382Y-71993489D01*
X147696010Y-71592205D01*
X147696389Y-71157701D01*
X147530462Y-70756127D01*
X147223489Y-70448618D01*
X146822205Y-70281990D01*
X146387701Y-70281611D01*
X145986127Y-70447538D01*
X145678618Y-70754511D01*
X145511990Y-71155795D01*
X145511611Y-71590299D01*
X131856011Y-71590299D01*
X131856198Y-71376109D01*
X134182008Y-69050299D01*
X145511611Y-69050299D01*
X145677538Y-69451873D01*
X145984511Y-69759382D01*
X146385795Y-69926010D01*
X146820299Y-69926389D01*
X147221873Y-69760462D01*
X147529382Y-69453489D01*
X147696010Y-69052205D01*
X147696389Y-68617701D01*
X147530462Y-68216127D01*
X147223489Y-67908618D01*
X146822205Y-67741990D01*
X146387701Y-67741611D01*
X145986127Y-67907538D01*
X145678618Y-68214511D01*
X145511990Y-68615795D01*
X145511611Y-69050299D01*
X134182008Y-69050299D01*
X134405151Y-68827156D01*
X134405154Y-68827154D01*
X134508963Y-68671792D01*
X134572891Y-68576118D01*
X134631793Y-68280000D01*
X134631792Y-68279995D01*
X134631792Y-66510299D01*
X145511611Y-66510299D01*
X145677538Y-66911873D01*
X145984511Y-67219382D01*
X146385795Y-67386010D01*
X146820299Y-67386389D01*
X147221873Y-67220462D01*
X147529382Y-66913489D01*
X147696010Y-66512205D01*
X147696389Y-66077701D01*
X147530462Y-65676127D01*
X147223489Y-65368618D01*
X146822205Y-65201990D01*
X146387701Y-65201611D01*
X145986127Y-65367538D01*
X145678618Y-65674511D01*
X145511990Y-66075795D01*
X145511611Y-66510299D01*
X134631792Y-66510299D01*
X134631792Y-63970299D01*
X145511611Y-63970299D01*
X145677538Y-64371873D01*
X145984511Y-64679382D01*
X146385795Y-64846010D01*
X146820299Y-64846389D01*
X147221873Y-64680462D01*
X147529382Y-64373489D01*
X147696010Y-63972205D01*
X147696389Y-63537701D01*
X147530462Y-63136127D01*
X147223489Y-62828618D01*
X146822205Y-62661990D01*
X146387701Y-62661611D01*
X145986127Y-62827538D01*
X145678618Y-63134511D01*
X145511990Y-63535795D01*
X145511611Y-63970299D01*
X134631792Y-63970299D01*
X134631792Y-61430299D01*
X145511611Y-61430299D01*
X145677538Y-61831873D01*
X145984511Y-62139382D01*
X146385795Y-62306010D01*
X146820299Y-62306389D01*
X147221873Y-62140462D01*
X147529382Y-61833489D01*
X147696010Y-61432205D01*
X147696389Y-60997701D01*
X147530462Y-60596127D01*
X147223489Y-60288618D01*
X146822205Y-60121990D01*
X146387701Y-60121611D01*
X145986127Y-60287538D01*
X145678618Y-60594511D01*
X145511990Y-60995795D01*
X145511611Y-61430299D01*
X134631792Y-61430299D01*
X134631792Y-58890299D01*
X145511611Y-58890299D01*
X145677538Y-59291873D01*
X145984511Y-59599382D01*
X146385795Y-59766010D01*
X146820299Y-59766389D01*
X147221873Y-59600462D01*
X147529382Y-59293489D01*
X147696010Y-58892205D01*
X147696389Y-58457701D01*
X147530462Y-58056127D01*
X147223489Y-57748618D01*
X146822205Y-57581990D01*
X146387701Y-57581611D01*
X145986127Y-57747538D01*
X145678618Y-58054511D01*
X145511990Y-58455795D01*
X145511611Y-58890299D01*
X134631792Y-58890299D01*
X134631792Y-56350299D01*
X145511611Y-56350299D01*
X145677538Y-56751873D01*
X145984511Y-57059382D01*
X146385795Y-57226010D01*
X146820299Y-57226389D01*
X147221873Y-57060462D01*
X147529382Y-56753489D01*
X147696010Y-56352205D01*
X147696389Y-55917701D01*
X147530462Y-55516127D01*
X147223489Y-55208618D01*
X146822205Y-55041990D01*
X146387701Y-55041611D01*
X145986127Y-55207538D01*
X145678618Y-55514511D01*
X145511990Y-55915795D01*
X145511611Y-56350299D01*
X134631792Y-56350299D01*
X134631792Y-53810299D01*
X142971611Y-53810299D01*
X143137538Y-54211873D01*
X143444511Y-54519382D01*
X143845795Y-54686010D01*
X144280299Y-54686389D01*
X144681873Y-54520462D01*
X144989382Y-54213489D01*
X145156010Y-53812205D01*
X145156011Y-53810299D01*
X145511611Y-53810299D01*
X145677538Y-54211873D01*
X145984511Y-54519382D01*
X146385795Y-54686010D01*
X146820299Y-54686389D01*
X147221873Y-54520462D01*
X147529382Y-54213489D01*
X147696010Y-53812205D01*
X147696389Y-53377701D01*
X147530462Y-52976127D01*
X147223489Y-52668618D01*
X146822205Y-52501990D01*
X146387701Y-52501611D01*
X145986127Y-52667538D01*
X145678618Y-52974511D01*
X145511990Y-53375795D01*
X145511611Y-53810299D01*
X145156011Y-53810299D01*
X145156389Y-53377701D01*
X144990462Y-52976127D01*
X144683489Y-52668618D01*
X144282205Y-52501990D01*
X143847701Y-52501611D01*
X143446127Y-52667538D01*
X143138618Y-52974511D01*
X142971990Y-53375795D01*
X142971611Y-53810299D01*
X134631792Y-53810299D01*
X134631792Y-51270299D01*
X142971611Y-51270299D01*
X143137538Y-51671873D01*
X143444511Y-51979382D01*
X143845795Y-52146010D01*
X144280299Y-52146389D01*
X144681873Y-51980462D01*
X144989382Y-51673489D01*
X145156010Y-51272205D01*
X145156011Y-51270299D01*
X145511611Y-51270299D01*
X145677538Y-51671873D01*
X145984511Y-51979382D01*
X146385795Y-52146010D01*
X146820299Y-52146389D01*
X147221873Y-51980462D01*
X147529382Y-51673489D01*
X147696010Y-51272205D01*
X147696389Y-50837701D01*
X147530462Y-50436127D01*
X147223489Y-50128618D01*
X146822205Y-49961990D01*
X146387701Y-49961611D01*
X145986127Y-50127538D01*
X145678618Y-50434511D01*
X145511990Y-50835795D01*
X145511611Y-51270299D01*
X145156011Y-51270299D01*
X145156389Y-50837701D01*
X144990462Y-50436127D01*
X144683489Y-50128618D01*
X144282205Y-49961990D01*
X143847701Y-49961611D01*
X143446127Y-50127538D01*
X143138618Y-50434511D01*
X142971990Y-50835795D01*
X142971611Y-51270299D01*
X134631792Y-51270299D01*
X134631792Y-48730299D01*
X142971611Y-48730299D01*
X143137538Y-49131873D01*
X143444511Y-49439382D01*
X143845795Y-49606010D01*
X144280299Y-49606389D01*
X144681873Y-49440462D01*
X144989382Y-49133489D01*
X145156010Y-48732205D01*
X145156011Y-48730299D01*
X145511611Y-48730299D01*
X145677538Y-49131873D01*
X145984511Y-49439382D01*
X146385795Y-49606010D01*
X146820299Y-49606389D01*
X147221873Y-49440462D01*
X147529382Y-49133489D01*
X147696010Y-48732205D01*
X147696389Y-48297701D01*
X147530462Y-47896127D01*
X147223489Y-47588618D01*
X146822205Y-47421990D01*
X146387701Y-47421611D01*
X145986127Y-47587538D01*
X145678618Y-47894511D01*
X145511990Y-48295795D01*
X145511611Y-48730299D01*
X145156011Y-48730299D01*
X145156389Y-48297701D01*
X144990462Y-47896127D01*
X144683489Y-47588618D01*
X144282205Y-47421990D01*
X143847701Y-47421611D01*
X143446127Y-47587538D01*
X143138618Y-47894511D01*
X142971990Y-48295795D01*
X142971611Y-48730299D01*
X134631792Y-48730299D01*
X134631792Y-46190299D01*
X145511611Y-46190299D01*
X145677538Y-46591873D01*
X145984511Y-46899382D01*
X146385795Y-47066010D01*
X146820299Y-47066389D01*
X147221873Y-46900462D01*
X147529382Y-46593489D01*
X147696010Y-46192205D01*
X147696389Y-45757701D01*
X147530462Y-45356127D01*
X147223489Y-45048618D01*
X146822205Y-44881990D01*
X146387701Y-44881611D01*
X145986127Y-45047538D01*
X145678618Y-45354511D01*
X145511990Y-45755795D01*
X145511611Y-46190299D01*
X134631792Y-46190299D01*
X134631792Y-43650299D01*
X142971611Y-43650299D01*
X143137538Y-44051873D01*
X143444511Y-44359382D01*
X143845795Y-44526010D01*
X144280299Y-44526389D01*
X144681873Y-44360462D01*
X144989382Y-44053489D01*
X145156010Y-43652205D01*
X145156011Y-43650299D01*
X145511611Y-43650299D01*
X145677538Y-44051873D01*
X145984511Y-44359382D01*
X146385795Y-44526010D01*
X146820299Y-44526389D01*
X147221873Y-44360462D01*
X147529382Y-44053489D01*
X147696010Y-43652205D01*
X147696389Y-43217701D01*
X147530462Y-42816127D01*
X147223489Y-42508618D01*
X146822205Y-42341990D01*
X146387701Y-42341611D01*
X145986127Y-42507538D01*
X145678618Y-42814511D01*
X145511990Y-43215795D01*
X145511611Y-43650299D01*
X145156011Y-43650299D01*
X145156389Y-43217701D01*
X144990462Y-42816127D01*
X144683489Y-42508618D01*
X144282205Y-42341990D01*
X143847701Y-42341611D01*
X143446127Y-42507538D01*
X143138618Y-42814511D01*
X142971990Y-43215795D01*
X142971611Y-43650299D01*
X134631792Y-43650299D01*
X134631792Y-41148005D01*
X134631793Y-41148000D01*
X134624294Y-41110299D01*
X145511611Y-41110299D01*
X145677538Y-41511873D01*
X145984511Y-41819382D01*
X146385795Y-41986010D01*
X146820299Y-41986389D01*
X147221873Y-41820462D01*
X147529382Y-41513489D01*
X147696010Y-41112205D01*
X147696389Y-40677701D01*
X147530462Y-40276127D01*
X147223489Y-39968618D01*
X146822205Y-39801990D01*
X146387701Y-39801611D01*
X145986127Y-39967538D01*
X145678618Y-40274511D01*
X145511990Y-40675795D01*
X145511611Y-41110299D01*
X134624294Y-41110299D01*
X134572891Y-40851882D01*
X134405154Y-40600846D01*
X132373154Y-38568846D01*
X132353330Y-38555600D01*
X148144400Y-38555600D01*
X148144400Y-88644400D01*
X121225331Y-88644400D01*
X121454118Y-88598891D01*
X121705154Y-88431154D01*
X122494516Y-87641792D01*
X125984000Y-87641792D01*
X126280117Y-87582891D01*
X126531154Y-87415154D01*
X126698891Y-87164117D01*
X126705392Y-87131432D01*
X136083570Y-87131432D01*
X136285654Y-87620513D01*
X136659519Y-87995031D01*
X137148246Y-88197968D01*
X137677432Y-88198430D01*
X138166513Y-87996346D01*
X138541031Y-87622481D01*
X138743968Y-87133754D01*
X138744430Y-86604568D01*
X138542346Y-86115487D01*
X138168481Y-85740969D01*
X137679754Y-85538032D01*
X137150568Y-85537570D01*
X136661487Y-85739654D01*
X136286969Y-86113519D01*
X136084032Y-86602246D01*
X136083570Y-87131432D01*
X126705392Y-87131432D01*
X126757792Y-86868000D01*
X126698891Y-86571883D01*
X126531154Y-86320846D01*
X126280117Y-86153109D01*
X125984000Y-86094208D01*
X122174005Y-86094208D01*
X122174000Y-86094207D01*
X121877882Y-86153109D01*
X121626846Y-86320846D01*
X120837484Y-87110208D01*
X120260569Y-87110208D01*
X120438118Y-87074891D01*
X120689154Y-86907154D01*
X122240515Y-85355792D01*
X131826000Y-85355792D01*
X132122117Y-85296891D01*
X132373154Y-85129154D01*
X132540891Y-84878117D01*
X132599792Y-84582000D01*
X132540891Y-84285883D01*
X132373154Y-84034846D01*
X132122117Y-83867109D01*
X131944565Y-83831792D01*
X133887331Y-83831792D01*
X133887331Y-83888000D01*
X133910356Y-84010365D01*
X133982673Y-84122749D01*
X134093017Y-84198144D01*
X134224000Y-84224669D01*
X135524000Y-84224669D01*
X135646365Y-84201644D01*
X135758749Y-84129327D01*
X135834144Y-84018983D01*
X135860669Y-83888000D01*
X135860669Y-82388000D01*
X135837644Y-82265635D01*
X135765327Y-82153251D01*
X135654983Y-82077856D01*
X135524000Y-82051331D01*
X134224000Y-82051331D01*
X134101635Y-82074356D01*
X133989251Y-82146673D01*
X133913856Y-82257017D01*
X133908350Y-82284208D01*
X126304515Y-82284208D01*
X124753154Y-80732846D01*
X124502118Y-80565109D01*
X124324569Y-80529792D01*
X128457484Y-80529792D01*
X128807331Y-80879639D01*
X128807331Y-81602000D01*
X128830356Y-81724365D01*
X128902673Y-81836749D01*
X129013017Y-81912144D01*
X129144000Y-81938669D01*
X130444000Y-81938669D01*
X130566365Y-81915644D01*
X130678749Y-81843327D01*
X130754144Y-81732983D01*
X130780669Y-81602000D01*
X130780669Y-81545792D01*
X134619995Y-81545792D01*
X134620000Y-81545793D01*
X134726197Y-81524669D01*
X135524000Y-81524669D01*
X135646365Y-81501644D01*
X135758749Y-81429327D01*
X135834144Y-81318983D01*
X135860669Y-81188000D01*
X135860669Y-79688000D01*
X135837644Y-79565635D01*
X135765327Y-79453251D01*
X135654983Y-79377856D01*
X135524000Y-79351331D01*
X134224000Y-79351331D01*
X134101635Y-79374356D01*
X133989251Y-79446673D01*
X133913856Y-79557017D01*
X133887331Y-79688000D01*
X133887331Y-79998208D01*
X131690565Y-79998208D01*
X131868117Y-79962891D01*
X132119154Y-79795154D01*
X132286891Y-79544117D01*
X132345792Y-79248000D01*
X132286891Y-78951883D01*
X132119154Y-78700846D01*
X131868117Y-78533109D01*
X131572000Y-78474208D01*
X131130516Y-78474208D01*
X130780669Y-78124361D01*
X130780669Y-77402000D01*
X130757644Y-77279635D01*
X130724284Y-77227792D01*
X130997484Y-77227792D01*
X131278846Y-77509153D01*
X131529882Y-77676890D01*
X131826000Y-77735792D01*
X132122118Y-77676890D01*
X132373153Y-77509153D01*
X132540890Y-77258118D01*
X132599792Y-76962000D01*
X132540890Y-76665882D01*
X132373153Y-76414846D01*
X131865154Y-75906846D01*
X131614118Y-75739109D01*
X131318000Y-75680207D01*
X131317995Y-75680208D01*
X130860669Y-75680208D01*
X130860669Y-75575000D01*
X130837644Y-75452635D01*
X130765327Y-75340251D01*
X130654983Y-75264856D01*
X130524000Y-75238331D01*
X129024000Y-75238331D01*
X128901635Y-75261356D01*
X128789251Y-75333673D01*
X128713856Y-75444017D01*
X128687331Y-75575000D01*
X128687331Y-76825000D01*
X128710356Y-76947365D01*
X128782673Y-77059749D01*
X128893017Y-77135144D01*
X128935542Y-77143756D01*
X128909251Y-77160673D01*
X128833856Y-77271017D01*
X128807331Y-77402000D01*
X128807331Y-78902000D01*
X128824151Y-78991387D01*
X128778000Y-78982207D01*
X128777995Y-78982208D01*
X125086569Y-78982208D01*
X125264118Y-78946891D01*
X125515154Y-78779154D01*
X125682891Y-78528118D01*
X125741793Y-78232000D01*
X125682891Y-77935882D01*
X125515154Y-77684847D01*
X124753154Y-76922846D01*
X124502118Y-76755109D01*
X124289031Y-76712723D01*
X124245154Y-76668846D01*
X123994118Y-76501109D01*
X123698000Y-76442207D01*
X123697995Y-76442208D01*
X123104610Y-76442208D01*
X123134144Y-76398983D01*
X123160669Y-76268000D01*
X123160669Y-76200000D01*
X124448208Y-76200000D01*
X124507109Y-76496117D01*
X124674846Y-76747154D01*
X124925883Y-76914891D01*
X125222000Y-76973792D01*
X126227361Y-76973792D01*
X126282673Y-77059749D01*
X126393017Y-77135144D01*
X126524000Y-77161669D01*
X126693074Y-77161669D01*
X126703882Y-77168891D01*
X127000000Y-77227793D01*
X127296118Y-77168891D01*
X127306926Y-77161669D01*
X128024000Y-77161669D01*
X128146365Y-77138644D01*
X128258749Y-77066327D01*
X128334144Y-76955983D01*
X128360669Y-76825000D01*
X128360669Y-75575000D01*
X128337644Y-75452635D01*
X128265327Y-75340251D01*
X128154983Y-75264856D01*
X128024000Y-75238331D01*
X126524000Y-75238331D01*
X126401635Y-75261356D01*
X126289251Y-75333673D01*
X126226024Y-75426208D01*
X125222000Y-75426208D01*
X124925883Y-75485109D01*
X124674846Y-75652846D01*
X124507109Y-75903883D01*
X124448208Y-76200000D01*
X123160669Y-76200000D01*
X123160669Y-75545638D01*
X123256515Y-75449792D01*
X123952000Y-75449792D01*
X124248117Y-75390891D01*
X124499154Y-75223154D01*
X124666891Y-74972117D01*
X124725792Y-74676000D01*
X124685095Y-74471402D01*
X124928844Y-74715151D01*
X124928846Y-74715154D01*
X125179883Y-74882891D01*
X125476000Y-74941792D01*
X126746000Y-74941792D01*
X126820355Y-74927002D01*
X126896166Y-74927081D01*
X126966976Y-74897837D01*
X127042117Y-74882891D01*
X127105152Y-74840772D01*
X127175223Y-74811834D01*
X128197525Y-74130299D01*
X129671611Y-74130299D01*
X129837538Y-74531873D01*
X130144511Y-74839382D01*
X130545795Y-75006010D01*
X130980299Y-75006389D01*
X131381873Y-74840462D01*
X131689382Y-74533489D01*
X131856010Y-74132205D01*
X131856011Y-74130299D01*
X132311611Y-74130299D01*
X132477538Y-74531873D01*
X132784511Y-74839382D01*
X133185795Y-75006010D01*
X133620299Y-75006389D01*
X134021873Y-74840462D01*
X134329382Y-74533489D01*
X134496010Y-74132205D01*
X134496011Y-74130299D01*
X134951611Y-74130299D01*
X135117538Y-74531873D01*
X135424511Y-74839382D01*
X135825795Y-75006010D01*
X136260299Y-75006389D01*
X136661873Y-74840462D01*
X136969382Y-74533489D01*
X137136010Y-74132205D01*
X137136011Y-74130299D01*
X140231611Y-74130299D01*
X140397538Y-74531873D01*
X140704511Y-74839382D01*
X141105795Y-75006010D01*
X141540299Y-75006389D01*
X141941873Y-74840462D01*
X142249382Y-74533489D01*
X142416010Y-74132205D01*
X142416011Y-74130299D01*
X142871611Y-74130299D01*
X143037538Y-74531873D01*
X143344511Y-74839382D01*
X143745795Y-75006010D01*
X144180299Y-75006389D01*
X144581873Y-74840462D01*
X144889382Y-74533489D01*
X145056010Y-74132205D01*
X145056011Y-74130299D01*
X145511611Y-74130299D01*
X145677538Y-74531873D01*
X145984511Y-74839382D01*
X146385795Y-75006010D01*
X146820299Y-75006389D01*
X147221873Y-74840462D01*
X147529382Y-74533489D01*
X147696010Y-74132205D01*
X147696389Y-73697701D01*
X147530462Y-73296127D01*
X147223489Y-72988618D01*
X146822205Y-72821990D01*
X146387701Y-72821611D01*
X145986127Y-72987538D01*
X145678618Y-73294511D01*
X145511990Y-73695795D01*
X145511611Y-74130299D01*
X145056011Y-74130299D01*
X145056389Y-73697701D01*
X144890462Y-73296127D01*
X144583489Y-72988618D01*
X144182205Y-72821990D01*
X143747701Y-72821611D01*
X143346127Y-72987538D01*
X143038618Y-73294511D01*
X142871990Y-73695795D01*
X142871611Y-74130299D01*
X142416011Y-74130299D01*
X142416389Y-73697701D01*
X142250462Y-73296127D01*
X141943489Y-72988618D01*
X141542205Y-72821990D01*
X141107701Y-72821611D01*
X140706127Y-72987538D01*
X140398618Y-73294511D01*
X140231990Y-73695795D01*
X140231611Y-74130299D01*
X137136011Y-74130299D01*
X137136389Y-73697701D01*
X136970462Y-73296127D01*
X136663489Y-72988618D01*
X136262205Y-72821990D01*
X135827701Y-72821611D01*
X135426127Y-72987538D01*
X135118618Y-73294511D01*
X134951990Y-73695795D01*
X134951611Y-74130299D01*
X134496011Y-74130299D01*
X134496389Y-73697701D01*
X134330462Y-73296127D01*
X134023489Y-72988618D01*
X133622205Y-72821990D01*
X133187701Y-72821611D01*
X132786127Y-72987538D01*
X132478618Y-73294511D01*
X132311990Y-73695795D01*
X132311611Y-74130299D01*
X131856011Y-74130299D01*
X131856389Y-73697701D01*
X131690462Y-73296127D01*
X131383489Y-72988618D01*
X130982205Y-72821990D01*
X130547701Y-72821611D01*
X130146127Y-72987538D01*
X129838618Y-73294511D01*
X129671990Y-73695795D01*
X129671611Y-74130299D01*
X128197525Y-74130299D01*
X128699223Y-73795834D01*
X128753451Y-73741719D01*
X128817154Y-73699154D01*
X129071151Y-73445156D01*
X129071154Y-73445154D01*
X129238891Y-73194117D01*
X129297792Y-72898000D01*
X129297792Y-68326000D01*
X129238891Y-68029883D01*
X129071154Y-67778846D01*
X129071151Y-67778844D01*
X127773792Y-66481484D01*
X127773792Y-65904565D01*
X127809109Y-66082117D01*
X127976846Y-66333154D01*
X128227883Y-66500891D01*
X128524000Y-66559792D01*
X128772819Y-66510299D01*
X129671611Y-66510299D01*
X129837538Y-66911873D01*
X130144511Y-67219382D01*
X130545795Y-67386010D01*
X130980299Y-67386389D01*
X131381873Y-67220462D01*
X131689382Y-66913489D01*
X131856010Y-66512205D01*
X131856389Y-66077701D01*
X131690462Y-65676127D01*
X131383489Y-65368618D01*
X130982205Y-65201990D01*
X130547701Y-65201611D01*
X130146127Y-65367538D01*
X129838618Y-65674511D01*
X129671990Y-66075795D01*
X129671611Y-66510299D01*
X128772819Y-66510299D01*
X128820117Y-66500891D01*
X129071154Y-66333154D01*
X129238891Y-66082117D01*
X129297792Y-65786000D01*
X129297792Y-63970299D01*
X129671611Y-63970299D01*
X129837538Y-64371873D01*
X130144511Y-64679382D01*
X130545795Y-64846010D01*
X130980299Y-64846389D01*
X131381873Y-64680462D01*
X131689382Y-64373489D01*
X131856010Y-63972205D01*
X131856389Y-63537701D01*
X131690462Y-63136127D01*
X131383489Y-62828618D01*
X130982205Y-62661990D01*
X130547701Y-62661611D01*
X130146127Y-62827538D01*
X129838618Y-63134511D01*
X129671990Y-63535795D01*
X129671611Y-63970299D01*
X129297792Y-63970299D01*
X129297792Y-61430299D01*
X129671611Y-61430299D01*
X129837538Y-61831873D01*
X130144511Y-62139382D01*
X130545795Y-62306010D01*
X130980299Y-62306389D01*
X131381873Y-62140462D01*
X131689382Y-61833489D01*
X131856010Y-61432205D01*
X131856389Y-60997701D01*
X131690462Y-60596127D01*
X131383489Y-60288618D01*
X130982205Y-60121990D01*
X130547701Y-60121611D01*
X130146127Y-60287538D01*
X129838618Y-60594511D01*
X129671990Y-60995795D01*
X129671611Y-61430299D01*
X129297792Y-61430299D01*
X129297792Y-60960005D01*
X129297793Y-60960000D01*
X129238891Y-60663882D01*
X129107083Y-60466618D01*
X129071154Y-60412846D01*
X129071151Y-60412844D01*
X127548607Y-58890299D01*
X129671611Y-58890299D01*
X129837538Y-59291873D01*
X130144511Y-59599382D01*
X130545795Y-59766010D01*
X130980299Y-59766389D01*
X131381873Y-59600462D01*
X131689382Y-59293489D01*
X131856010Y-58892205D01*
X131856389Y-58457701D01*
X131690462Y-58056127D01*
X131383489Y-57748618D01*
X130982205Y-57581990D01*
X130547701Y-57581611D01*
X130146127Y-57747538D01*
X129838618Y-58054511D01*
X129671990Y-58455795D01*
X129671611Y-58890299D01*
X127548607Y-58890299D01*
X125008607Y-56350299D01*
X129671611Y-56350299D01*
X129837538Y-56751873D01*
X130144511Y-57059382D01*
X130545795Y-57226010D01*
X130980299Y-57226389D01*
X131381873Y-57060462D01*
X131689382Y-56753489D01*
X131856010Y-56352205D01*
X131856389Y-55917701D01*
X131690462Y-55516127D01*
X131383489Y-55208618D01*
X130982205Y-55041990D01*
X130547701Y-55041611D01*
X130146127Y-55207538D01*
X129838618Y-55514511D01*
X129671990Y-55915795D01*
X129671611Y-56350299D01*
X125008607Y-56350299D01*
X123737154Y-55078846D01*
X123486118Y-54911109D01*
X123190000Y-54852207D01*
X122893882Y-54911109D01*
X122642846Y-55078846D01*
X122475109Y-55329882D01*
X122416207Y-55626000D01*
X122475109Y-55922118D01*
X122642846Y-56173154D01*
X127750208Y-61280515D01*
X127750208Y-61857431D01*
X127714891Y-61679882D01*
X127549398Y-61432205D01*
X127547154Y-61428846D01*
X127547151Y-61428844D01*
X120740100Y-54621792D01*
X123444000Y-54621792D01*
X123740117Y-54562891D01*
X123991154Y-54395154D01*
X124158891Y-54144117D01*
X124217792Y-53848000D01*
X124210293Y-53810299D01*
X129671611Y-53810299D01*
X129837538Y-54211873D01*
X130144511Y-54519382D01*
X130545795Y-54686010D01*
X130980299Y-54686389D01*
X131381873Y-54520462D01*
X131689382Y-54213489D01*
X131856010Y-53812205D01*
X131856389Y-53377701D01*
X131690462Y-52976127D01*
X131383489Y-52668618D01*
X130982205Y-52501990D01*
X130547701Y-52501611D01*
X130146127Y-52667538D01*
X129838618Y-52974511D01*
X129671990Y-53375795D01*
X129671611Y-53810299D01*
X124210293Y-53810299D01*
X124158891Y-53551883D01*
X123991154Y-53300846D01*
X123740117Y-53133109D01*
X123444000Y-53074208D01*
X120299000Y-53074208D01*
X120253489Y-53028618D01*
X119852205Y-52861990D01*
X119417701Y-52861611D01*
X119016127Y-53027538D01*
X118969376Y-53074208D01*
X109982005Y-53074208D01*
X109982000Y-53074207D01*
X109685882Y-53133109D01*
X109615394Y-53180208D01*
X109434846Y-53300846D01*
X109434844Y-53300849D01*
X107656846Y-55078846D01*
X107611086Y-55147331D01*
X107374000Y-55147331D01*
X107251635Y-55170356D01*
X107139251Y-55242673D01*
X107063856Y-55353017D01*
X107062400Y-55360208D01*
X105410000Y-55360208D01*
X105113883Y-55419109D01*
X104862846Y-55586846D01*
X104695109Y-55837883D01*
X104636208Y-56134000D01*
X104695109Y-56430117D01*
X104862846Y-56681154D01*
X105113883Y-56848891D01*
X105410000Y-56907792D01*
X107061274Y-56907792D01*
X107132673Y-57018749D01*
X107243017Y-57094144D01*
X107374000Y-57120669D01*
X107430208Y-57120669D01*
X107430208Y-57912000D01*
X107489109Y-58208117D01*
X107656846Y-58459154D01*
X107907883Y-58626891D01*
X108204000Y-58685792D01*
X108500117Y-58626891D01*
X108751154Y-58459154D01*
X108918891Y-58208117D01*
X108966000Y-57971285D01*
X109013109Y-58208118D01*
X109180846Y-58459154D01*
X109431882Y-58626891D01*
X109728000Y-58685793D01*
X110024118Y-58626891D01*
X110275154Y-58459154D01*
X111076308Y-57658000D01*
X112002208Y-57658000D01*
X112061109Y-57954117D01*
X112228846Y-58205154D01*
X112479883Y-58372891D01*
X112776000Y-58431792D01*
X119888000Y-58431792D01*
X120184117Y-58372891D01*
X120435154Y-58205154D01*
X120602891Y-57954117D01*
X120661792Y-57658000D01*
X120602891Y-57361883D01*
X120435154Y-57110846D01*
X120184117Y-56943109D01*
X119888000Y-56884208D01*
X112776000Y-56884208D01*
X112479883Y-56943109D01*
X112228846Y-57110846D01*
X112061109Y-57361883D01*
X112002208Y-57658000D01*
X111076308Y-57658000D01*
X111291154Y-57443154D01*
X111458891Y-57192118D01*
X111473103Y-57120669D01*
X111574000Y-57120669D01*
X111696365Y-57097644D01*
X111808749Y-57025327D01*
X111884144Y-56914983D01*
X111910669Y-56784000D01*
X111910669Y-56689782D01*
X113435753Y-56384765D01*
X113714568Y-56268935D01*
X113927834Y-56055223D01*
X114043082Y-55776165D01*
X114042766Y-55474247D01*
X113926935Y-55195432D01*
X113713223Y-54982166D01*
X113434165Y-54866918D01*
X113132247Y-54867235D01*
X111652392Y-55163206D01*
X111574000Y-55147331D01*
X110074000Y-55147331D01*
X109951635Y-55170356D01*
X109839251Y-55242673D01*
X109763856Y-55353017D01*
X109737331Y-55484000D01*
X109737331Y-56784000D01*
X109741189Y-56804503D01*
X109180846Y-57364846D01*
X109013109Y-57615882D01*
X108977792Y-57793431D01*
X108977792Y-57101139D01*
X108996365Y-57097644D01*
X109108749Y-57025327D01*
X109184144Y-56914983D01*
X109210669Y-56784000D01*
X109210669Y-55713639D01*
X110302515Y-54621792D01*
X118757370Y-54621792D01*
X118860208Y-54724810D01*
X118860208Y-54864000D01*
X118919109Y-55160117D01*
X119086846Y-55411154D01*
X119337883Y-55578891D01*
X119550968Y-55621276D01*
X126226208Y-62296515D01*
X126226208Y-66801995D01*
X126226207Y-66802000D01*
X126285109Y-67098118D01*
X126452846Y-67349154D01*
X127750208Y-68646515D01*
X127750208Y-68969435D01*
X127714891Y-68791883D01*
X127547154Y-68540846D01*
X127296117Y-68373109D01*
X127000000Y-68314208D01*
X126572000Y-68314208D01*
X126275883Y-68373109D01*
X126208669Y-68418020D01*
X126208669Y-66988000D01*
X126185644Y-66865635D01*
X126113327Y-66753251D01*
X126002983Y-66677856D01*
X125872000Y-66651331D01*
X124572000Y-66651331D01*
X124449635Y-66674356D01*
X124337251Y-66746673D01*
X124261856Y-66857017D01*
X124235331Y-66988000D01*
X124235331Y-67044208D01*
X120158264Y-67044208D01*
X120158411Y-66875352D01*
X119973038Y-66426715D01*
X119630090Y-66083168D01*
X119181778Y-65897012D01*
X118696352Y-65896589D01*
X118247715Y-66081962D01*
X117904168Y-66424910D01*
X117718012Y-66873222D01*
X117717599Y-67347292D01*
X115152100Y-64781792D01*
X115316000Y-64781792D01*
X115612117Y-64722891D01*
X115863154Y-64555154D01*
X116030891Y-64304117D01*
X116089792Y-64008000D01*
X116030891Y-63711883D01*
X115863154Y-63460846D01*
X115612117Y-63293109D01*
X115316000Y-63234208D01*
X106238515Y-63234208D01*
X105957154Y-62952846D01*
X105706118Y-62785109D01*
X105410000Y-62726207D01*
X105113882Y-62785109D01*
X104862846Y-62952846D01*
X104695109Y-63203882D01*
X104636207Y-63500000D01*
X104695109Y-63796118D01*
X104862846Y-64047154D01*
X105370844Y-64555151D01*
X105370846Y-64555154D01*
X105379341Y-64560830D01*
X105367883Y-64563109D01*
X105116846Y-64730846D01*
X105116844Y-64730849D01*
X102803484Y-67044208D01*
X102313139Y-67044208D01*
X102309644Y-67025635D01*
X102237327Y-66913251D01*
X102126983Y-66837856D01*
X101996000Y-66811331D01*
X100696000Y-66811331D01*
X100573635Y-66834356D01*
X100461251Y-66906673D01*
X100385856Y-67017017D01*
X100359331Y-67148000D01*
X100359331Y-68648000D01*
X100382356Y-68770365D01*
X100454673Y-68882749D01*
X100565017Y-68958144D01*
X100696000Y-68984669D01*
X101996000Y-68984669D01*
X102118365Y-68961644D01*
X102230749Y-68889327D01*
X102306144Y-68778983D01*
X102332669Y-68648000D01*
X102332669Y-68591792D01*
X103123995Y-68591792D01*
X103124000Y-68591793D01*
X103420118Y-68532891D01*
X103671154Y-68365154D01*
X105984515Y-66051792D01*
X106098805Y-66051792D01*
X105965109Y-66251882D01*
X105906207Y-66548000D01*
X105965109Y-66844118D01*
X106132846Y-67095154D01*
X108192208Y-69154515D01*
X108192208Y-73513731D01*
X107276593Y-72405221D01*
X107042603Y-72214426D01*
X106753408Y-72127697D01*
X106453038Y-72158242D01*
X106187221Y-72301407D01*
X105996426Y-72535397D01*
X105909697Y-72824592D01*
X105940242Y-73124962D01*
X106083407Y-73390779D01*
X109457626Y-77475851D01*
X109457589Y-77518648D01*
X109642962Y-77967285D01*
X109985910Y-78310832D01*
X110434222Y-78496988D01*
X110919648Y-78497411D01*
X111368285Y-78312038D01*
X111642682Y-78038119D01*
X114208106Y-77991586D01*
X111974846Y-80224846D01*
X111807109Y-80475882D01*
X111748207Y-80772000D01*
X111748208Y-80772005D01*
X111748208Y-81751833D01*
X111713038Y-81666715D01*
X111370090Y-81323168D01*
X110921778Y-81137012D01*
X110436352Y-81136589D01*
X109987715Y-81321962D01*
X109644168Y-81664910D01*
X109458012Y-82113222D01*
X109457589Y-82598648D01*
X109642962Y-83047285D01*
X109985910Y-83390832D01*
X110434222Y-83576988D01*
X110919648Y-83577411D01*
X111368285Y-83392038D01*
X111711832Y-83049090D01*
X111748208Y-82961487D01*
X111748208Y-83312000D01*
X111807109Y-83608117D01*
X111974846Y-83859154D01*
X112225883Y-84026891D01*
X112522000Y-84085792D01*
X112818117Y-84026891D01*
X113069154Y-83859154D01*
X113236891Y-83608117D01*
X113295792Y-83312000D01*
X113295792Y-81092516D01*
X113526208Y-80862100D01*
X113526208Y-85343995D01*
X113526207Y-85344000D01*
X113585109Y-85640118D01*
X113752846Y-85891154D01*
X113965975Y-86104283D01*
X113932110Y-86102635D01*
X113647887Y-86204479D01*
X112377887Y-86966479D01*
X112307670Y-87030179D01*
X112228846Y-87082847D01*
X112201485Y-87110208D01*
X107822726Y-87110208D01*
X107751327Y-86999251D01*
X107640983Y-86923856D01*
X107510000Y-86897331D01*
X106010000Y-86897331D01*
X105887635Y-86920356D01*
X105775251Y-86992673D01*
X105699856Y-87103017D01*
X105673331Y-87234000D01*
X105673331Y-88534000D01*
X105694105Y-88644400D01*
X105124312Y-88644400D01*
X105146669Y-88534000D01*
X105146669Y-87234000D01*
X105123644Y-87111635D01*
X105051327Y-86999251D01*
X104940983Y-86923856D01*
X104913792Y-86918350D01*
X104913792Y-85138648D01*
X109457589Y-85138648D01*
X109642962Y-85587285D01*
X109985910Y-85930832D01*
X110434222Y-86116988D01*
X110919648Y-86117411D01*
X111368285Y-85932038D01*
X111711832Y-85589090D01*
X111897988Y-85140778D01*
X111898411Y-84655352D01*
X111713038Y-84206715D01*
X111370090Y-83863168D01*
X110921778Y-83677012D01*
X110436352Y-83676589D01*
X109987715Y-83861962D01*
X109644168Y-84204910D01*
X109458012Y-84653222D01*
X109457589Y-85138648D01*
X104913792Y-85138648D01*
X104913792Y-85090000D01*
X104854891Y-84793883D01*
X104712608Y-84580941D01*
X104944118Y-84534891D01*
X105195154Y-84367154D01*
X106533638Y-83028669D01*
X107256000Y-83028669D01*
X107378365Y-83005644D01*
X107490749Y-82933327D01*
X107566144Y-82822983D01*
X107592669Y-82692000D01*
X107592669Y-81392000D01*
X107569644Y-81269635D01*
X107497327Y-81157251D01*
X107386983Y-81081856D01*
X107256000Y-81055331D01*
X105756000Y-81055331D01*
X105633635Y-81078356D01*
X105521251Y-81150673D01*
X105445856Y-81261017D01*
X105419331Y-81392000D01*
X105419331Y-81954362D01*
X104892669Y-82481023D01*
X104892669Y-81392000D01*
X104869644Y-81269635D01*
X104797327Y-81157251D01*
X104686983Y-81081856D01*
X104556000Y-81055331D01*
X103739639Y-81055331D01*
X103389792Y-80705484D01*
X103389792Y-76454000D01*
X103330891Y-76157883D01*
X103163154Y-75906846D01*
X102912117Y-75739109D01*
X102616000Y-75680208D01*
X102319883Y-75739109D01*
X102068846Y-75906846D01*
X101901109Y-76157883D01*
X101842208Y-76454000D01*
X101842208Y-81025995D01*
X101842207Y-81026000D01*
X101901109Y-81322118D01*
X102068846Y-81573154D01*
X102719331Y-82223639D01*
X102719331Y-82692000D01*
X102742356Y-82814365D01*
X102814673Y-82926749D01*
X102925017Y-83002144D01*
X103056000Y-83028669D01*
X104345023Y-83028669D01*
X104327484Y-83046208D01*
X101437104Y-83046208D01*
X101084481Y-82692969D01*
X100595754Y-82490032D01*
X100066568Y-82489570D01*
X99577487Y-82691654D01*
X99202969Y-83065519D01*
X99000032Y-83554246D01*
X98999570Y-84083432D01*
X99201654Y-84572513D01*
X99575519Y-84947031D01*
X100064246Y-85149968D01*
X100593432Y-85150430D01*
X101082513Y-84948346D01*
X101437686Y-84593792D01*
X103558805Y-84593792D01*
X103425109Y-84793883D01*
X103366208Y-85090000D01*
X103366208Y-86897331D01*
X103310000Y-86897331D01*
X103187635Y-86920356D01*
X103075251Y-86992673D01*
X102999856Y-87103017D01*
X102973331Y-87234000D01*
X102973331Y-88534000D01*
X102994105Y-88644400D01*
X98055600Y-88644400D01*
X98055600Y-63754000D01*
X98794207Y-63754000D01*
X98794208Y-63754005D01*
X98794208Y-70866000D01*
X98801341Y-70901858D01*
X98797586Y-70938226D01*
X98830584Y-71048874D01*
X98853109Y-71162117D01*
X98873421Y-71192516D01*
X98883870Y-71227554D01*
X98956700Y-71317152D01*
X99020846Y-71413154D01*
X99051246Y-71433467D01*
X99074307Y-71461837D01*
X107964307Y-78827836D01*
X108229903Y-78971409D01*
X108530226Y-79002414D01*
X108819553Y-78916130D01*
X109053836Y-78725693D01*
X109197409Y-78460097D01*
X109228414Y-78159773D01*
X109142129Y-77870446D01*
X108951693Y-77636163D01*
X100341792Y-70502245D01*
X100341792Y-64074516D01*
X101374905Y-63041403D01*
X101334208Y-63246000D01*
X101334208Y-64111331D01*
X100696000Y-64111331D01*
X100573635Y-64134356D01*
X100461251Y-64206673D01*
X100385856Y-64317017D01*
X100359331Y-64448000D01*
X100359331Y-65948000D01*
X100382356Y-66070365D01*
X100454673Y-66182749D01*
X100565017Y-66258144D01*
X100696000Y-66284669D01*
X101996000Y-66284669D01*
X102118365Y-66261644D01*
X102230749Y-66189327D01*
X102306144Y-66078983D01*
X102311650Y-66051792D01*
X102558563Y-66051792D01*
X102576846Y-66079154D01*
X102827882Y-66246891D01*
X103124000Y-66305793D01*
X103420118Y-66246891D01*
X103671154Y-66079154D01*
X103925151Y-65825156D01*
X103925154Y-65825154D01*
X104092891Y-65574117D01*
X104151792Y-65278000D01*
X104092891Y-64981883D01*
X103925154Y-64730846D01*
X103674117Y-64563109D01*
X103378000Y-64504208D01*
X102881792Y-64504208D01*
X102881792Y-63246000D01*
X102822891Y-62949883D01*
X102655154Y-62698846D01*
X102404117Y-62531109D01*
X102108000Y-62472208D01*
X101903403Y-62512905D01*
X102808008Y-61608299D01*
X117441611Y-61608299D01*
X117607538Y-62009873D01*
X117914511Y-62317382D01*
X118315795Y-62484010D01*
X118750299Y-62484389D01*
X119151873Y-62318462D01*
X119459382Y-62011489D01*
X119626010Y-61610205D01*
X119626011Y-61608299D01*
X119941611Y-61608299D01*
X120107538Y-62009873D01*
X120414511Y-62317382D01*
X120815795Y-62484010D01*
X121250299Y-62484389D01*
X121651873Y-62318462D01*
X121959382Y-62011489D01*
X122126010Y-61610205D01*
X122126011Y-61608299D01*
X122441611Y-61608299D01*
X122607538Y-62009873D01*
X122914511Y-62317382D01*
X123315795Y-62484010D01*
X123750299Y-62484389D01*
X124151873Y-62318462D01*
X124459382Y-62011489D01*
X124626010Y-61610205D01*
X124626389Y-61175701D01*
X124460462Y-60774127D01*
X124153489Y-60466618D01*
X123752205Y-60299990D01*
X123317701Y-60299611D01*
X122916127Y-60465538D01*
X122608618Y-60772511D01*
X122441990Y-61173795D01*
X122441611Y-61608299D01*
X122126011Y-61608299D01*
X122126389Y-61175701D01*
X121960462Y-60774127D01*
X121653489Y-60466618D01*
X121252205Y-60299990D01*
X120817701Y-60299611D01*
X120416127Y-60465538D01*
X120108618Y-60772511D01*
X119941990Y-61173795D01*
X119941611Y-61608299D01*
X119626011Y-61608299D01*
X119626389Y-61175701D01*
X119460462Y-60774127D01*
X119153489Y-60466618D01*
X118752205Y-60299990D01*
X118317701Y-60299611D01*
X117916127Y-60465538D01*
X117608618Y-60772511D01*
X117441990Y-61173795D01*
X117441611Y-61608299D01*
X102808008Y-61608299D01*
X104167357Y-60248950D01*
X106984588Y-60248950D01*
X107169809Y-60697219D01*
X107512477Y-61040485D01*
X107960422Y-61226488D01*
X108445450Y-61226912D01*
X108893719Y-61041691D01*
X109236985Y-60699023D01*
X109422988Y-60251078D01*
X109422989Y-60248950D01*
X112064588Y-60248950D01*
X112249809Y-60697219D01*
X112592477Y-61040485D01*
X113040422Y-61226488D01*
X113525450Y-61226912D01*
X113973719Y-61041691D01*
X114316985Y-60699023D01*
X114502988Y-60251078D01*
X114503412Y-59766050D01*
X114318191Y-59317781D01*
X113975523Y-58974515D01*
X113527578Y-58788512D01*
X113042550Y-58788088D01*
X112594281Y-58973309D01*
X112251015Y-59315977D01*
X112065012Y-59763922D01*
X112064588Y-60248950D01*
X109422989Y-60248950D01*
X109423412Y-59766050D01*
X109238191Y-59317781D01*
X108895523Y-58974515D01*
X108447578Y-58788512D01*
X107962550Y-58788088D01*
X107514281Y-58973309D01*
X107171015Y-59315977D01*
X106985012Y-59763922D01*
X106984588Y-60248950D01*
X104167357Y-60248950D01*
X105195151Y-59221156D01*
X105195154Y-59221154D01*
X105213437Y-59193792D01*
X105663995Y-59193792D01*
X105664000Y-59193793D01*
X105960118Y-59134891D01*
X106211154Y-58967154D01*
X106719153Y-58459154D01*
X106886890Y-58208118D01*
X106945792Y-57912000D01*
X106886890Y-57615882D01*
X106719153Y-57364847D01*
X106468118Y-57197110D01*
X106172000Y-57138208D01*
X105875882Y-57197110D01*
X105624846Y-57364847D01*
X105343484Y-57646208D01*
X104648000Y-57646208D01*
X104351883Y-57705109D01*
X104100846Y-57872846D01*
X103933109Y-58123883D01*
X103890724Y-58336969D01*
X99020846Y-63206846D01*
X98853109Y-63457882D01*
X98794207Y-63754000D01*
X98055600Y-63754000D01*
X98055600Y-44158299D01*
X103087611Y-44158299D01*
X103253538Y-44559873D01*
X103560511Y-44867382D01*
X103961795Y-45034010D01*
X104396299Y-45034389D01*
X104797873Y-44868462D01*
X105105382Y-44561489D01*
X105272010Y-44160205D01*
X105272389Y-43725701D01*
X105106462Y-43324127D01*
X104799489Y-43016618D01*
X104398205Y-42849990D01*
X103963701Y-42849611D01*
X103562127Y-43015538D01*
X103254618Y-43322511D01*
X103087990Y-43723795D01*
X103087611Y-44158299D01*
X98055600Y-44158299D01*
X98055600Y-41665432D01*
X99253570Y-41665432D01*
X99455654Y-42154513D01*
X99829519Y-42529031D01*
X100318246Y-42731968D01*
X100847432Y-42732430D01*
X101336513Y-42530346D01*
X101691686Y-42175792D01*
X103409185Y-42175792D01*
X103560511Y-42327382D01*
X103961795Y-42494010D01*
X104396299Y-42494389D01*
X104797873Y-42328462D01*
X104950810Y-42175792D01*
X105973045Y-42175792D01*
X105995356Y-42294365D01*
X106067673Y-42406749D01*
X106178017Y-42482144D01*
X106309000Y-42508669D01*
X107559000Y-42508669D01*
X107681365Y-42485644D01*
X107793749Y-42413327D01*
X107869144Y-42302983D01*
X107895669Y-42172000D01*
X107895669Y-40672000D01*
X107872644Y-40549635D01*
X107800327Y-40437251D01*
X107689983Y-40361856D01*
X107559000Y-40335331D01*
X106309000Y-40335331D01*
X106186635Y-40358356D01*
X106074251Y-40430673D01*
X105998856Y-40541017D01*
X105981199Y-40628208D01*
X104950815Y-40628208D01*
X104799489Y-40476618D01*
X104398205Y-40309990D01*
X103963701Y-40309611D01*
X103562127Y-40475538D01*
X103409190Y-40628208D01*
X101691104Y-40628208D01*
X101338481Y-40274969D01*
X100849754Y-40072032D01*
X100320568Y-40071570D01*
X99831487Y-40273654D01*
X99456969Y-40647519D01*
X99254032Y-41136246D01*
X99253570Y-41665432D01*
X98055600Y-41665432D01*
X98055600Y-38555600D01*
X112248670Y-38555600D01*
X112228846Y-38568846D01*
X112228846Y-38568846D01*
G37*
X112228846Y-38568846D02*
X112228844Y-38568849D01*
X108926846Y-41870846D01*
X108759109Y-42121882D01*
X108700207Y-42418000D01*
X108700208Y-42418005D01*
X108700208Y-46363435D01*
X108664891Y-46185883D01*
X108497154Y-45934846D01*
X108246117Y-45767109D01*
X107950000Y-45708208D01*
X104950815Y-45708208D01*
X104799489Y-45556618D01*
X104398205Y-45389990D01*
X103963701Y-45389611D01*
X103562127Y-45555538D01*
X103254618Y-45862511D01*
X103087990Y-46263795D01*
X103087611Y-46698299D01*
X103253538Y-47099873D01*
X103560511Y-47407382D01*
X103961795Y-47574010D01*
X104396299Y-47574389D01*
X104797873Y-47408462D01*
X104950810Y-47255792D01*
X107950000Y-47255792D01*
X108246117Y-47196891D01*
X108497154Y-47029154D01*
X108664891Y-46778117D01*
X108700208Y-46600565D01*
X108700208Y-46923485D01*
X105116846Y-50506846D01*
X104976035Y-50717584D01*
X104974281Y-50718309D01*
X104631015Y-51060977D01*
X104445012Y-51508922D01*
X104444588Y-51993950D01*
X104629809Y-52442219D01*
X104972477Y-52785485D01*
X105420422Y-52971488D01*
X105905450Y-52971912D01*
X106353719Y-52786691D01*
X106696985Y-52444023D01*
X106882988Y-51996078D01*
X106882989Y-51993950D01*
X106984588Y-51993950D01*
X107169809Y-52442219D01*
X107512477Y-52785485D01*
X107960422Y-52971488D01*
X108445450Y-52971912D01*
X108893719Y-52786691D01*
X109236985Y-52444023D01*
X109422988Y-51996078D01*
X109422989Y-51993950D01*
X109524588Y-51993950D01*
X109709809Y-52442219D01*
X110052477Y-52785485D01*
X110500422Y-52971488D01*
X110985450Y-52971912D01*
X111433719Y-52786691D01*
X111776985Y-52444023D01*
X111962988Y-51996078D01*
X111962989Y-51993950D01*
X112064588Y-51993950D01*
X112249809Y-52442219D01*
X112592477Y-52785485D01*
X113040422Y-52971488D01*
X113525450Y-52971912D01*
X113973719Y-52786691D01*
X114316985Y-52444023D01*
X114502988Y-51996078D01*
X114503412Y-51511050D01*
X114403936Y-51270299D01*
X118503611Y-51270299D01*
X118669538Y-51671873D01*
X118976511Y-51979382D01*
X119377795Y-52146010D01*
X119812299Y-52146389D01*
X120213873Y-51980462D01*
X120521382Y-51673489D01*
X120688010Y-51272205D01*
X120688011Y-51270299D01*
X129671611Y-51270299D01*
X129837538Y-51671873D01*
X130144511Y-51979382D01*
X130545795Y-52146010D01*
X130980299Y-52146389D01*
X131381873Y-51980462D01*
X131689382Y-51673489D01*
X131856010Y-51272205D01*
X131856389Y-50837701D01*
X131690462Y-50436127D01*
X131383489Y-50128618D01*
X130982205Y-49961990D01*
X130547701Y-49961611D01*
X130146127Y-50127538D01*
X129838618Y-50434511D01*
X129671990Y-50835795D01*
X129671611Y-51270299D01*
X120688011Y-51270299D01*
X120688389Y-50837701D01*
X120522462Y-50436127D01*
X120215489Y-50128618D01*
X119814205Y-49961990D01*
X119379701Y-49961611D01*
X118978127Y-50127538D01*
X118670618Y-50434511D01*
X118503990Y-50835795D01*
X118503611Y-51270299D01*
X114403936Y-51270299D01*
X114318191Y-51062781D01*
X113975523Y-50719515D01*
X113527578Y-50533512D01*
X113042550Y-50533088D01*
X112594281Y-50718309D01*
X112251015Y-51060977D01*
X112065012Y-51508922D01*
X112064588Y-51993950D01*
X111962989Y-51993950D01*
X111963412Y-51511050D01*
X111778191Y-51062781D01*
X111435523Y-50719515D01*
X110987578Y-50533512D01*
X110502550Y-50533088D01*
X110054281Y-50718309D01*
X109711015Y-51060977D01*
X109525012Y-51508922D01*
X109524588Y-51993950D01*
X109422989Y-51993950D01*
X109423412Y-51511050D01*
X109238191Y-51062781D01*
X108895523Y-50719515D01*
X108447578Y-50533512D01*
X107962550Y-50533088D01*
X107514281Y-50718309D01*
X107171015Y-51060977D01*
X106985012Y-51508922D01*
X106984588Y-51993950D01*
X106882989Y-51993950D01*
X106883412Y-51511050D01*
X106713201Y-51099107D01*
X109298307Y-48514000D01*
X109970207Y-48514000D01*
X110029109Y-48810118D01*
X110196846Y-49061154D01*
X110447882Y-49228891D01*
X110744000Y-49287793D01*
X111040118Y-49228891D01*
X111291154Y-49061154D01*
X112763639Y-47588669D01*
X113276361Y-47588669D01*
X114748844Y-49061151D01*
X114748846Y-49061154D01*
X114854685Y-49131873D01*
X114999882Y-49228891D01*
X115296000Y-49287793D01*
X115296005Y-49287792D01*
X115824000Y-49287792D01*
X116120117Y-49228891D01*
X116371154Y-49061154D01*
X116538891Y-48810117D01*
X116554767Y-48730299D01*
X129671611Y-48730299D01*
X129837538Y-49131873D01*
X130144511Y-49439382D01*
X130545795Y-49606010D01*
X130980299Y-49606389D01*
X131381873Y-49440462D01*
X131689382Y-49133489D01*
X131856010Y-48732205D01*
X131856389Y-48297701D01*
X131690462Y-47896127D01*
X131383489Y-47588618D01*
X130982205Y-47421990D01*
X130547701Y-47421611D01*
X130146127Y-47587538D01*
X129838618Y-47894511D01*
X129671990Y-48295795D01*
X129671611Y-48730299D01*
X116554767Y-48730299D01*
X116597792Y-48514000D01*
X116538891Y-48217883D01*
X116371154Y-47966846D01*
X116120117Y-47799109D01*
X115824000Y-47740208D01*
X115616515Y-47740208D01*
X114245669Y-46369361D01*
X114245669Y-45752000D01*
X114222644Y-45629635D01*
X114150327Y-45517251D01*
X114039983Y-45441856D01*
X113909000Y-45415331D01*
X112659000Y-45415331D01*
X112536635Y-45438356D01*
X112424251Y-45510673D01*
X112348856Y-45621017D01*
X112322331Y-45752000D01*
X112322331Y-45872381D01*
X112228846Y-45934846D01*
X110196846Y-47966846D01*
X110029109Y-48217882D01*
X109970207Y-48514000D01*
X109298307Y-48514000D01*
X110021151Y-47791156D01*
X110021154Y-47791154D01*
X110156484Y-47588618D01*
X110188891Y-47540118D01*
X110247793Y-47244000D01*
X110247792Y-47243995D01*
X110247792Y-44196000D01*
X111494208Y-44196000D01*
X111553109Y-44492117D01*
X111720846Y-44743154D01*
X111971883Y-44910891D01*
X112268000Y-44969792D01*
X116563053Y-44969792D01*
X116638511Y-45045382D01*
X117011373Y-45200208D01*
X115824000Y-45200208D01*
X115527883Y-45259109D01*
X115276846Y-45426846D01*
X115109109Y-45677883D01*
X115050208Y-45974000D01*
X115109109Y-46270117D01*
X115276846Y-46521154D01*
X115527883Y-46688891D01*
X115824000Y-46747792D01*
X122935995Y-46747792D01*
X122936000Y-46747793D01*
X123232118Y-46688891D01*
X123483154Y-46521154D01*
X123814008Y-46190299D01*
X129671611Y-46190299D01*
X129837538Y-46591873D01*
X130144511Y-46899382D01*
X130545795Y-47066010D01*
X130980299Y-47066389D01*
X131381873Y-46900462D01*
X131689382Y-46593489D01*
X131856010Y-46192205D01*
X131856389Y-45757701D01*
X131690462Y-45356127D01*
X131383489Y-45048618D01*
X130982205Y-44881990D01*
X130547701Y-44881611D01*
X130146127Y-45047538D01*
X129838618Y-45354511D01*
X129671990Y-45755795D01*
X129671611Y-46190299D01*
X123814008Y-46190299D01*
X126277154Y-43727153D01*
X126328506Y-43650299D01*
X129671611Y-43650299D01*
X129837538Y-44051873D01*
X130144511Y-44359382D01*
X130545795Y-44526010D01*
X130980299Y-44526389D01*
X131381873Y-44360462D01*
X131689382Y-44053489D01*
X131856010Y-43652205D01*
X131856389Y-43217701D01*
X131690462Y-42816127D01*
X131383489Y-42508618D01*
X130982205Y-42341990D01*
X130547701Y-42341611D01*
X130146127Y-42507538D01*
X129838618Y-42814511D01*
X129671990Y-43215795D01*
X129671611Y-43650299D01*
X126328506Y-43650299D01*
X126444891Y-43476118D01*
X126503793Y-43180000D01*
X126444891Y-42883882D01*
X126277154Y-42632846D01*
X126026118Y-42465109D01*
X125730000Y-42406207D01*
X125433882Y-42465109D01*
X125182847Y-42632846D01*
X123259489Y-44556203D01*
X123350010Y-44338205D01*
X123350389Y-43903701D01*
X123184462Y-43502127D01*
X122877489Y-43194618D01*
X122476205Y-43027990D01*
X122041701Y-43027611D01*
X121640127Y-43193538D01*
X121332618Y-43500511D01*
X121165990Y-43901795D01*
X121165611Y-44336299D01*
X121331538Y-44737873D01*
X121638511Y-45045382D01*
X122011373Y-45200208D01*
X117503779Y-45200208D01*
X117875873Y-45046462D01*
X118183382Y-44739489D01*
X118350010Y-44338205D01*
X118350389Y-43903701D01*
X118184462Y-43502127D01*
X117877489Y-43194618D01*
X117476205Y-43027990D01*
X117041701Y-43027611D01*
X116640127Y-43193538D01*
X116411058Y-43422208D01*
X112268000Y-43422208D01*
X111971883Y-43481109D01*
X111720846Y-43648846D01*
X111553109Y-43899883D01*
X111494208Y-44196000D01*
X110247792Y-44196000D01*
X110247792Y-42738516D01*
X113096515Y-39889792D01*
X130334287Y-39889792D01*
X130146127Y-39967538D01*
X129838618Y-40274511D01*
X129671990Y-40675795D01*
X129671611Y-41110299D01*
X129837538Y-41511873D01*
X130144511Y-41819382D01*
X130545795Y-41986010D01*
X130980299Y-41986389D01*
X131381873Y-41820462D01*
X131689382Y-41513489D01*
X131856010Y-41112205D01*
X131856389Y-40677701D01*
X131690462Y-40276127D01*
X131383489Y-39968618D01*
X131193655Y-39889792D01*
X131505484Y-39889792D01*
X133084208Y-41468516D01*
X133084208Y-67959485D01*
X131759808Y-69283884D01*
X131856010Y-69052205D01*
X131856389Y-68617701D01*
X131690462Y-68216127D01*
X131383489Y-67908618D01*
X130982205Y-67741990D01*
X130547701Y-67741611D01*
X130146127Y-67907538D01*
X129838618Y-68214511D01*
X129671990Y-68615795D01*
X129671611Y-69050299D01*
X129837538Y-69451873D01*
X130144511Y-69759382D01*
X130545795Y-69926010D01*
X130980299Y-69926389D01*
X131213773Y-69829920D01*
X130761894Y-70281798D01*
X130547701Y-70281611D01*
X130146127Y-70447538D01*
X129838618Y-70754511D01*
X129671990Y-71155795D01*
X129671611Y-71590299D01*
X129837538Y-71991873D01*
X130144511Y-72299382D01*
X130545795Y-72466010D01*
X130980299Y-72466389D01*
X131381873Y-72300462D01*
X131689382Y-71993489D01*
X131856010Y-71592205D01*
X131856011Y-71590299D01*
X145511611Y-71590299D01*
X145677538Y-71991873D01*
X145984511Y-72299382D01*
X146385795Y-72466010D01*
X146820299Y-72466389D01*
X147221873Y-72300462D01*
X147529382Y-71993489D01*
X147696010Y-71592205D01*
X147696389Y-71157701D01*
X147530462Y-70756127D01*
X147223489Y-70448618D01*
X146822205Y-70281990D01*
X146387701Y-70281611D01*
X145986127Y-70447538D01*
X145678618Y-70754511D01*
X145511990Y-71155795D01*
X145511611Y-71590299D01*
X131856011Y-71590299D01*
X131856198Y-71376109D01*
X134182008Y-69050299D01*
X145511611Y-69050299D01*
X145677538Y-69451873D01*
X145984511Y-69759382D01*
X146385795Y-69926010D01*
X146820299Y-69926389D01*
X147221873Y-69760462D01*
X147529382Y-69453489D01*
X147696010Y-69052205D01*
X147696389Y-68617701D01*
X147530462Y-68216127D01*
X147223489Y-67908618D01*
X146822205Y-67741990D01*
X146387701Y-67741611D01*
X145986127Y-67907538D01*
X145678618Y-68214511D01*
X145511990Y-68615795D01*
X145511611Y-69050299D01*
X134182008Y-69050299D01*
X134405151Y-68827156D01*
X134405154Y-68827154D01*
X134508963Y-68671792D01*
X134572891Y-68576118D01*
X134631793Y-68280000D01*
X134631792Y-68279995D01*
X134631792Y-66510299D01*
X145511611Y-66510299D01*
X145677538Y-66911873D01*
X145984511Y-67219382D01*
X146385795Y-67386010D01*
X146820299Y-67386389D01*
X147221873Y-67220462D01*
X147529382Y-66913489D01*
X147696010Y-66512205D01*
X147696389Y-66077701D01*
X147530462Y-65676127D01*
X147223489Y-65368618D01*
X146822205Y-65201990D01*
X146387701Y-65201611D01*
X145986127Y-65367538D01*
X145678618Y-65674511D01*
X145511990Y-66075795D01*
X145511611Y-66510299D01*
X134631792Y-66510299D01*
X134631792Y-63970299D01*
X145511611Y-63970299D01*
X145677538Y-64371873D01*
X145984511Y-64679382D01*
X146385795Y-64846010D01*
X146820299Y-64846389D01*
X147221873Y-64680462D01*
X147529382Y-64373489D01*
X147696010Y-63972205D01*
X147696389Y-63537701D01*
X147530462Y-63136127D01*
X147223489Y-62828618D01*
X146822205Y-62661990D01*
X146387701Y-62661611D01*
X145986127Y-62827538D01*
X145678618Y-63134511D01*
X145511990Y-63535795D01*
X145511611Y-63970299D01*
X134631792Y-63970299D01*
X134631792Y-61430299D01*
X145511611Y-61430299D01*
X145677538Y-61831873D01*
X145984511Y-62139382D01*
X146385795Y-62306010D01*
X146820299Y-62306389D01*
X147221873Y-62140462D01*
X147529382Y-61833489D01*
X147696010Y-61432205D01*
X147696389Y-60997701D01*
X147530462Y-60596127D01*
X147223489Y-60288618D01*
X146822205Y-60121990D01*
X146387701Y-60121611D01*
X145986127Y-60287538D01*
X145678618Y-60594511D01*
X145511990Y-60995795D01*
X145511611Y-61430299D01*
X134631792Y-61430299D01*
X134631792Y-58890299D01*
X145511611Y-58890299D01*
X145677538Y-59291873D01*
X145984511Y-59599382D01*
X146385795Y-59766010D01*
X146820299Y-59766389D01*
X147221873Y-59600462D01*
X147529382Y-59293489D01*
X147696010Y-58892205D01*
X147696389Y-58457701D01*
X147530462Y-58056127D01*
X147223489Y-57748618D01*
X146822205Y-57581990D01*
X146387701Y-57581611D01*
X145986127Y-57747538D01*
X145678618Y-58054511D01*
X145511990Y-58455795D01*
X145511611Y-58890299D01*
X134631792Y-58890299D01*
X134631792Y-56350299D01*
X145511611Y-56350299D01*
X145677538Y-56751873D01*
X145984511Y-57059382D01*
X146385795Y-57226010D01*
X146820299Y-57226389D01*
X147221873Y-57060462D01*
X147529382Y-56753489D01*
X147696010Y-56352205D01*
X147696389Y-55917701D01*
X147530462Y-55516127D01*
X147223489Y-55208618D01*
X146822205Y-55041990D01*
X146387701Y-55041611D01*
X145986127Y-55207538D01*
X145678618Y-55514511D01*
X145511990Y-55915795D01*
X145511611Y-56350299D01*
X134631792Y-56350299D01*
X134631792Y-53810299D01*
X142971611Y-53810299D01*
X143137538Y-54211873D01*
X143444511Y-54519382D01*
X143845795Y-54686010D01*
X144280299Y-54686389D01*
X144681873Y-54520462D01*
X144989382Y-54213489D01*
X145156010Y-53812205D01*
X145156011Y-53810299D01*
X145511611Y-53810299D01*
X145677538Y-54211873D01*
X145984511Y-54519382D01*
X146385795Y-54686010D01*
X146820299Y-54686389D01*
X147221873Y-54520462D01*
X147529382Y-54213489D01*
X147696010Y-53812205D01*
X147696389Y-53377701D01*
X147530462Y-52976127D01*
X147223489Y-52668618D01*
X146822205Y-52501990D01*
X146387701Y-52501611D01*
X145986127Y-52667538D01*
X145678618Y-52974511D01*
X145511990Y-53375795D01*
X145511611Y-53810299D01*
X145156011Y-53810299D01*
X145156389Y-53377701D01*
X144990462Y-52976127D01*
X144683489Y-52668618D01*
X144282205Y-52501990D01*
X143847701Y-52501611D01*
X143446127Y-52667538D01*
X143138618Y-52974511D01*
X142971990Y-53375795D01*
X142971611Y-53810299D01*
X134631792Y-53810299D01*
X134631792Y-51270299D01*
X142971611Y-51270299D01*
X143137538Y-51671873D01*
X143444511Y-51979382D01*
X143845795Y-52146010D01*
X144280299Y-52146389D01*
X144681873Y-51980462D01*
X144989382Y-51673489D01*
X145156010Y-51272205D01*
X145156011Y-51270299D01*
X145511611Y-51270299D01*
X145677538Y-51671873D01*
X145984511Y-51979382D01*
X146385795Y-52146010D01*
X146820299Y-52146389D01*
X147221873Y-51980462D01*
X147529382Y-51673489D01*
X147696010Y-51272205D01*
X147696389Y-50837701D01*
X147530462Y-50436127D01*
X147223489Y-50128618D01*
X146822205Y-49961990D01*
X146387701Y-49961611D01*
X145986127Y-50127538D01*
X145678618Y-50434511D01*
X145511990Y-50835795D01*
X145511611Y-51270299D01*
X145156011Y-51270299D01*
X145156389Y-50837701D01*
X144990462Y-50436127D01*
X144683489Y-50128618D01*
X144282205Y-49961990D01*
X143847701Y-49961611D01*
X143446127Y-50127538D01*
X143138618Y-50434511D01*
X142971990Y-50835795D01*
X142971611Y-51270299D01*
X134631792Y-51270299D01*
X134631792Y-48730299D01*
X142971611Y-48730299D01*
X143137538Y-49131873D01*
X143444511Y-49439382D01*
X143845795Y-49606010D01*
X144280299Y-49606389D01*
X144681873Y-49440462D01*
X144989382Y-49133489D01*
X145156010Y-48732205D01*
X145156011Y-48730299D01*
X145511611Y-48730299D01*
X145677538Y-49131873D01*
X145984511Y-49439382D01*
X146385795Y-49606010D01*
X146820299Y-49606389D01*
X147221873Y-49440462D01*
X147529382Y-49133489D01*
X147696010Y-48732205D01*
X147696389Y-48297701D01*
X147530462Y-47896127D01*
X147223489Y-47588618D01*
X146822205Y-47421990D01*
X146387701Y-47421611D01*
X145986127Y-47587538D01*
X145678618Y-47894511D01*
X145511990Y-48295795D01*
X145511611Y-48730299D01*
X145156011Y-48730299D01*
X145156389Y-48297701D01*
X144990462Y-47896127D01*
X144683489Y-47588618D01*
X144282205Y-47421990D01*
X143847701Y-47421611D01*
X143446127Y-47587538D01*
X143138618Y-47894511D01*
X142971990Y-48295795D01*
X142971611Y-48730299D01*
X134631792Y-48730299D01*
X134631792Y-46190299D01*
X145511611Y-46190299D01*
X145677538Y-46591873D01*
X145984511Y-46899382D01*
X146385795Y-47066010D01*
X146820299Y-47066389D01*
X147221873Y-46900462D01*
X147529382Y-46593489D01*
X147696010Y-46192205D01*
X147696389Y-45757701D01*
X147530462Y-45356127D01*
X147223489Y-45048618D01*
X146822205Y-44881990D01*
X146387701Y-44881611D01*
X145986127Y-45047538D01*
X145678618Y-45354511D01*
X145511990Y-45755795D01*
X145511611Y-46190299D01*
X134631792Y-46190299D01*
X134631792Y-43650299D01*
X142971611Y-43650299D01*
X143137538Y-44051873D01*
X143444511Y-44359382D01*
X143845795Y-44526010D01*
X144280299Y-44526389D01*
X144681873Y-44360462D01*
X144989382Y-44053489D01*
X145156010Y-43652205D01*
X145156011Y-43650299D01*
X145511611Y-43650299D01*
X145677538Y-44051873D01*
X145984511Y-44359382D01*
X146385795Y-44526010D01*
X146820299Y-44526389D01*
X147221873Y-44360462D01*
X147529382Y-44053489D01*
X147696010Y-43652205D01*
X147696389Y-43217701D01*
X147530462Y-42816127D01*
X147223489Y-42508618D01*
X146822205Y-42341990D01*
X146387701Y-42341611D01*
X145986127Y-42507538D01*
X145678618Y-42814511D01*
X145511990Y-43215795D01*
X145511611Y-43650299D01*
X145156011Y-43650299D01*
X145156389Y-43217701D01*
X144990462Y-42816127D01*
X144683489Y-42508618D01*
X144282205Y-42341990D01*
X143847701Y-42341611D01*
X143446127Y-42507538D01*
X143138618Y-42814511D01*
X142971990Y-43215795D01*
X142971611Y-43650299D01*
X134631792Y-43650299D01*
X134631792Y-41148005D01*
X134631793Y-41148000D01*
X134624294Y-41110299D01*
X145511611Y-41110299D01*
X145677538Y-41511873D01*
X145984511Y-41819382D01*
X146385795Y-41986010D01*
X146820299Y-41986389D01*
X147221873Y-41820462D01*
X147529382Y-41513489D01*
X147696010Y-41112205D01*
X147696389Y-40677701D01*
X147530462Y-40276127D01*
X147223489Y-39968618D01*
X146822205Y-39801990D01*
X146387701Y-39801611D01*
X145986127Y-39967538D01*
X145678618Y-40274511D01*
X145511990Y-40675795D01*
X145511611Y-41110299D01*
X134624294Y-41110299D01*
X134572891Y-40851882D01*
X134405154Y-40600846D01*
X132373154Y-38568846D01*
X132353330Y-38555600D01*
X148144400Y-38555600D01*
X148144400Y-88644400D01*
X121225331Y-88644400D01*
X121454118Y-88598891D01*
X121705154Y-88431154D01*
X122494516Y-87641792D01*
X125984000Y-87641792D01*
X126280117Y-87582891D01*
X126531154Y-87415154D01*
X126698891Y-87164117D01*
X126705392Y-87131432D01*
X136083570Y-87131432D01*
X136285654Y-87620513D01*
X136659519Y-87995031D01*
X137148246Y-88197968D01*
X137677432Y-88198430D01*
X138166513Y-87996346D01*
X138541031Y-87622481D01*
X138743968Y-87133754D01*
X138744430Y-86604568D01*
X138542346Y-86115487D01*
X138168481Y-85740969D01*
X137679754Y-85538032D01*
X137150568Y-85537570D01*
X136661487Y-85739654D01*
X136286969Y-86113519D01*
X136084032Y-86602246D01*
X136083570Y-87131432D01*
X126705392Y-87131432D01*
X126757792Y-86868000D01*
X126698891Y-86571883D01*
X126531154Y-86320846D01*
X126280117Y-86153109D01*
X125984000Y-86094208D01*
X122174005Y-86094208D01*
X122174000Y-86094207D01*
X121877882Y-86153109D01*
X121626846Y-86320846D01*
X120837484Y-87110208D01*
X120260569Y-87110208D01*
X120438118Y-87074891D01*
X120689154Y-86907154D01*
X122240515Y-85355792D01*
X131826000Y-85355792D01*
X132122117Y-85296891D01*
X132373154Y-85129154D01*
X132540891Y-84878117D01*
X132599792Y-84582000D01*
X132540891Y-84285883D01*
X132373154Y-84034846D01*
X132122117Y-83867109D01*
X131944565Y-83831792D01*
X133887331Y-83831792D01*
X133887331Y-83888000D01*
X133910356Y-84010365D01*
X133982673Y-84122749D01*
X134093017Y-84198144D01*
X134224000Y-84224669D01*
X135524000Y-84224669D01*
X135646365Y-84201644D01*
X135758749Y-84129327D01*
X135834144Y-84018983D01*
X135860669Y-83888000D01*
X135860669Y-82388000D01*
X135837644Y-82265635D01*
X135765327Y-82153251D01*
X135654983Y-82077856D01*
X135524000Y-82051331D01*
X134224000Y-82051331D01*
X134101635Y-82074356D01*
X133989251Y-82146673D01*
X133913856Y-82257017D01*
X133908350Y-82284208D01*
X126304515Y-82284208D01*
X124753154Y-80732846D01*
X124502118Y-80565109D01*
X124324569Y-80529792D01*
X128457484Y-80529792D01*
X128807331Y-80879639D01*
X128807331Y-81602000D01*
X128830356Y-81724365D01*
X128902673Y-81836749D01*
X129013017Y-81912144D01*
X129144000Y-81938669D01*
X130444000Y-81938669D01*
X130566365Y-81915644D01*
X130678749Y-81843327D01*
X130754144Y-81732983D01*
X130780669Y-81602000D01*
X130780669Y-81545792D01*
X134619995Y-81545792D01*
X134620000Y-81545793D01*
X134726197Y-81524669D01*
X135524000Y-81524669D01*
X135646365Y-81501644D01*
X135758749Y-81429327D01*
X135834144Y-81318983D01*
X135860669Y-81188000D01*
X135860669Y-79688000D01*
X135837644Y-79565635D01*
X135765327Y-79453251D01*
X135654983Y-79377856D01*
X135524000Y-79351331D01*
X134224000Y-79351331D01*
X134101635Y-79374356D01*
X133989251Y-79446673D01*
X133913856Y-79557017D01*
X133887331Y-79688000D01*
X133887331Y-79998208D01*
X131690565Y-79998208D01*
X131868117Y-79962891D01*
X132119154Y-79795154D01*
X132286891Y-79544117D01*
X132345792Y-79248000D01*
X132286891Y-78951883D01*
X132119154Y-78700846D01*
X131868117Y-78533109D01*
X131572000Y-78474208D01*
X131130516Y-78474208D01*
X130780669Y-78124361D01*
X130780669Y-77402000D01*
X130757644Y-77279635D01*
X130724284Y-77227792D01*
X130997484Y-77227792D01*
X131278846Y-77509153D01*
X131529882Y-77676890D01*
X131826000Y-77735792D01*
X132122118Y-77676890D01*
X132373153Y-77509153D01*
X132540890Y-77258118D01*
X132599792Y-76962000D01*
X132540890Y-76665882D01*
X132373153Y-76414846D01*
X131865154Y-75906846D01*
X131614118Y-75739109D01*
X131318000Y-75680207D01*
X131317995Y-75680208D01*
X130860669Y-75680208D01*
X130860669Y-75575000D01*
X130837644Y-75452635D01*
X130765327Y-75340251D01*
X130654983Y-75264856D01*
X130524000Y-75238331D01*
X129024000Y-75238331D01*
X128901635Y-75261356D01*
X128789251Y-75333673D01*
X128713856Y-75444017D01*
X128687331Y-75575000D01*
X128687331Y-76825000D01*
X128710356Y-76947365D01*
X128782673Y-77059749D01*
X128893017Y-77135144D01*
X128935542Y-77143756D01*
X128909251Y-77160673D01*
X128833856Y-77271017D01*
X128807331Y-77402000D01*
X128807331Y-78902000D01*
X128824151Y-78991387D01*
X128778000Y-78982207D01*
X128777995Y-78982208D01*
X125086569Y-78982208D01*
X125264118Y-78946891D01*
X125515154Y-78779154D01*
X125682891Y-78528118D01*
X125741793Y-78232000D01*
X125682891Y-77935882D01*
X125515154Y-77684847D01*
X124753154Y-76922846D01*
X124502118Y-76755109D01*
X124289031Y-76712723D01*
X124245154Y-76668846D01*
X123994118Y-76501109D01*
X123698000Y-76442207D01*
X123697995Y-76442208D01*
X123104610Y-76442208D01*
X123134144Y-76398983D01*
X123160669Y-76268000D01*
X123160669Y-76200000D01*
X124448208Y-76200000D01*
X124507109Y-76496117D01*
X124674846Y-76747154D01*
X124925883Y-76914891D01*
X125222000Y-76973792D01*
X126227361Y-76973792D01*
X126282673Y-77059749D01*
X126393017Y-77135144D01*
X126524000Y-77161669D01*
X126693074Y-77161669D01*
X126703882Y-77168891D01*
X127000000Y-77227793D01*
X127296118Y-77168891D01*
X127306926Y-77161669D01*
X128024000Y-77161669D01*
X128146365Y-77138644D01*
X128258749Y-77066327D01*
X128334144Y-76955983D01*
X128360669Y-76825000D01*
X128360669Y-75575000D01*
X128337644Y-75452635D01*
X128265327Y-75340251D01*
X128154983Y-75264856D01*
X128024000Y-75238331D01*
X126524000Y-75238331D01*
X126401635Y-75261356D01*
X126289251Y-75333673D01*
X126226024Y-75426208D01*
X125222000Y-75426208D01*
X124925883Y-75485109D01*
X124674846Y-75652846D01*
X124507109Y-75903883D01*
X124448208Y-76200000D01*
X123160669Y-76200000D01*
X123160669Y-75545638D01*
X123256515Y-75449792D01*
X123952000Y-75449792D01*
X124248117Y-75390891D01*
X124499154Y-75223154D01*
X124666891Y-74972117D01*
X124725792Y-74676000D01*
X124685095Y-74471402D01*
X124928844Y-74715151D01*
X124928846Y-74715154D01*
X125179883Y-74882891D01*
X125476000Y-74941792D01*
X126746000Y-74941792D01*
X126820355Y-74927002D01*
X126896166Y-74927081D01*
X126966976Y-74897837D01*
X127042117Y-74882891D01*
X127105152Y-74840772D01*
X127175223Y-74811834D01*
X128197525Y-74130299D01*
X129671611Y-74130299D01*
X129837538Y-74531873D01*
X130144511Y-74839382D01*
X130545795Y-75006010D01*
X130980299Y-75006389D01*
X131381873Y-74840462D01*
X131689382Y-74533489D01*
X131856010Y-74132205D01*
X131856011Y-74130299D01*
X132311611Y-74130299D01*
X132477538Y-74531873D01*
X132784511Y-74839382D01*
X133185795Y-75006010D01*
X133620299Y-75006389D01*
X134021873Y-74840462D01*
X134329382Y-74533489D01*
X134496010Y-74132205D01*
X134496011Y-74130299D01*
X134951611Y-74130299D01*
X135117538Y-74531873D01*
X135424511Y-74839382D01*
X135825795Y-75006010D01*
X136260299Y-75006389D01*
X136661873Y-74840462D01*
X136969382Y-74533489D01*
X137136010Y-74132205D01*
X137136011Y-74130299D01*
X140231611Y-74130299D01*
X140397538Y-74531873D01*
X140704511Y-74839382D01*
X141105795Y-75006010D01*
X141540299Y-75006389D01*
X141941873Y-74840462D01*
X142249382Y-74533489D01*
X142416010Y-74132205D01*
X142416011Y-74130299D01*
X142871611Y-74130299D01*
X143037538Y-74531873D01*
X143344511Y-74839382D01*
X143745795Y-75006010D01*
X144180299Y-75006389D01*
X144581873Y-74840462D01*
X144889382Y-74533489D01*
X145056010Y-74132205D01*
X145056011Y-74130299D01*
X145511611Y-74130299D01*
X145677538Y-74531873D01*
X145984511Y-74839382D01*
X146385795Y-75006010D01*
X146820299Y-75006389D01*
X147221873Y-74840462D01*
X147529382Y-74533489D01*
X147696010Y-74132205D01*
X147696389Y-73697701D01*
X147530462Y-73296127D01*
X147223489Y-72988618D01*
X146822205Y-72821990D01*
X146387701Y-72821611D01*
X145986127Y-72987538D01*
X145678618Y-73294511D01*
X145511990Y-73695795D01*
X145511611Y-74130299D01*
X145056011Y-74130299D01*
X145056389Y-73697701D01*
X144890462Y-73296127D01*
X144583489Y-72988618D01*
X144182205Y-72821990D01*
X143747701Y-72821611D01*
X143346127Y-72987538D01*
X143038618Y-73294511D01*
X142871990Y-73695795D01*
X142871611Y-74130299D01*
X142416011Y-74130299D01*
X142416389Y-73697701D01*
X142250462Y-73296127D01*
X141943489Y-72988618D01*
X141542205Y-72821990D01*
X141107701Y-72821611D01*
X140706127Y-72987538D01*
X140398618Y-73294511D01*
X140231990Y-73695795D01*
X140231611Y-74130299D01*
X137136011Y-74130299D01*
X137136389Y-73697701D01*
X136970462Y-73296127D01*
X136663489Y-72988618D01*
X136262205Y-72821990D01*
X135827701Y-72821611D01*
X135426127Y-72987538D01*
X135118618Y-73294511D01*
X134951990Y-73695795D01*
X134951611Y-74130299D01*
X134496011Y-74130299D01*
X134496389Y-73697701D01*
X134330462Y-73296127D01*
X134023489Y-72988618D01*
X133622205Y-72821990D01*
X133187701Y-72821611D01*
X132786127Y-72987538D01*
X132478618Y-73294511D01*
X132311990Y-73695795D01*
X132311611Y-74130299D01*
X131856011Y-74130299D01*
X131856389Y-73697701D01*
X131690462Y-73296127D01*
X131383489Y-72988618D01*
X130982205Y-72821990D01*
X130547701Y-72821611D01*
X130146127Y-72987538D01*
X129838618Y-73294511D01*
X129671990Y-73695795D01*
X129671611Y-74130299D01*
X128197525Y-74130299D01*
X128699223Y-73795834D01*
X128753451Y-73741719D01*
X128817154Y-73699154D01*
X129071151Y-73445156D01*
X129071154Y-73445154D01*
X129238891Y-73194117D01*
X129297792Y-72898000D01*
X129297792Y-68326000D01*
X129238891Y-68029883D01*
X129071154Y-67778846D01*
X129071151Y-67778844D01*
X127773792Y-66481484D01*
X127773792Y-65904565D01*
X127809109Y-66082117D01*
X127976846Y-66333154D01*
X128227883Y-66500891D01*
X128524000Y-66559792D01*
X128772819Y-66510299D01*
X129671611Y-66510299D01*
X129837538Y-66911873D01*
X130144511Y-67219382D01*
X130545795Y-67386010D01*
X130980299Y-67386389D01*
X131381873Y-67220462D01*
X131689382Y-66913489D01*
X131856010Y-66512205D01*
X131856389Y-66077701D01*
X131690462Y-65676127D01*
X131383489Y-65368618D01*
X130982205Y-65201990D01*
X130547701Y-65201611D01*
X130146127Y-65367538D01*
X129838618Y-65674511D01*
X129671990Y-66075795D01*
X129671611Y-66510299D01*
X128772819Y-66510299D01*
X128820117Y-66500891D01*
X129071154Y-66333154D01*
X129238891Y-66082117D01*
X129297792Y-65786000D01*
X129297792Y-63970299D01*
X129671611Y-63970299D01*
X129837538Y-64371873D01*
X130144511Y-64679382D01*
X130545795Y-64846010D01*
X130980299Y-64846389D01*
X131381873Y-64680462D01*
X131689382Y-64373489D01*
X131856010Y-63972205D01*
X131856389Y-63537701D01*
X131690462Y-63136127D01*
X131383489Y-62828618D01*
X130982205Y-62661990D01*
X130547701Y-62661611D01*
X130146127Y-62827538D01*
X129838618Y-63134511D01*
X129671990Y-63535795D01*
X129671611Y-63970299D01*
X129297792Y-63970299D01*
X129297792Y-61430299D01*
X129671611Y-61430299D01*
X129837538Y-61831873D01*
X130144511Y-62139382D01*
X130545795Y-62306010D01*
X130980299Y-62306389D01*
X131381873Y-62140462D01*
X131689382Y-61833489D01*
X131856010Y-61432205D01*
X131856389Y-60997701D01*
X131690462Y-60596127D01*
X131383489Y-60288618D01*
X130982205Y-60121990D01*
X130547701Y-60121611D01*
X130146127Y-60287538D01*
X129838618Y-60594511D01*
X129671990Y-60995795D01*
X129671611Y-61430299D01*
X129297792Y-61430299D01*
X129297792Y-60960005D01*
X129297793Y-60960000D01*
X129238891Y-60663882D01*
X129107083Y-60466618D01*
X129071154Y-60412846D01*
X129071151Y-60412844D01*
X127548607Y-58890299D01*
X129671611Y-58890299D01*
X129837538Y-59291873D01*
X130144511Y-59599382D01*
X130545795Y-59766010D01*
X130980299Y-59766389D01*
X131381873Y-59600462D01*
X131689382Y-59293489D01*
X131856010Y-58892205D01*
X131856389Y-58457701D01*
X131690462Y-58056127D01*
X131383489Y-57748618D01*
X130982205Y-57581990D01*
X130547701Y-57581611D01*
X130146127Y-57747538D01*
X129838618Y-58054511D01*
X129671990Y-58455795D01*
X129671611Y-58890299D01*
X127548607Y-58890299D01*
X125008607Y-56350299D01*
X129671611Y-56350299D01*
X129837538Y-56751873D01*
X130144511Y-57059382D01*
X130545795Y-57226010D01*
X130980299Y-57226389D01*
X131381873Y-57060462D01*
X131689382Y-56753489D01*
X131856010Y-56352205D01*
X131856389Y-55917701D01*
X131690462Y-55516127D01*
X131383489Y-55208618D01*
X130982205Y-55041990D01*
X130547701Y-55041611D01*
X130146127Y-55207538D01*
X129838618Y-55514511D01*
X129671990Y-55915795D01*
X129671611Y-56350299D01*
X125008607Y-56350299D01*
X123737154Y-55078846D01*
X123486118Y-54911109D01*
X123190000Y-54852207D01*
X122893882Y-54911109D01*
X122642846Y-55078846D01*
X122475109Y-55329882D01*
X122416207Y-55626000D01*
X122475109Y-55922118D01*
X122642846Y-56173154D01*
X127750208Y-61280515D01*
X127750208Y-61857431D01*
X127714891Y-61679882D01*
X127549398Y-61432205D01*
X127547154Y-61428846D01*
X127547151Y-61428844D01*
X120740100Y-54621792D01*
X123444000Y-54621792D01*
X123740117Y-54562891D01*
X123991154Y-54395154D01*
X124158891Y-54144117D01*
X124217792Y-53848000D01*
X124210293Y-53810299D01*
X129671611Y-53810299D01*
X129837538Y-54211873D01*
X130144511Y-54519382D01*
X130545795Y-54686010D01*
X130980299Y-54686389D01*
X131381873Y-54520462D01*
X131689382Y-54213489D01*
X131856010Y-53812205D01*
X131856389Y-53377701D01*
X131690462Y-52976127D01*
X131383489Y-52668618D01*
X130982205Y-52501990D01*
X130547701Y-52501611D01*
X130146127Y-52667538D01*
X129838618Y-52974511D01*
X129671990Y-53375795D01*
X129671611Y-53810299D01*
X124210293Y-53810299D01*
X124158891Y-53551883D01*
X123991154Y-53300846D01*
X123740117Y-53133109D01*
X123444000Y-53074208D01*
X120299000Y-53074208D01*
X120253489Y-53028618D01*
X119852205Y-52861990D01*
X119417701Y-52861611D01*
X119016127Y-53027538D01*
X118969376Y-53074208D01*
X109982005Y-53074208D01*
X109982000Y-53074207D01*
X109685882Y-53133109D01*
X109615394Y-53180208D01*
X109434846Y-53300846D01*
X109434844Y-53300849D01*
X107656846Y-55078846D01*
X107611086Y-55147331D01*
X107374000Y-55147331D01*
X107251635Y-55170356D01*
X107139251Y-55242673D01*
X107063856Y-55353017D01*
X107062400Y-55360208D01*
X105410000Y-55360208D01*
X105113883Y-55419109D01*
X104862846Y-55586846D01*
X104695109Y-55837883D01*
X104636208Y-56134000D01*
X104695109Y-56430117D01*
X104862846Y-56681154D01*
X105113883Y-56848891D01*
X105410000Y-56907792D01*
X107061274Y-56907792D01*
X107132673Y-57018749D01*
X107243017Y-57094144D01*
X107374000Y-57120669D01*
X107430208Y-57120669D01*
X107430208Y-57912000D01*
X107489109Y-58208117D01*
X107656846Y-58459154D01*
X107907883Y-58626891D01*
X108204000Y-58685792D01*
X108500117Y-58626891D01*
X108751154Y-58459154D01*
X108918891Y-58208117D01*
X108966000Y-57971285D01*
X109013109Y-58208118D01*
X109180846Y-58459154D01*
X109431882Y-58626891D01*
X109728000Y-58685793D01*
X110024118Y-58626891D01*
X110275154Y-58459154D01*
X111076308Y-57658000D01*
X112002208Y-57658000D01*
X112061109Y-57954117D01*
X112228846Y-58205154D01*
X112479883Y-58372891D01*
X112776000Y-58431792D01*
X119888000Y-58431792D01*
X120184117Y-58372891D01*
X120435154Y-58205154D01*
X120602891Y-57954117D01*
X120661792Y-57658000D01*
X120602891Y-57361883D01*
X120435154Y-57110846D01*
X120184117Y-56943109D01*
X119888000Y-56884208D01*
X112776000Y-56884208D01*
X112479883Y-56943109D01*
X112228846Y-57110846D01*
X112061109Y-57361883D01*
X112002208Y-57658000D01*
X111076308Y-57658000D01*
X111291154Y-57443154D01*
X111458891Y-57192118D01*
X111473103Y-57120669D01*
X111574000Y-57120669D01*
X111696365Y-57097644D01*
X111808749Y-57025327D01*
X111884144Y-56914983D01*
X111910669Y-56784000D01*
X111910669Y-56689782D01*
X113435753Y-56384765D01*
X113714568Y-56268935D01*
X113927834Y-56055223D01*
X114043082Y-55776165D01*
X114042766Y-55474247D01*
X113926935Y-55195432D01*
X113713223Y-54982166D01*
X113434165Y-54866918D01*
X113132247Y-54867235D01*
X111652392Y-55163206D01*
X111574000Y-55147331D01*
X110074000Y-55147331D01*
X109951635Y-55170356D01*
X109839251Y-55242673D01*
X109763856Y-55353017D01*
X109737331Y-55484000D01*
X109737331Y-56784000D01*
X109741189Y-56804503D01*
X109180846Y-57364846D01*
X109013109Y-57615882D01*
X108977792Y-57793431D01*
X108977792Y-57101139D01*
X108996365Y-57097644D01*
X109108749Y-57025327D01*
X109184144Y-56914983D01*
X109210669Y-56784000D01*
X109210669Y-55713639D01*
X110302515Y-54621792D01*
X118757370Y-54621792D01*
X118860208Y-54724810D01*
X118860208Y-54864000D01*
X118919109Y-55160117D01*
X119086846Y-55411154D01*
X119337883Y-55578891D01*
X119550968Y-55621276D01*
X126226208Y-62296515D01*
X126226208Y-66801995D01*
X126226207Y-66802000D01*
X126285109Y-67098118D01*
X126452846Y-67349154D01*
X127750208Y-68646515D01*
X127750208Y-68969435D01*
X127714891Y-68791883D01*
X127547154Y-68540846D01*
X127296117Y-68373109D01*
X127000000Y-68314208D01*
X126572000Y-68314208D01*
X126275883Y-68373109D01*
X126208669Y-68418020D01*
X126208669Y-66988000D01*
X126185644Y-66865635D01*
X126113327Y-66753251D01*
X126002983Y-66677856D01*
X125872000Y-66651331D01*
X124572000Y-66651331D01*
X124449635Y-66674356D01*
X124337251Y-66746673D01*
X124261856Y-66857017D01*
X124235331Y-66988000D01*
X124235331Y-67044208D01*
X120158264Y-67044208D01*
X120158411Y-66875352D01*
X119973038Y-66426715D01*
X119630090Y-66083168D01*
X119181778Y-65897012D01*
X118696352Y-65896589D01*
X118247715Y-66081962D01*
X117904168Y-66424910D01*
X117718012Y-66873222D01*
X117717599Y-67347292D01*
X115152100Y-64781792D01*
X115316000Y-64781792D01*
X115612117Y-64722891D01*
X115863154Y-64555154D01*
X116030891Y-64304117D01*
X116089792Y-64008000D01*
X116030891Y-63711883D01*
X115863154Y-63460846D01*
X115612117Y-63293109D01*
X115316000Y-63234208D01*
X106238515Y-63234208D01*
X105957154Y-62952846D01*
X105706118Y-62785109D01*
X105410000Y-62726207D01*
X105113882Y-62785109D01*
X104862846Y-62952846D01*
X104695109Y-63203882D01*
X104636207Y-63500000D01*
X104695109Y-63796118D01*
X104862846Y-64047154D01*
X105370844Y-64555151D01*
X105370846Y-64555154D01*
X105379341Y-64560830D01*
X105367883Y-64563109D01*
X105116846Y-64730846D01*
X105116844Y-64730849D01*
X102803484Y-67044208D01*
X102313139Y-67044208D01*
X102309644Y-67025635D01*
X102237327Y-66913251D01*
X102126983Y-66837856D01*
X101996000Y-66811331D01*
X100696000Y-66811331D01*
X100573635Y-66834356D01*
X100461251Y-66906673D01*
X100385856Y-67017017D01*
X100359331Y-67148000D01*
X100359331Y-68648000D01*
X100382356Y-68770365D01*
X100454673Y-68882749D01*
X100565017Y-68958144D01*
X100696000Y-68984669D01*
X101996000Y-68984669D01*
X102118365Y-68961644D01*
X102230749Y-68889327D01*
X102306144Y-68778983D01*
X102332669Y-68648000D01*
X102332669Y-68591792D01*
X103123995Y-68591792D01*
X103124000Y-68591793D01*
X103420118Y-68532891D01*
X103671154Y-68365154D01*
X105984515Y-66051792D01*
X106098805Y-66051792D01*
X105965109Y-66251882D01*
X105906207Y-66548000D01*
X105965109Y-66844118D01*
X106132846Y-67095154D01*
X108192208Y-69154515D01*
X108192208Y-73513731D01*
X107276593Y-72405221D01*
X107042603Y-72214426D01*
X106753408Y-72127697D01*
X106453038Y-72158242D01*
X106187221Y-72301407D01*
X105996426Y-72535397D01*
X105909697Y-72824592D01*
X105940242Y-73124962D01*
X106083407Y-73390779D01*
X109457626Y-77475851D01*
X109457589Y-77518648D01*
X109642962Y-77967285D01*
X109985910Y-78310832D01*
X110434222Y-78496988D01*
X110919648Y-78497411D01*
X111368285Y-78312038D01*
X111642682Y-78038119D01*
X114208106Y-77991586D01*
X111974846Y-80224846D01*
X111807109Y-80475882D01*
X111748207Y-80772000D01*
X111748208Y-80772005D01*
X111748208Y-81751833D01*
X111713038Y-81666715D01*
X111370090Y-81323168D01*
X110921778Y-81137012D01*
X110436352Y-81136589D01*
X109987715Y-81321962D01*
X109644168Y-81664910D01*
X109458012Y-82113222D01*
X109457589Y-82598648D01*
X109642962Y-83047285D01*
X109985910Y-83390832D01*
X110434222Y-83576988D01*
X110919648Y-83577411D01*
X111368285Y-83392038D01*
X111711832Y-83049090D01*
X111748208Y-82961487D01*
X111748208Y-83312000D01*
X111807109Y-83608117D01*
X111974846Y-83859154D01*
X112225883Y-84026891D01*
X112522000Y-84085792D01*
X112818117Y-84026891D01*
X113069154Y-83859154D01*
X113236891Y-83608117D01*
X113295792Y-83312000D01*
X113295792Y-81092516D01*
X113526208Y-80862100D01*
X113526208Y-85343995D01*
X113526207Y-85344000D01*
X113585109Y-85640118D01*
X113752846Y-85891154D01*
X113965975Y-86104283D01*
X113932110Y-86102635D01*
X113647887Y-86204479D01*
X112377887Y-86966479D01*
X112307670Y-87030179D01*
X112228846Y-87082847D01*
X112201485Y-87110208D01*
X107822726Y-87110208D01*
X107751327Y-86999251D01*
X107640983Y-86923856D01*
X107510000Y-86897331D01*
X106010000Y-86897331D01*
X105887635Y-86920356D01*
X105775251Y-86992673D01*
X105699856Y-87103017D01*
X105673331Y-87234000D01*
X105673331Y-88534000D01*
X105694105Y-88644400D01*
X105124312Y-88644400D01*
X105146669Y-88534000D01*
X105146669Y-87234000D01*
X105123644Y-87111635D01*
X105051327Y-86999251D01*
X104940983Y-86923856D01*
X104913792Y-86918350D01*
X104913792Y-85138648D01*
X109457589Y-85138648D01*
X109642962Y-85587285D01*
X109985910Y-85930832D01*
X110434222Y-86116988D01*
X110919648Y-86117411D01*
X111368285Y-85932038D01*
X111711832Y-85589090D01*
X111897988Y-85140778D01*
X111898411Y-84655352D01*
X111713038Y-84206715D01*
X111370090Y-83863168D01*
X110921778Y-83677012D01*
X110436352Y-83676589D01*
X109987715Y-83861962D01*
X109644168Y-84204910D01*
X109458012Y-84653222D01*
X109457589Y-85138648D01*
X104913792Y-85138648D01*
X104913792Y-85090000D01*
X104854891Y-84793883D01*
X104712608Y-84580941D01*
X104944118Y-84534891D01*
X105195154Y-84367154D01*
X106533638Y-83028669D01*
X107256000Y-83028669D01*
X107378365Y-83005644D01*
X107490749Y-82933327D01*
X107566144Y-82822983D01*
X107592669Y-82692000D01*
X107592669Y-81392000D01*
X107569644Y-81269635D01*
X107497327Y-81157251D01*
X107386983Y-81081856D01*
X107256000Y-81055331D01*
X105756000Y-81055331D01*
X105633635Y-81078356D01*
X105521251Y-81150673D01*
X105445856Y-81261017D01*
X105419331Y-81392000D01*
X105419331Y-81954362D01*
X104892669Y-82481023D01*
X104892669Y-81392000D01*
X104869644Y-81269635D01*
X104797327Y-81157251D01*
X104686983Y-81081856D01*
X104556000Y-81055331D01*
X103739639Y-81055331D01*
X103389792Y-80705484D01*
X103389792Y-76454000D01*
X103330891Y-76157883D01*
X103163154Y-75906846D01*
X102912117Y-75739109D01*
X102616000Y-75680208D01*
X102319883Y-75739109D01*
X102068846Y-75906846D01*
X101901109Y-76157883D01*
X101842208Y-76454000D01*
X101842208Y-81025995D01*
X101842207Y-81026000D01*
X101901109Y-81322118D01*
X102068846Y-81573154D01*
X102719331Y-82223639D01*
X102719331Y-82692000D01*
X102742356Y-82814365D01*
X102814673Y-82926749D01*
X102925017Y-83002144D01*
X103056000Y-83028669D01*
X104345023Y-83028669D01*
X104327484Y-83046208D01*
X101437104Y-83046208D01*
X101084481Y-82692969D01*
X100595754Y-82490032D01*
X100066568Y-82489570D01*
X99577487Y-82691654D01*
X99202969Y-83065519D01*
X99000032Y-83554246D01*
X98999570Y-84083432D01*
X99201654Y-84572513D01*
X99575519Y-84947031D01*
X100064246Y-85149968D01*
X100593432Y-85150430D01*
X101082513Y-84948346D01*
X101437686Y-84593792D01*
X103558805Y-84593792D01*
X103425109Y-84793883D01*
X103366208Y-85090000D01*
X103366208Y-86897331D01*
X103310000Y-86897331D01*
X103187635Y-86920356D01*
X103075251Y-86992673D01*
X102999856Y-87103017D01*
X102973331Y-87234000D01*
X102973331Y-88534000D01*
X102994105Y-88644400D01*
X98055600Y-88644400D01*
X98055600Y-63754000D01*
X98794207Y-63754000D01*
X98794208Y-63754005D01*
X98794208Y-70866000D01*
X98801341Y-70901858D01*
X98797586Y-70938226D01*
X98830584Y-71048874D01*
X98853109Y-71162117D01*
X98873421Y-71192516D01*
X98883870Y-71227554D01*
X98956700Y-71317152D01*
X99020846Y-71413154D01*
X99051246Y-71433467D01*
X99074307Y-71461837D01*
X107964307Y-78827836D01*
X108229903Y-78971409D01*
X108530226Y-79002414D01*
X108819553Y-78916130D01*
X109053836Y-78725693D01*
X109197409Y-78460097D01*
X109228414Y-78159773D01*
X109142129Y-77870446D01*
X108951693Y-77636163D01*
X100341792Y-70502245D01*
X100341792Y-64074516D01*
X101374905Y-63041403D01*
X101334208Y-63246000D01*
X101334208Y-64111331D01*
X100696000Y-64111331D01*
X100573635Y-64134356D01*
X100461251Y-64206673D01*
X100385856Y-64317017D01*
X100359331Y-64448000D01*
X100359331Y-65948000D01*
X100382356Y-66070365D01*
X100454673Y-66182749D01*
X100565017Y-66258144D01*
X100696000Y-66284669D01*
X101996000Y-66284669D01*
X102118365Y-66261644D01*
X102230749Y-66189327D01*
X102306144Y-66078983D01*
X102311650Y-66051792D01*
X102558563Y-66051792D01*
X102576846Y-66079154D01*
X102827882Y-66246891D01*
X103124000Y-66305793D01*
X103420118Y-66246891D01*
X103671154Y-66079154D01*
X103925151Y-65825156D01*
X103925154Y-65825154D01*
X104092891Y-65574117D01*
X104151792Y-65278000D01*
X104092891Y-64981883D01*
X103925154Y-64730846D01*
X103674117Y-64563109D01*
X103378000Y-64504208D01*
X102881792Y-64504208D01*
X102881792Y-63246000D01*
X102822891Y-62949883D01*
X102655154Y-62698846D01*
X102404117Y-62531109D01*
X102108000Y-62472208D01*
X101903403Y-62512905D01*
X102808008Y-61608299D01*
X117441611Y-61608299D01*
X117607538Y-62009873D01*
X117914511Y-62317382D01*
X118315795Y-62484010D01*
X118750299Y-62484389D01*
X119151873Y-62318462D01*
X119459382Y-62011489D01*
X119626010Y-61610205D01*
X119626011Y-61608299D01*
X119941611Y-61608299D01*
X120107538Y-62009873D01*
X120414511Y-62317382D01*
X120815795Y-62484010D01*
X121250299Y-62484389D01*
X121651873Y-62318462D01*
X121959382Y-62011489D01*
X122126010Y-61610205D01*
X122126011Y-61608299D01*
X122441611Y-61608299D01*
X122607538Y-62009873D01*
X122914511Y-62317382D01*
X123315795Y-62484010D01*
X123750299Y-62484389D01*
X124151873Y-62318462D01*
X124459382Y-62011489D01*
X124626010Y-61610205D01*
X124626389Y-61175701D01*
X124460462Y-60774127D01*
X124153489Y-60466618D01*
X123752205Y-60299990D01*
X123317701Y-60299611D01*
X122916127Y-60465538D01*
X122608618Y-60772511D01*
X122441990Y-61173795D01*
X122441611Y-61608299D01*
X122126011Y-61608299D01*
X122126389Y-61175701D01*
X121960462Y-60774127D01*
X121653489Y-60466618D01*
X121252205Y-60299990D01*
X120817701Y-60299611D01*
X120416127Y-60465538D01*
X120108618Y-60772511D01*
X119941990Y-61173795D01*
X119941611Y-61608299D01*
X119626011Y-61608299D01*
X119626389Y-61175701D01*
X119460462Y-60774127D01*
X119153489Y-60466618D01*
X118752205Y-60299990D01*
X118317701Y-60299611D01*
X117916127Y-60465538D01*
X117608618Y-60772511D01*
X117441990Y-61173795D01*
X117441611Y-61608299D01*
X102808008Y-61608299D01*
X104167357Y-60248950D01*
X106984588Y-60248950D01*
X107169809Y-60697219D01*
X107512477Y-61040485D01*
X107960422Y-61226488D01*
X108445450Y-61226912D01*
X108893719Y-61041691D01*
X109236985Y-60699023D01*
X109422988Y-60251078D01*
X109422989Y-60248950D01*
X112064588Y-60248950D01*
X112249809Y-60697219D01*
X112592477Y-61040485D01*
X113040422Y-61226488D01*
X113525450Y-61226912D01*
X113973719Y-61041691D01*
X114316985Y-60699023D01*
X114502988Y-60251078D01*
X114503412Y-59766050D01*
X114318191Y-59317781D01*
X113975523Y-58974515D01*
X113527578Y-58788512D01*
X113042550Y-58788088D01*
X112594281Y-58973309D01*
X112251015Y-59315977D01*
X112065012Y-59763922D01*
X112064588Y-60248950D01*
X109422989Y-60248950D01*
X109423412Y-59766050D01*
X109238191Y-59317781D01*
X108895523Y-58974515D01*
X108447578Y-58788512D01*
X107962550Y-58788088D01*
X107514281Y-58973309D01*
X107171015Y-59315977D01*
X106985012Y-59763922D01*
X106984588Y-60248950D01*
X104167357Y-60248950D01*
X105195151Y-59221156D01*
X105195154Y-59221154D01*
X105213437Y-59193792D01*
X105663995Y-59193792D01*
X105664000Y-59193793D01*
X105960118Y-59134891D01*
X106211154Y-58967154D01*
X106719153Y-58459154D01*
X106886890Y-58208118D01*
X106945792Y-57912000D01*
X106886890Y-57615882D01*
X106719153Y-57364847D01*
X106468118Y-57197110D01*
X106172000Y-57138208D01*
X105875882Y-57197110D01*
X105624846Y-57364847D01*
X105343484Y-57646208D01*
X104648000Y-57646208D01*
X104351883Y-57705109D01*
X104100846Y-57872846D01*
X103933109Y-58123883D01*
X103890724Y-58336969D01*
X99020846Y-63206846D01*
X98853109Y-63457882D01*
X98794207Y-63754000D01*
X98055600Y-63754000D01*
X98055600Y-44158299D01*
X103087611Y-44158299D01*
X103253538Y-44559873D01*
X103560511Y-44867382D01*
X103961795Y-45034010D01*
X104396299Y-45034389D01*
X104797873Y-44868462D01*
X105105382Y-44561489D01*
X105272010Y-44160205D01*
X105272389Y-43725701D01*
X105106462Y-43324127D01*
X104799489Y-43016618D01*
X104398205Y-42849990D01*
X103963701Y-42849611D01*
X103562127Y-43015538D01*
X103254618Y-43322511D01*
X103087990Y-43723795D01*
X103087611Y-44158299D01*
X98055600Y-44158299D01*
X98055600Y-41665432D01*
X99253570Y-41665432D01*
X99455654Y-42154513D01*
X99829519Y-42529031D01*
X100318246Y-42731968D01*
X100847432Y-42732430D01*
X101336513Y-42530346D01*
X101691686Y-42175792D01*
X103409185Y-42175792D01*
X103560511Y-42327382D01*
X103961795Y-42494010D01*
X104396299Y-42494389D01*
X104797873Y-42328462D01*
X104950810Y-42175792D01*
X105973045Y-42175792D01*
X105995356Y-42294365D01*
X106067673Y-42406749D01*
X106178017Y-42482144D01*
X106309000Y-42508669D01*
X107559000Y-42508669D01*
X107681365Y-42485644D01*
X107793749Y-42413327D01*
X107869144Y-42302983D01*
X107895669Y-42172000D01*
X107895669Y-40672000D01*
X107872644Y-40549635D01*
X107800327Y-40437251D01*
X107689983Y-40361856D01*
X107559000Y-40335331D01*
X106309000Y-40335331D01*
X106186635Y-40358356D01*
X106074251Y-40430673D01*
X105998856Y-40541017D01*
X105981199Y-40628208D01*
X104950815Y-40628208D01*
X104799489Y-40476618D01*
X104398205Y-40309990D01*
X103963701Y-40309611D01*
X103562127Y-40475538D01*
X103409190Y-40628208D01*
X101691104Y-40628208D01*
X101338481Y-40274969D01*
X100849754Y-40072032D01*
X100320568Y-40071570D01*
X99831487Y-40273654D01*
X99456969Y-40647519D01*
X99254032Y-41136246D01*
X99253570Y-41665432D01*
X98055600Y-41665432D01*
X98055600Y-38555600D01*
X112248670Y-38555600D01*
X112228846Y-38568846D01*
M02*
