G04 #@! TF.FileFunction,Copper,L1,Top,Signal*
%FSLAX46Y46*%
G04 Gerber Fmt 4.6, Leading zero omitted, Abs format (unit mm)*
G04 Created by KiCad (PCBNEW 4.0.7) date 10/29/17 06:02:24*
%MOMM*%
%LPD*%
G01*
G04 APERTURE LIST*
%ADD10C,0.100000*%
%ADD11C,1.780000*%
%ADD12C,1.524000*%
%ADD13R,1.500000X1.250000*%
%ADD14R,1.250000X1.500000*%
%ADD15R,1.300000X1.500000*%
%ADD16R,1.500000X1.300000*%
%ADD17C,1.778000*%
%ADD18C,2.000000*%
%ADD19C,0.600000*%
%ADD20C,0.887184*%
%ADD21C,0.152400*%
G04 APERTURE END LIST*
D10*
D11*
X110678000Y-67117000D03*
X110678000Y-69657000D03*
X110678000Y-72197000D03*
X110678000Y-74737000D03*
X110678000Y-77277000D03*
X110678000Y-79817000D03*
X110678000Y-82357000D03*
X110678000Y-84897000D03*
X118938000Y-67117000D03*
X118938000Y-69657000D03*
X118938000Y-72197000D03*
X118938000Y-74737000D03*
X118938000Y-77277000D03*
X118938000Y-79817000D03*
X118938000Y-82357000D03*
X118938000Y-84897000D03*
D12*
X119596000Y-51054000D03*
X119634000Y-48154000D03*
X119634000Y-53954000D03*
D13*
X102088000Y-56134000D03*
X99588000Y-56134000D03*
X102088000Y-60960000D03*
X99588000Y-60960000D03*
D14*
X113538000Y-62504000D03*
X113538000Y-65004000D03*
D13*
X124226000Y-83820000D03*
X126726000Y-83820000D03*
D14*
X104394000Y-73680000D03*
X104394000Y-76180000D03*
D13*
X130282000Y-86868000D03*
X127782000Y-86868000D03*
D15*
X110490000Y-46562000D03*
X110490000Y-43862000D03*
D16*
X108378000Y-64770000D03*
X111078000Y-64770000D03*
D15*
X125222000Y-54276000D03*
X125222000Y-56976000D03*
X126746000Y-78152000D03*
X126746000Y-80852000D03*
D16*
X101520000Y-78740000D03*
X104220000Y-78740000D03*
X106760000Y-71120000D03*
X104060000Y-71120000D03*
X107014000Y-68072000D03*
X104314000Y-68072000D03*
D12*
X146604000Y-40894000D03*
X146604000Y-43434000D03*
X146604000Y-45974000D03*
X146604000Y-48514000D03*
X146604000Y-51054000D03*
X146604000Y-53594000D03*
X146604000Y-56134000D03*
X146604000Y-58674000D03*
X146604000Y-61214000D03*
X146604000Y-63754000D03*
X146604000Y-66294000D03*
X146604000Y-68834000D03*
X146604000Y-71374000D03*
X146604000Y-73914000D03*
X130764000Y-40894000D03*
X130764000Y-43434000D03*
X130764000Y-45974000D03*
X130764000Y-48514000D03*
X130764000Y-51054000D03*
X130764000Y-53594000D03*
X130764000Y-56134000D03*
X130764000Y-58674000D03*
X130764000Y-61214000D03*
X130764000Y-63754000D03*
X130764000Y-66294000D03*
X130764000Y-68834000D03*
X130764000Y-71374000D03*
X130764000Y-73914000D03*
X133404000Y-73914000D03*
X136044000Y-73914000D03*
X138684000Y-73914000D03*
X141324000Y-73914000D03*
X143964000Y-73914000D03*
X144064000Y-43434000D03*
X144064000Y-48514000D03*
X144064000Y-51054000D03*
X144064000Y-53594000D03*
X104180000Y-46482000D03*
X104180000Y-43942000D03*
X104180000Y-41402000D03*
D17*
X113284000Y-60007500D03*
X113284000Y-51752500D03*
X110744000Y-60007500D03*
X108204000Y-60007500D03*
X105664000Y-60007500D03*
X110744000Y-51752500D03*
X108204000Y-51752500D03*
X105664000Y-51752500D03*
D18*
X100330000Y-83820000D03*
X100584000Y-41402000D03*
D12*
X122258000Y-44120000D03*
X119758000Y-44120000D03*
X117258000Y-44120000D03*
X118534000Y-61392000D03*
X121034000Y-61392000D03*
X123534000Y-61392000D03*
D18*
X100584000Y-46736000D03*
X113538000Y-74168000D03*
X137414000Y-86868000D03*
D19*
X115824000Y-74676000D03*
X112522000Y-83312000D03*
X108458000Y-78232000D03*
X106172000Y-57912000D03*
X109728000Y-57912000D03*
X115824000Y-48514000D03*
X113284000Y-55626000D03*
X107950000Y-46482000D03*
X110744000Y-48514000D03*
X123444000Y-53848000D03*
X122174000Y-69088000D03*
X131826000Y-76962000D03*
X131826000Y-84582000D03*
X117094000Y-84582000D03*
X103124000Y-65532000D03*
X131572000Y-79248000D03*
X102108000Y-63246000D03*
X105410000Y-56134000D03*
X108204000Y-57912000D03*
X114808000Y-70358000D03*
X125222000Y-76200000D03*
X124968000Y-78232000D03*
X114046000Y-86868000D03*
X124206000Y-81280000D03*
X127000000Y-69088000D03*
X126746000Y-71882000D03*
X115316000Y-68580000D03*
X115316000Y-64008000D03*
X105410000Y-63500000D03*
X102616000Y-76454000D03*
X104140000Y-85090000D03*
X106680000Y-72898000D03*
X125984000Y-86868000D03*
X114300000Y-80772000D03*
X114300000Y-77216000D03*
X112268000Y-44196000D03*
X123952000Y-74676000D03*
X106680000Y-66548000D03*
X115824000Y-45974000D03*
X125730000Y-43180000D03*
X119888000Y-57658000D03*
X112776000Y-57658000D03*
X128524000Y-65786000D03*
X123190000Y-55626000D03*
D20*
X115316000Y-74168000D02*
X113538000Y-74168000D01*
X115824000Y-74676000D02*
X115316000Y-74168000D01*
X112522000Y-85598000D02*
X112522000Y-83312000D01*
X111506000Y-86614000D02*
X112522000Y-85598000D01*
X109982000Y-86614000D02*
X111506000Y-86614000D01*
X109728000Y-86360000D02*
X109982000Y-86614000D01*
X109474000Y-86360000D02*
X109728000Y-86360000D01*
X109220000Y-86106000D02*
X109474000Y-86360000D01*
X109220000Y-85852000D02*
X109220000Y-86106000D01*
X108966000Y-85598000D02*
X109220000Y-85852000D01*
X108966000Y-78740000D02*
X108966000Y-85598000D01*
X108458000Y-78232000D02*
X108966000Y-78740000D01*
X106680000Y-57404000D02*
X106172000Y-57912000D01*
X106680000Y-56896000D02*
X106680000Y-57404000D01*
X106934000Y-56642000D02*
X106680000Y-56896000D01*
X109474000Y-56642000D02*
X106934000Y-56642000D01*
X109474000Y-57658000D02*
X109474000Y-56642000D01*
X109728000Y-57912000D02*
X109474000Y-57658000D01*
X113284000Y-51054000D02*
X115824000Y-48514000D01*
X113284000Y-51752500D02*
X113284000Y-55626000D01*
X107950000Y-46482000D02*
X110490000Y-46482000D01*
X110490000Y-46482000D02*
X110490000Y-46562000D01*
X110490000Y-46482000D02*
X110744000Y-46736000D01*
X110744000Y-46736000D02*
X110744000Y-48514000D01*
X125222000Y-54276000D02*
X123872000Y-54276000D01*
X123872000Y-54276000D02*
X123444000Y-53848000D01*
X122174000Y-65532000D02*
X125730000Y-61976000D01*
X125730000Y-61976000D02*
X125730000Y-60960000D01*
X125730000Y-60960000D02*
X123698000Y-58928000D01*
X122174000Y-69088000D02*
X122174000Y-65532000D01*
X137414000Y-86868000D02*
X130282000Y-86868000D01*
X131826000Y-77470000D02*
X131826000Y-76962000D01*
X132080000Y-77724000D02*
X131826000Y-77470000D01*
X132080000Y-77978000D02*
X132080000Y-77724000D01*
X132588000Y-78486000D02*
X132080000Y-77978000D01*
X132588000Y-83820000D02*
X132588000Y-78486000D01*
X131826000Y-84582000D02*
X132588000Y-83820000D01*
X117094000Y-64516000D02*
X117094000Y-84582000D01*
X116840000Y-64262000D02*
X117094000Y-64516000D01*
X116840000Y-60198000D02*
X116840000Y-64262000D01*
X123698000Y-58928000D02*
X118110000Y-58928000D01*
X118110000Y-58928000D02*
X116840000Y-60198000D01*
X101520000Y-78740000D02*
X101520000Y-78660000D01*
X101520000Y-78660000D02*
X101092000Y-78232000D01*
X101092000Y-78232000D02*
X101092000Y-68072000D01*
X103124000Y-65532000D02*
X101092000Y-68072000D01*
X101600000Y-78740000D02*
X101520000Y-78740000D01*
X131572000Y-79248000D02*
X130302000Y-80518000D01*
X130302000Y-80518000D02*
X130302000Y-86868000D01*
X130302000Y-86868000D02*
X130282000Y-86868000D01*
X125222000Y-54356000D02*
X125222000Y-54276000D01*
X102088000Y-60960000D02*
X102108000Y-60960000D01*
X102108000Y-60960000D02*
X102108000Y-63246000D01*
X105410000Y-56134000D02*
X102088000Y-56134000D01*
X108204000Y-60007500D02*
X108204000Y-59944000D01*
X108204000Y-59944000D02*
X108458000Y-60198000D01*
X108458000Y-60198000D02*
X108458000Y-64770000D01*
X108458000Y-64770000D02*
X108378000Y-64770000D01*
X102088000Y-56134000D02*
X102108000Y-56134000D01*
X102108000Y-56134000D02*
X102108000Y-60960000D01*
X108204000Y-57912000D02*
X108204000Y-60007500D01*
X113538000Y-62504000D02*
X113538000Y-62484000D01*
X113538000Y-62484000D02*
X113284000Y-62230000D01*
X113284000Y-62230000D02*
X113284000Y-60007500D01*
X113538000Y-65004000D02*
X113538000Y-69088000D01*
X113538000Y-69088000D02*
X114808000Y-70358000D01*
X113284000Y-65004000D02*
X113284000Y-65024000D01*
X113284000Y-65024000D02*
X111252000Y-65024000D01*
X111252000Y-65024000D02*
X110998000Y-64770000D01*
X110998000Y-64770000D02*
X111078000Y-64770000D01*
X125222000Y-76200000D02*
X126746000Y-77724000D01*
X126746000Y-78152000D02*
X126746000Y-78232000D01*
X126746000Y-78232000D02*
X124968000Y-78232000D01*
X126746000Y-77724000D02*
X126746000Y-78152000D01*
X124226000Y-87864000D02*
X124226000Y-83820000D01*
X124206000Y-87884000D02*
X124226000Y-87864000D01*
X115441186Y-87884000D02*
X124206000Y-87884000D01*
X114046000Y-86868000D02*
X115441186Y-87884000D01*
X124226000Y-83820000D02*
X124206000Y-83820000D01*
X124206000Y-83820000D02*
X124206000Y-81280000D01*
X124206000Y-83820000D02*
X124226000Y-83820000D01*
X127000000Y-58674000D02*
X127000000Y-69088000D01*
X125222000Y-56896000D02*
X127000000Y-58674000D01*
X126746000Y-71882000D02*
X128016000Y-73152000D01*
X128016000Y-73152000D02*
X128016000Y-74676000D01*
X128016000Y-74676000D02*
X128270000Y-74930000D01*
X128270000Y-74930000D02*
X128270000Y-79756000D01*
X128270000Y-79756000D02*
X127762000Y-79756000D01*
X127762000Y-79756000D02*
X126746000Y-80772000D01*
X126746000Y-80772000D02*
X126746000Y-80852000D01*
X125222000Y-56976000D02*
X125222000Y-56896000D01*
X126746000Y-80852000D02*
X126746000Y-83820000D01*
X126746000Y-83820000D02*
X126726000Y-83820000D01*
X104314000Y-68072000D02*
X104314000Y-64596000D01*
X115316000Y-64008000D02*
X115316000Y-68580000D01*
X104314000Y-64596000D02*
X105410000Y-63500000D01*
X102616000Y-72644000D02*
X102616000Y-76454000D01*
X104394000Y-73680000D02*
X104394000Y-73660000D01*
X104394000Y-73660000D02*
X103632000Y-73660000D01*
X103632000Y-73660000D02*
X102616000Y-72644000D01*
X102616000Y-72644000D02*
X102362000Y-72644000D01*
X102362000Y-72644000D02*
X102362000Y-69596000D01*
X102362000Y-69596000D02*
X102870000Y-69596000D01*
X102870000Y-69596000D02*
X104394000Y-68072000D01*
X104394000Y-68072000D02*
X104314000Y-68072000D01*
X108585000Y-76073000D02*
X105918000Y-78740000D01*
X108458000Y-72644000D02*
X108458000Y-69596000D01*
X108458000Y-69596000D02*
X105156000Y-69596000D01*
X104140000Y-70612000D02*
X105156000Y-69596000D01*
X108458000Y-72644000D02*
X108585000Y-76073000D01*
X105918000Y-78740000D02*
X104220000Y-78740000D01*
X104140000Y-85090000D02*
X104140000Y-78740000D01*
X104140000Y-78740000D02*
X104220000Y-78740000D01*
X104394000Y-76180000D02*
X104394000Y-76200000D01*
X104140000Y-70612000D02*
X104140000Y-71120000D01*
X104140000Y-71120000D02*
X104060000Y-71120000D01*
X104220000Y-78740000D02*
X104140000Y-78740000D01*
X104140000Y-78740000D02*
X104394000Y-78486000D01*
X104394000Y-78486000D02*
X104394000Y-76180000D01*
X106760000Y-72818000D02*
X106760000Y-71120000D01*
X106680000Y-72898000D02*
X106760000Y-72818000D01*
X125984000Y-86868000D02*
X127254000Y-86868000D01*
X114300000Y-77216000D02*
X114300000Y-80772000D01*
X127782000Y-86868000D02*
X127254000Y-86868000D01*
X110490000Y-43862000D02*
X110490000Y-43942000D01*
X110490000Y-43942000D02*
X112014000Y-43942000D01*
X112014000Y-43942000D02*
X112268000Y-44196000D01*
X110490000Y-43942000D02*
X104180000Y-43942000D01*
X123534000Y-61392000D02*
X123520000Y-61392000D01*
X123520000Y-61392000D02*
X120904000Y-64008000D01*
X120904000Y-64008000D02*
X120904000Y-67691000D01*
X120904000Y-67691000D02*
X118938000Y-69657000D01*
X118938000Y-69657000D02*
X118872000Y-69596000D01*
X118872000Y-69596000D02*
X119126000Y-69596000D01*
X115824000Y-82042000D02*
X112522000Y-82042000D01*
X112268000Y-81788000D02*
X112268000Y-76200000D01*
X120650000Y-86614000D02*
X116078000Y-86614000D01*
X116078000Y-86614000D02*
X115824000Y-86360000D01*
X115824000Y-86360000D02*
X115824000Y-82042000D01*
X120650000Y-77978000D02*
X120650000Y-86614000D01*
X112522000Y-82042000D02*
X112268000Y-81788000D01*
X110744000Y-74676000D02*
X112268000Y-76200000D01*
X123952000Y-74676000D02*
X120650000Y-77978000D01*
X106934000Y-68072000D02*
X106934000Y-66802000D01*
X106680000Y-66548000D02*
X106934000Y-66802000D01*
X106934000Y-68072000D02*
X107014000Y-68072000D01*
X110744000Y-74676000D02*
X110678000Y-74737000D01*
X128524000Y-39116000D02*
X138176000Y-39116000D01*
X109728000Y-50292000D02*
X109982000Y-50038000D01*
X109982000Y-50038000D02*
X111760000Y-50038000D01*
X111760000Y-50038000D02*
X115824000Y-45974000D01*
X108204000Y-51816000D02*
X109474000Y-50546000D01*
X125730000Y-43180000D02*
X128016000Y-40894000D01*
X128016000Y-40894000D02*
X128016000Y-39624000D01*
X128016000Y-39624000D02*
X128524000Y-39116000D01*
X141224000Y-54102000D02*
X143764000Y-56642000D01*
X143764000Y-56642000D02*
X143764000Y-71882000D01*
X143764000Y-71882000D02*
X146558000Y-73660000D01*
X141224000Y-42164000D02*
X141224000Y-54102000D01*
X138176000Y-39116000D02*
X141224000Y-42164000D01*
X108204000Y-51752500D02*
X108204000Y-51816000D01*
X146558000Y-73660000D02*
X146558000Y-73914000D01*
X146558000Y-73914000D02*
X146604000Y-73914000D01*
X111506000Y-52832000D02*
X111506000Y-56388000D01*
X111506000Y-56388000D02*
X112776000Y-57658000D01*
X110744000Y-52070000D02*
X111506000Y-52832000D01*
X129794000Y-68834000D02*
X130764000Y-68834000D01*
X128524000Y-67564000D02*
X129794000Y-68834000D01*
X128524000Y-65786000D02*
X128524000Y-67564000D01*
X121920000Y-55626000D02*
X123190000Y-55626000D01*
X119888000Y-57658000D02*
X121920000Y-55626000D01*
X110744000Y-51752500D02*
X110744000Y-52070000D01*
X110744000Y-51752500D02*
X110744000Y-51816000D01*
X110744000Y-51816000D02*
X111252000Y-52324000D01*
X130810000Y-68580000D02*
X130810000Y-68834000D01*
X130810000Y-68834000D02*
X130764000Y-68834000D01*
X121034000Y-61392000D02*
X120980000Y-61392000D01*
X120980000Y-61392000D02*
X118938000Y-63434000D01*
X118938000Y-63434000D02*
X118938000Y-67117000D01*
X121158000Y-61468000D02*
X121034000Y-61392000D01*
D21*
G36*
X127976846Y-38568846D02*
X127976844Y-38568849D01*
X127468846Y-39076846D01*
X127301109Y-39327882D01*
X127242207Y-39624000D01*
X127242208Y-39624005D01*
X127242208Y-40573485D01*
X125182846Y-42632846D01*
X125015109Y-42883882D01*
X124956207Y-43180000D01*
X125015109Y-43476118D01*
X125182846Y-43727154D01*
X125433882Y-43894891D01*
X125730000Y-43953793D01*
X126026118Y-43894891D01*
X126277154Y-43727154D01*
X126354008Y-43650299D01*
X129671611Y-43650299D01*
X129837538Y-44051873D01*
X130144511Y-44359382D01*
X130545795Y-44526010D01*
X130980299Y-44526389D01*
X131381873Y-44360462D01*
X131689382Y-44053489D01*
X131856010Y-43652205D01*
X131856389Y-43217701D01*
X131690462Y-42816127D01*
X131383489Y-42508618D01*
X130982205Y-42341990D01*
X130547701Y-42341611D01*
X130146127Y-42507538D01*
X129838618Y-42814511D01*
X129671990Y-43215795D01*
X129671611Y-43650299D01*
X126354008Y-43650299D01*
X128563151Y-41441156D01*
X128563154Y-41441154D01*
X128730891Y-41190117D01*
X128789792Y-40894000D01*
X128789792Y-39944516D01*
X128844515Y-39889792D01*
X130334287Y-39889792D01*
X130146127Y-39967538D01*
X129838618Y-40274511D01*
X129671990Y-40675795D01*
X129671611Y-41110299D01*
X129837538Y-41511873D01*
X130144511Y-41819382D01*
X130545795Y-41986010D01*
X130980299Y-41986389D01*
X131381873Y-41820462D01*
X131689382Y-41513489D01*
X131856010Y-41112205D01*
X131856389Y-40677701D01*
X131690462Y-40276127D01*
X131383489Y-39968618D01*
X131193655Y-39889792D01*
X137855484Y-39889792D01*
X140450208Y-42484516D01*
X140450208Y-54101995D01*
X140450207Y-54102000D01*
X140509109Y-54398118D01*
X140676846Y-54649154D01*
X142990208Y-56962515D01*
X142990208Y-71882000D01*
X143006743Y-71965125D01*
X143008634Y-72049859D01*
X143035911Y-72111767D01*
X143049109Y-72178117D01*
X143096196Y-72248589D01*
X143130370Y-72326148D01*
X143179261Y-72372904D01*
X143216846Y-72429154D01*
X143287317Y-72476241D01*
X143348570Y-72534819D01*
X143799314Y-72821656D01*
X143747701Y-72821611D01*
X143346127Y-72987538D01*
X143038618Y-73294511D01*
X142871990Y-73695795D01*
X142871611Y-74130299D01*
X143037538Y-74531873D01*
X143344511Y-74839382D01*
X143745795Y-75006010D01*
X144180299Y-75006389D01*
X144581873Y-74840462D01*
X144889382Y-74533489D01*
X145056010Y-74132205D01*
X145056389Y-73697701D01*
X145013734Y-73594469D01*
X145511802Y-73911421D01*
X145511611Y-74130299D01*
X145677538Y-74531873D01*
X145984511Y-74839382D01*
X146385795Y-75006010D01*
X146820299Y-75006389D01*
X147221873Y-74840462D01*
X147529382Y-74533489D01*
X147696010Y-74132205D01*
X147696389Y-73697701D01*
X147530462Y-73296127D01*
X147223489Y-72988618D01*
X146822205Y-72821990D01*
X146682222Y-72821868D01*
X144746901Y-71590299D01*
X145511611Y-71590299D01*
X145677538Y-71991873D01*
X145984511Y-72299382D01*
X146385795Y-72466010D01*
X146820299Y-72466389D01*
X147221873Y-72300462D01*
X147529382Y-71993489D01*
X147696010Y-71592205D01*
X147696389Y-71157701D01*
X147530462Y-70756127D01*
X147223489Y-70448618D01*
X146822205Y-70281990D01*
X146387701Y-70281611D01*
X145986127Y-70447538D01*
X145678618Y-70754511D01*
X145511990Y-71155795D01*
X145511611Y-71590299D01*
X144746901Y-71590299D01*
X144537792Y-71457230D01*
X144537792Y-69050299D01*
X145511611Y-69050299D01*
X145677538Y-69451873D01*
X145984511Y-69759382D01*
X146385795Y-69926010D01*
X146820299Y-69926389D01*
X147221873Y-69760462D01*
X147529382Y-69453489D01*
X147696010Y-69052205D01*
X147696389Y-68617701D01*
X147530462Y-68216127D01*
X147223489Y-67908618D01*
X146822205Y-67741990D01*
X146387701Y-67741611D01*
X145986127Y-67907538D01*
X145678618Y-68214511D01*
X145511990Y-68615795D01*
X145511611Y-69050299D01*
X144537792Y-69050299D01*
X144537792Y-66510299D01*
X145511611Y-66510299D01*
X145677538Y-66911873D01*
X145984511Y-67219382D01*
X146385795Y-67386010D01*
X146820299Y-67386389D01*
X147221873Y-67220462D01*
X147529382Y-66913489D01*
X147696010Y-66512205D01*
X147696389Y-66077701D01*
X147530462Y-65676127D01*
X147223489Y-65368618D01*
X146822205Y-65201990D01*
X146387701Y-65201611D01*
X145986127Y-65367538D01*
X145678618Y-65674511D01*
X145511990Y-66075795D01*
X145511611Y-66510299D01*
X144537792Y-66510299D01*
X144537792Y-63970299D01*
X145511611Y-63970299D01*
X145677538Y-64371873D01*
X145984511Y-64679382D01*
X146385795Y-64846010D01*
X146820299Y-64846389D01*
X147221873Y-64680462D01*
X147529382Y-64373489D01*
X147696010Y-63972205D01*
X147696389Y-63537701D01*
X147530462Y-63136127D01*
X147223489Y-62828618D01*
X146822205Y-62661990D01*
X146387701Y-62661611D01*
X145986127Y-62827538D01*
X145678618Y-63134511D01*
X145511990Y-63535795D01*
X145511611Y-63970299D01*
X144537792Y-63970299D01*
X144537792Y-61430299D01*
X145511611Y-61430299D01*
X145677538Y-61831873D01*
X145984511Y-62139382D01*
X146385795Y-62306010D01*
X146820299Y-62306389D01*
X147221873Y-62140462D01*
X147529382Y-61833489D01*
X147696010Y-61432205D01*
X147696389Y-60997701D01*
X147530462Y-60596127D01*
X147223489Y-60288618D01*
X146822205Y-60121990D01*
X146387701Y-60121611D01*
X145986127Y-60287538D01*
X145678618Y-60594511D01*
X145511990Y-60995795D01*
X145511611Y-61430299D01*
X144537792Y-61430299D01*
X144537792Y-58890299D01*
X145511611Y-58890299D01*
X145677538Y-59291873D01*
X145984511Y-59599382D01*
X146385795Y-59766010D01*
X146820299Y-59766389D01*
X147221873Y-59600462D01*
X147529382Y-59293489D01*
X147696010Y-58892205D01*
X147696389Y-58457701D01*
X147530462Y-58056127D01*
X147223489Y-57748618D01*
X146822205Y-57581990D01*
X146387701Y-57581611D01*
X145986127Y-57747538D01*
X145678618Y-58054511D01*
X145511990Y-58455795D01*
X145511611Y-58890299D01*
X144537792Y-58890299D01*
X144537792Y-56642000D01*
X144479770Y-56350299D01*
X145511611Y-56350299D01*
X145677538Y-56751873D01*
X145984511Y-57059382D01*
X146385795Y-57226010D01*
X146820299Y-57226389D01*
X147221873Y-57060462D01*
X147529382Y-56753489D01*
X147696010Y-56352205D01*
X147696389Y-55917701D01*
X147530462Y-55516127D01*
X147223489Y-55208618D01*
X146822205Y-55041990D01*
X146387701Y-55041611D01*
X145986127Y-55207538D01*
X145678618Y-55514511D01*
X145511990Y-55915795D01*
X145511611Y-56350299D01*
X144479770Y-56350299D01*
X144478891Y-56345883D01*
X144311154Y-56094846D01*
X144311151Y-56094844D01*
X142026607Y-53810299D01*
X142971611Y-53810299D01*
X143137538Y-54211873D01*
X143444511Y-54519382D01*
X143845795Y-54686010D01*
X144280299Y-54686389D01*
X144681873Y-54520462D01*
X144989382Y-54213489D01*
X145156010Y-53812205D01*
X145156011Y-53810299D01*
X145511611Y-53810299D01*
X145677538Y-54211873D01*
X145984511Y-54519382D01*
X146385795Y-54686010D01*
X146820299Y-54686389D01*
X147221873Y-54520462D01*
X147529382Y-54213489D01*
X147696010Y-53812205D01*
X147696389Y-53377701D01*
X147530462Y-52976127D01*
X147223489Y-52668618D01*
X146822205Y-52501990D01*
X146387701Y-52501611D01*
X145986127Y-52667538D01*
X145678618Y-52974511D01*
X145511990Y-53375795D01*
X145511611Y-53810299D01*
X145156011Y-53810299D01*
X145156389Y-53377701D01*
X144990462Y-52976127D01*
X144683489Y-52668618D01*
X144282205Y-52501990D01*
X143847701Y-52501611D01*
X143446127Y-52667538D01*
X143138618Y-52974511D01*
X142971990Y-53375795D01*
X142971611Y-53810299D01*
X142026607Y-53810299D01*
X141997792Y-53781484D01*
X141997792Y-51270299D01*
X142971611Y-51270299D01*
X143137538Y-51671873D01*
X143444511Y-51979382D01*
X143845795Y-52146010D01*
X144280299Y-52146389D01*
X144681873Y-51980462D01*
X144989382Y-51673489D01*
X145156010Y-51272205D01*
X145156011Y-51270299D01*
X145511611Y-51270299D01*
X145677538Y-51671873D01*
X145984511Y-51979382D01*
X146385795Y-52146010D01*
X146820299Y-52146389D01*
X147221873Y-51980462D01*
X147529382Y-51673489D01*
X147696010Y-51272205D01*
X147696389Y-50837701D01*
X147530462Y-50436127D01*
X147223489Y-50128618D01*
X146822205Y-49961990D01*
X146387701Y-49961611D01*
X145986127Y-50127538D01*
X145678618Y-50434511D01*
X145511990Y-50835795D01*
X145511611Y-51270299D01*
X145156011Y-51270299D01*
X145156389Y-50837701D01*
X144990462Y-50436127D01*
X144683489Y-50128618D01*
X144282205Y-49961990D01*
X143847701Y-49961611D01*
X143446127Y-50127538D01*
X143138618Y-50434511D01*
X142971990Y-50835795D01*
X142971611Y-51270299D01*
X141997792Y-51270299D01*
X141997792Y-48730299D01*
X142971611Y-48730299D01*
X143137538Y-49131873D01*
X143444511Y-49439382D01*
X143845795Y-49606010D01*
X144280299Y-49606389D01*
X144681873Y-49440462D01*
X144989382Y-49133489D01*
X145156010Y-48732205D01*
X145156011Y-48730299D01*
X145511611Y-48730299D01*
X145677538Y-49131873D01*
X145984511Y-49439382D01*
X146385795Y-49606010D01*
X146820299Y-49606389D01*
X147221873Y-49440462D01*
X147529382Y-49133489D01*
X147696010Y-48732205D01*
X147696389Y-48297701D01*
X147530462Y-47896127D01*
X147223489Y-47588618D01*
X146822205Y-47421990D01*
X146387701Y-47421611D01*
X145986127Y-47587538D01*
X145678618Y-47894511D01*
X145511990Y-48295795D01*
X145511611Y-48730299D01*
X145156011Y-48730299D01*
X145156389Y-48297701D01*
X144990462Y-47896127D01*
X144683489Y-47588618D01*
X144282205Y-47421990D01*
X143847701Y-47421611D01*
X143446127Y-47587538D01*
X143138618Y-47894511D01*
X142971990Y-48295795D01*
X142971611Y-48730299D01*
X141997792Y-48730299D01*
X141997792Y-46190299D01*
X145511611Y-46190299D01*
X145677538Y-46591873D01*
X145984511Y-46899382D01*
X146385795Y-47066010D01*
X146820299Y-47066389D01*
X147221873Y-46900462D01*
X147529382Y-46593489D01*
X147696010Y-46192205D01*
X147696389Y-45757701D01*
X147530462Y-45356127D01*
X147223489Y-45048618D01*
X146822205Y-44881990D01*
X146387701Y-44881611D01*
X145986127Y-45047538D01*
X145678618Y-45354511D01*
X145511990Y-45755795D01*
X145511611Y-46190299D01*
X141997792Y-46190299D01*
X141997792Y-43650299D01*
X142971611Y-43650299D01*
X143137538Y-44051873D01*
X143444511Y-44359382D01*
X143845795Y-44526010D01*
X144280299Y-44526389D01*
X144681873Y-44360462D01*
X144989382Y-44053489D01*
X145156010Y-43652205D01*
X145156011Y-43650299D01*
X145511611Y-43650299D01*
X145677538Y-44051873D01*
X145984511Y-44359382D01*
X146385795Y-44526010D01*
X146820299Y-44526389D01*
X147221873Y-44360462D01*
X147529382Y-44053489D01*
X147696010Y-43652205D01*
X147696389Y-43217701D01*
X147530462Y-42816127D01*
X147223489Y-42508618D01*
X146822205Y-42341990D01*
X146387701Y-42341611D01*
X145986127Y-42507538D01*
X145678618Y-42814511D01*
X145511990Y-43215795D01*
X145511611Y-43650299D01*
X145156011Y-43650299D01*
X145156389Y-43217701D01*
X144990462Y-42816127D01*
X144683489Y-42508618D01*
X144282205Y-42341990D01*
X143847701Y-42341611D01*
X143446127Y-42507538D01*
X143138618Y-42814511D01*
X142971990Y-43215795D01*
X142971611Y-43650299D01*
X141997792Y-43650299D01*
X141997792Y-42164005D01*
X141997793Y-42164000D01*
X141938891Y-41867882D01*
X141771154Y-41616846D01*
X141264607Y-41110299D01*
X145511611Y-41110299D01*
X145677538Y-41511873D01*
X145984511Y-41819382D01*
X146385795Y-41986010D01*
X146820299Y-41986389D01*
X147221873Y-41820462D01*
X147529382Y-41513489D01*
X147696010Y-41112205D01*
X147696389Y-40677701D01*
X147530462Y-40276127D01*
X147223489Y-39968618D01*
X146822205Y-39801990D01*
X146387701Y-39801611D01*
X145986127Y-39967538D01*
X145678618Y-40274511D01*
X145511990Y-40675795D01*
X145511611Y-41110299D01*
X141264607Y-41110299D01*
X138723154Y-38568846D01*
X138703330Y-38555600D01*
X148144400Y-38555600D01*
X148144400Y-88644400D01*
X124273331Y-88644400D01*
X124502118Y-88598891D01*
X124753154Y-88431154D01*
X124773151Y-88411156D01*
X124773154Y-88411154D01*
X124940891Y-88160117D01*
X124999792Y-87864000D01*
X124999792Y-86868000D01*
X125210208Y-86868000D01*
X125269109Y-87164117D01*
X125436846Y-87415154D01*
X125687883Y-87582891D01*
X125984000Y-87641792D01*
X126735361Y-87641792D01*
X126790673Y-87727749D01*
X126901017Y-87803144D01*
X127032000Y-87829669D01*
X128532000Y-87829669D01*
X128654365Y-87806644D01*
X128766749Y-87734327D01*
X128842144Y-87623983D01*
X128868669Y-87493000D01*
X128868669Y-86243000D01*
X129195331Y-86243000D01*
X129195331Y-87493000D01*
X129218356Y-87615365D01*
X129290673Y-87727749D01*
X129401017Y-87803144D01*
X129532000Y-87829669D01*
X131032000Y-87829669D01*
X131154365Y-87806644D01*
X131266749Y-87734327D01*
X131329976Y-87641792D01*
X136306896Y-87641792D01*
X136659519Y-87995031D01*
X137148246Y-88197968D01*
X137677432Y-88198430D01*
X138166513Y-87996346D01*
X138541031Y-87622481D01*
X138743968Y-87133754D01*
X138744430Y-86604568D01*
X138542346Y-86115487D01*
X138168481Y-85740969D01*
X137679754Y-85538032D01*
X137150568Y-85537570D01*
X136661487Y-85739654D01*
X136306314Y-86094208D01*
X131328639Y-86094208D01*
X131273327Y-86008251D01*
X131162983Y-85932856D01*
X131075792Y-85915199D01*
X131075792Y-84700569D01*
X131111109Y-84878118D01*
X131278846Y-85129154D01*
X131529882Y-85296891D01*
X131826000Y-85355793D01*
X132122118Y-85296891D01*
X132373154Y-85129154D01*
X133135151Y-84367156D01*
X133135154Y-84367154D01*
X133243562Y-84204910D01*
X133302891Y-84116118D01*
X133361793Y-83820000D01*
X133361792Y-83819995D01*
X133361792Y-78486000D01*
X133302891Y-78189883D01*
X133135154Y-77938846D01*
X133135151Y-77938844D01*
X132837276Y-77640969D01*
X132794891Y-77427883D01*
X132627154Y-77176846D01*
X132627151Y-77176844D01*
X132599792Y-77149485D01*
X132599792Y-76962000D01*
X132540891Y-76665883D01*
X132373154Y-76414846D01*
X132122117Y-76247109D01*
X131826000Y-76188208D01*
X131529883Y-76247109D01*
X131278846Y-76414846D01*
X131111109Y-76665883D01*
X131052208Y-76962000D01*
X131052208Y-77469995D01*
X131052207Y-77470000D01*
X131111109Y-77766118D01*
X131278846Y-78017154D01*
X131322723Y-78061031D01*
X131365109Y-78274118D01*
X131507392Y-78487059D01*
X131275882Y-78533110D01*
X131024846Y-78700847D01*
X129754846Y-79970846D01*
X129587109Y-80221882D01*
X129528207Y-80518000D01*
X129528208Y-80518005D01*
X129528208Y-85907045D01*
X129409635Y-85929356D01*
X129297251Y-86001673D01*
X129221856Y-86112017D01*
X129195331Y-86243000D01*
X128868669Y-86243000D01*
X128845644Y-86120635D01*
X128773327Y-86008251D01*
X128662983Y-85932856D01*
X128532000Y-85906331D01*
X127032000Y-85906331D01*
X126909635Y-85929356D01*
X126797251Y-86001673D01*
X126734024Y-86094208D01*
X125984000Y-86094208D01*
X125687883Y-86153109D01*
X125436846Y-86320846D01*
X125269109Y-86571883D01*
X125210208Y-86868000D01*
X124999792Y-86868000D01*
X124999792Y-84777192D01*
X125098365Y-84758644D01*
X125210749Y-84686327D01*
X125286144Y-84575983D01*
X125312669Y-84445000D01*
X125312669Y-83195000D01*
X125289644Y-83072635D01*
X125217327Y-82960251D01*
X125106983Y-82884856D01*
X124979792Y-82859099D01*
X124979792Y-81280000D01*
X124920891Y-80983883D01*
X124753154Y-80732846D01*
X124502117Y-80565109D01*
X124206000Y-80506208D01*
X123909883Y-80565109D01*
X123658846Y-80732846D01*
X123491109Y-80983883D01*
X123432208Y-81280000D01*
X123432208Y-82866571D01*
X123353635Y-82881356D01*
X123241251Y-82953673D01*
X123165856Y-83064017D01*
X123139331Y-83195000D01*
X123139331Y-84445000D01*
X123162356Y-84567365D01*
X123234673Y-84679749D01*
X123345017Y-84755144D01*
X123452208Y-84776851D01*
X123452208Y-87110208D01*
X121231195Y-87110208D01*
X121364891Y-86910117D01*
X121423792Y-86614000D01*
X121423792Y-78298516D01*
X121490307Y-78232000D01*
X124194208Y-78232000D01*
X124253109Y-78528117D01*
X124420846Y-78779154D01*
X124671883Y-78946891D01*
X124968000Y-79005792D01*
X125778861Y-79005792D01*
X125782356Y-79024365D01*
X125854673Y-79136749D01*
X125965017Y-79212144D01*
X126096000Y-79238669D01*
X127185023Y-79238669D01*
X126658361Y-79765331D01*
X126096000Y-79765331D01*
X125973635Y-79788356D01*
X125861251Y-79860673D01*
X125785856Y-79971017D01*
X125759331Y-80102000D01*
X125759331Y-81602000D01*
X125782356Y-81724365D01*
X125854673Y-81836749D01*
X125965017Y-81912144D01*
X125972208Y-81913600D01*
X125972208Y-82859045D01*
X125853635Y-82881356D01*
X125741251Y-82953673D01*
X125665856Y-83064017D01*
X125639331Y-83195000D01*
X125639331Y-84445000D01*
X125662356Y-84567365D01*
X125734673Y-84679749D01*
X125845017Y-84755144D01*
X125976000Y-84781669D01*
X127476000Y-84781669D01*
X127598365Y-84758644D01*
X127710749Y-84686327D01*
X127786144Y-84575983D01*
X127812669Y-84445000D01*
X127812669Y-83195000D01*
X127789644Y-83072635D01*
X127717327Y-82960251D01*
X127606983Y-82884856D01*
X127519792Y-82867199D01*
X127519792Y-81914726D01*
X127630749Y-81843327D01*
X127706144Y-81732983D01*
X127732669Y-81602000D01*
X127732669Y-80879639D01*
X128082516Y-80529792D01*
X128270000Y-80529792D01*
X128566117Y-80470891D01*
X128817154Y-80303154D01*
X128984891Y-80052117D01*
X129043792Y-79756000D01*
X129043792Y-74930000D01*
X128984891Y-74633883D01*
X128817154Y-74382846D01*
X128817151Y-74382844D01*
X128789792Y-74355485D01*
X128789792Y-74130299D01*
X129671611Y-74130299D01*
X129837538Y-74531873D01*
X130144511Y-74839382D01*
X130545795Y-75006010D01*
X130980299Y-75006389D01*
X131381873Y-74840462D01*
X131689382Y-74533489D01*
X131856010Y-74132205D01*
X131856011Y-74130299D01*
X132311611Y-74130299D01*
X132477538Y-74531873D01*
X132784511Y-74839382D01*
X133185795Y-75006010D01*
X133620299Y-75006389D01*
X134021873Y-74840462D01*
X134329382Y-74533489D01*
X134496010Y-74132205D01*
X134496011Y-74130299D01*
X134951611Y-74130299D01*
X135117538Y-74531873D01*
X135424511Y-74839382D01*
X135825795Y-75006010D01*
X136260299Y-75006389D01*
X136661873Y-74840462D01*
X136969382Y-74533489D01*
X137136010Y-74132205D01*
X137136011Y-74130299D01*
X140231611Y-74130299D01*
X140397538Y-74531873D01*
X140704511Y-74839382D01*
X141105795Y-75006010D01*
X141540299Y-75006389D01*
X141941873Y-74840462D01*
X142249382Y-74533489D01*
X142416010Y-74132205D01*
X142416389Y-73697701D01*
X142250462Y-73296127D01*
X141943489Y-72988618D01*
X141542205Y-72821990D01*
X141107701Y-72821611D01*
X140706127Y-72987538D01*
X140398618Y-73294511D01*
X140231990Y-73695795D01*
X140231611Y-74130299D01*
X137136011Y-74130299D01*
X137136389Y-73697701D01*
X136970462Y-73296127D01*
X136663489Y-72988618D01*
X136262205Y-72821990D01*
X135827701Y-72821611D01*
X135426127Y-72987538D01*
X135118618Y-73294511D01*
X134951990Y-73695795D01*
X134951611Y-74130299D01*
X134496011Y-74130299D01*
X134496389Y-73697701D01*
X134330462Y-73296127D01*
X134023489Y-72988618D01*
X133622205Y-72821990D01*
X133187701Y-72821611D01*
X132786127Y-72987538D01*
X132478618Y-73294511D01*
X132311990Y-73695795D01*
X132311611Y-74130299D01*
X131856011Y-74130299D01*
X131856389Y-73697701D01*
X131690462Y-73296127D01*
X131383489Y-72988618D01*
X130982205Y-72821990D01*
X130547701Y-72821611D01*
X130146127Y-72987538D01*
X129838618Y-73294511D01*
X129671990Y-73695795D01*
X129671611Y-74130299D01*
X128789792Y-74130299D01*
X128789792Y-73152000D01*
X128730891Y-72855883D01*
X128563154Y-72604846D01*
X128563151Y-72604844D01*
X127548607Y-71590299D01*
X129671611Y-71590299D01*
X129837538Y-71991873D01*
X130144511Y-72299382D01*
X130545795Y-72466010D01*
X130980299Y-72466389D01*
X131381873Y-72300462D01*
X131689382Y-71993489D01*
X131856010Y-71592205D01*
X131856389Y-71157701D01*
X131690462Y-70756127D01*
X131383489Y-70448618D01*
X130982205Y-70281990D01*
X130547701Y-70281611D01*
X130146127Y-70447538D01*
X129838618Y-70754511D01*
X129671990Y-71155795D01*
X129671611Y-71590299D01*
X127548607Y-71590299D01*
X127293154Y-71334846D01*
X127042118Y-71167109D01*
X126746000Y-71108207D01*
X126449882Y-71167109D01*
X126198846Y-71334846D01*
X126031109Y-71585882D01*
X125972207Y-71882000D01*
X126031109Y-72178118D01*
X126198846Y-72429154D01*
X127242208Y-73472515D01*
X127242208Y-74675995D01*
X127242207Y-74676000D01*
X127301109Y-74972118D01*
X127468846Y-75223154D01*
X127496208Y-75250516D01*
X127496208Y-77085624D01*
X127396000Y-77065331D01*
X127181638Y-77065331D01*
X125769154Y-75652846D01*
X125518118Y-75485109D01*
X125222000Y-75426207D01*
X124925882Y-75485109D01*
X124674846Y-75652846D01*
X124507109Y-75903882D01*
X124448207Y-76200000D01*
X124507109Y-76496118D01*
X124674846Y-76747154D01*
X125385900Y-77458208D01*
X124968000Y-77458208D01*
X124671883Y-77517109D01*
X124420846Y-77684846D01*
X124253109Y-77935883D01*
X124194208Y-78232000D01*
X121490307Y-78232000D01*
X124499153Y-75223154D01*
X124666890Y-74972118D01*
X124725792Y-74676000D01*
X124666890Y-74379882D01*
X124499153Y-74128847D01*
X124248118Y-73961110D01*
X123952000Y-73902208D01*
X123655882Y-73961110D01*
X123404846Y-74128847D01*
X120158115Y-77375577D01*
X120158411Y-77035352D01*
X119973038Y-76586715D01*
X119630090Y-76243168D01*
X119181778Y-76057012D01*
X118696352Y-76056589D01*
X118247715Y-76241962D01*
X117904168Y-76584910D01*
X117867792Y-76672513D01*
X117867792Y-75342167D01*
X117902962Y-75427285D01*
X118245910Y-75770832D01*
X118694222Y-75956988D01*
X119179648Y-75957411D01*
X119628285Y-75772038D01*
X119971832Y-75429090D01*
X120157988Y-74980778D01*
X120158411Y-74495352D01*
X119973038Y-74046715D01*
X119630090Y-73703168D01*
X119181778Y-73517012D01*
X118696352Y-73516589D01*
X118247715Y-73701962D01*
X117904168Y-74044910D01*
X117867792Y-74132513D01*
X117867792Y-72802167D01*
X117902962Y-72887285D01*
X118245910Y-73230832D01*
X118694222Y-73416988D01*
X119179648Y-73417411D01*
X119628285Y-73232038D01*
X119971832Y-72889090D01*
X120157988Y-72440778D01*
X120158411Y-71955352D01*
X119973038Y-71506715D01*
X119630090Y-71163168D01*
X119181778Y-70977012D01*
X118696352Y-70976589D01*
X118247715Y-71161962D01*
X117904168Y-71504910D01*
X117867792Y-71592513D01*
X117867792Y-70262167D01*
X117902962Y-70347285D01*
X118245910Y-70690832D01*
X118694222Y-70876988D01*
X119179648Y-70877411D01*
X119628285Y-70692038D01*
X119971832Y-70349090D01*
X120157988Y-69900778D01*
X120158310Y-69530997D01*
X121400208Y-68289099D01*
X121400208Y-69088000D01*
X121459109Y-69384117D01*
X121626846Y-69635154D01*
X121877883Y-69802891D01*
X122174000Y-69861792D01*
X122470117Y-69802891D01*
X122721154Y-69635154D01*
X122888891Y-69384117D01*
X122947792Y-69088000D01*
X122947792Y-65852516D01*
X126226208Y-62574099D01*
X126226208Y-69088000D01*
X126285109Y-69384117D01*
X126452846Y-69635154D01*
X126703883Y-69802891D01*
X127000000Y-69861792D01*
X127296117Y-69802891D01*
X127547154Y-69635154D01*
X127714891Y-69384117D01*
X127773792Y-69088000D01*
X127773792Y-67682569D01*
X127809109Y-67860118D01*
X127976846Y-68111154D01*
X129246844Y-69381151D01*
X129246846Y-69381154D01*
X129497883Y-69548891D01*
X129794000Y-69607792D01*
X129993185Y-69607792D01*
X130144511Y-69759382D01*
X130545795Y-69926010D01*
X130980299Y-69926389D01*
X131381873Y-69760462D01*
X131689382Y-69453489D01*
X131856010Y-69052205D01*
X131856389Y-68617701D01*
X131690462Y-68216127D01*
X131383489Y-67908618D01*
X130982205Y-67741990D01*
X130547701Y-67741611D01*
X130146127Y-67907538D01*
X130053906Y-67999599D01*
X129297792Y-67243484D01*
X129297792Y-66510299D01*
X129671611Y-66510299D01*
X129837538Y-66911873D01*
X130144511Y-67219382D01*
X130545795Y-67386010D01*
X130980299Y-67386389D01*
X131381873Y-67220462D01*
X131689382Y-66913489D01*
X131856010Y-66512205D01*
X131856389Y-66077701D01*
X131690462Y-65676127D01*
X131383489Y-65368618D01*
X130982205Y-65201990D01*
X130547701Y-65201611D01*
X130146127Y-65367538D01*
X129838618Y-65674511D01*
X129671990Y-66075795D01*
X129671611Y-66510299D01*
X129297792Y-66510299D01*
X129297792Y-65786000D01*
X129238891Y-65489883D01*
X129071154Y-65238846D01*
X128820117Y-65071109D01*
X128524000Y-65012208D01*
X128227883Y-65071109D01*
X127976846Y-65238846D01*
X127809109Y-65489883D01*
X127773792Y-65667435D01*
X127773792Y-63970299D01*
X129671611Y-63970299D01*
X129837538Y-64371873D01*
X130144511Y-64679382D01*
X130545795Y-64846010D01*
X130980299Y-64846389D01*
X131381873Y-64680462D01*
X131689382Y-64373489D01*
X131856010Y-63972205D01*
X131856389Y-63537701D01*
X131690462Y-63136127D01*
X131383489Y-62828618D01*
X130982205Y-62661990D01*
X130547701Y-62661611D01*
X130146127Y-62827538D01*
X129838618Y-63134511D01*
X129671990Y-63535795D01*
X129671611Y-63970299D01*
X127773792Y-63970299D01*
X127773792Y-61430299D01*
X129671611Y-61430299D01*
X129837538Y-61831873D01*
X130144511Y-62139382D01*
X130545795Y-62306010D01*
X130980299Y-62306389D01*
X131381873Y-62140462D01*
X131689382Y-61833489D01*
X131856010Y-61432205D01*
X131856389Y-60997701D01*
X131690462Y-60596127D01*
X131383489Y-60288618D01*
X130982205Y-60121990D01*
X130547701Y-60121611D01*
X130146127Y-60287538D01*
X129838618Y-60594511D01*
X129671990Y-60995795D01*
X129671611Y-61430299D01*
X127773792Y-61430299D01*
X127773792Y-58890299D01*
X129671611Y-58890299D01*
X129837538Y-59291873D01*
X130144511Y-59599382D01*
X130545795Y-59766010D01*
X130980299Y-59766389D01*
X131381873Y-59600462D01*
X131689382Y-59293489D01*
X131856010Y-58892205D01*
X131856389Y-58457701D01*
X131690462Y-58056127D01*
X131383489Y-57748618D01*
X130982205Y-57581990D01*
X130547701Y-57581611D01*
X130146127Y-57747538D01*
X129838618Y-58054511D01*
X129671990Y-58455795D01*
X129671611Y-58890299D01*
X127773792Y-58890299D01*
X127773792Y-58674005D01*
X127773793Y-58674000D01*
X127714891Y-58377882D01*
X127631023Y-58252365D01*
X127547154Y-58126846D01*
X127547151Y-58126844D01*
X126208669Y-56788361D01*
X126208669Y-56350299D01*
X129671611Y-56350299D01*
X129837538Y-56751873D01*
X130144511Y-57059382D01*
X130545795Y-57226010D01*
X130980299Y-57226389D01*
X131381873Y-57060462D01*
X131689382Y-56753489D01*
X131856010Y-56352205D01*
X131856389Y-55917701D01*
X131690462Y-55516127D01*
X131383489Y-55208618D01*
X130982205Y-55041990D01*
X130547701Y-55041611D01*
X130146127Y-55207538D01*
X129838618Y-55514511D01*
X129671990Y-55915795D01*
X129671611Y-56350299D01*
X126208669Y-56350299D01*
X126208669Y-56226000D01*
X126185644Y-56103635D01*
X126113327Y-55991251D01*
X126002983Y-55915856D01*
X125872000Y-55889331D01*
X124572000Y-55889331D01*
X124449635Y-55912356D01*
X124337251Y-55984673D01*
X124261856Y-56095017D01*
X124235331Y-56226000D01*
X124235331Y-57726000D01*
X124258356Y-57848365D01*
X124330673Y-57960749D01*
X124441017Y-58036144D01*
X124572000Y-58062669D01*
X125294361Y-58062669D01*
X126226208Y-58994515D01*
X126226208Y-60361900D01*
X124245154Y-58380846D01*
X123994118Y-58213109D01*
X123698000Y-58154207D01*
X123697995Y-58154208D01*
X120486100Y-58154208D01*
X122240516Y-56399792D01*
X123190000Y-56399792D01*
X123486117Y-56340891D01*
X123737154Y-56173154D01*
X123904891Y-55922117D01*
X123963792Y-55626000D01*
X123904891Y-55329883D01*
X123737154Y-55078846D01*
X123618082Y-54999285D01*
X123872000Y-55049792D01*
X124239808Y-55049792D01*
X124258356Y-55148365D01*
X124330673Y-55260749D01*
X124441017Y-55336144D01*
X124572000Y-55362669D01*
X125872000Y-55362669D01*
X125994365Y-55339644D01*
X126106749Y-55267327D01*
X126182144Y-55156983D01*
X126208669Y-55026000D01*
X126208669Y-53810299D01*
X129671611Y-53810299D01*
X129837538Y-54211873D01*
X130144511Y-54519382D01*
X130545795Y-54686010D01*
X130980299Y-54686389D01*
X131381873Y-54520462D01*
X131689382Y-54213489D01*
X131856010Y-53812205D01*
X131856389Y-53377701D01*
X131690462Y-52976127D01*
X131383489Y-52668618D01*
X130982205Y-52501990D01*
X130547701Y-52501611D01*
X130146127Y-52667538D01*
X129838618Y-52974511D01*
X129671990Y-53375795D01*
X129671611Y-53810299D01*
X126208669Y-53810299D01*
X126208669Y-53526000D01*
X126185644Y-53403635D01*
X126113327Y-53291251D01*
X126002983Y-53215856D01*
X125872000Y-53189331D01*
X124572000Y-53189331D01*
X124449635Y-53212356D01*
X124337251Y-53284673D01*
X124261856Y-53395017D01*
X124240149Y-53502208D01*
X124192516Y-53502208D01*
X123991154Y-53300846D01*
X123740118Y-53133109D01*
X123444000Y-53074207D01*
X123147882Y-53133109D01*
X122896846Y-53300846D01*
X122729109Y-53551882D01*
X122670207Y-53848000D01*
X122729109Y-54144118D01*
X122896846Y-54395154D01*
X123324844Y-54823151D01*
X123324846Y-54823154D01*
X123443918Y-54902715D01*
X123190000Y-54852208D01*
X121920005Y-54852208D01*
X121920000Y-54852207D01*
X121623882Y-54911109D01*
X121372846Y-55078846D01*
X119340846Y-57110846D01*
X119173109Y-57361882D01*
X119114207Y-57658000D01*
X119173109Y-57954118D01*
X119306805Y-58154208D01*
X118110000Y-58154208D01*
X117813883Y-58213109D01*
X117562846Y-58380846D01*
X117562844Y-58380849D01*
X116292846Y-59650846D01*
X116125109Y-59901882D01*
X116066207Y-60198000D01*
X116066208Y-60198005D01*
X116066208Y-63889435D01*
X116030891Y-63711883D01*
X115863154Y-63460846D01*
X115612117Y-63293109D01*
X115316000Y-63234208D01*
X115019883Y-63293109D01*
X114768846Y-63460846D01*
X114601109Y-63711883D01*
X114542208Y-64008000D01*
X114542208Y-68580000D01*
X114601109Y-68876117D01*
X114768846Y-69127154D01*
X115019883Y-69294891D01*
X115316000Y-69353792D01*
X115612117Y-69294891D01*
X115863154Y-69127154D01*
X116030891Y-68876117D01*
X116089792Y-68580000D01*
X116089792Y-64380569D01*
X116125109Y-64558118D01*
X116292846Y-64809154D01*
X116320208Y-64836516D01*
X116320208Y-74077901D01*
X115863154Y-73620846D01*
X115612118Y-73453109D01*
X115316000Y-73394207D01*
X115315995Y-73394208D01*
X114645104Y-73394208D01*
X114292481Y-73040969D01*
X113803754Y-72838032D01*
X113274568Y-72837570D01*
X112785487Y-73039654D01*
X112410969Y-73413519D01*
X112208032Y-73902246D01*
X112207570Y-74431432D01*
X112409654Y-74920513D01*
X112783519Y-75295031D01*
X113272246Y-75497968D01*
X113801432Y-75498430D01*
X114290513Y-75296346D01*
X114645686Y-74941792D01*
X114995484Y-74941792D01*
X115276846Y-75223153D01*
X115527882Y-75390890D01*
X115824000Y-75449792D01*
X116120118Y-75390890D01*
X116320208Y-75257194D01*
X116320208Y-81460805D01*
X116120117Y-81327109D01*
X115824000Y-81268208D01*
X114881195Y-81268208D01*
X115014891Y-81068117D01*
X115073792Y-80772000D01*
X115073792Y-77216000D01*
X115014891Y-76919883D01*
X114847154Y-76668846D01*
X114596117Y-76501109D01*
X114300000Y-76442208D01*
X114003883Y-76501109D01*
X113752846Y-76668846D01*
X113585109Y-76919883D01*
X113526208Y-77216000D01*
X113526208Y-80772000D01*
X113585109Y-81068117D01*
X113718805Y-81268208D01*
X113041792Y-81268208D01*
X113041792Y-76200000D01*
X112982891Y-75903883D01*
X112815154Y-75652846D01*
X112815151Y-75652844D01*
X111898201Y-74735894D01*
X111898411Y-74495352D01*
X111713038Y-74046715D01*
X111370090Y-73703168D01*
X110921778Y-73517012D01*
X110436352Y-73516589D01*
X109987715Y-73701962D01*
X109644168Y-74044910D01*
X109458012Y-74493222D01*
X109457589Y-74978648D01*
X109642962Y-75427285D01*
X109985910Y-75770832D01*
X110434222Y-75956988D01*
X110919648Y-75957411D01*
X110927754Y-75954062D01*
X111108053Y-76134360D01*
X110921778Y-76057012D01*
X110436352Y-76056589D01*
X109987715Y-76241962D01*
X109644168Y-76584910D01*
X109458012Y-77033222D01*
X109457589Y-77518648D01*
X109642962Y-77967285D01*
X109985910Y-78310832D01*
X110434222Y-78496988D01*
X110919648Y-78497411D01*
X111368285Y-78312038D01*
X111494208Y-78186335D01*
X111494208Y-81447503D01*
X111370090Y-81323168D01*
X110921778Y-81137012D01*
X110436352Y-81136589D01*
X109987715Y-81321962D01*
X109739792Y-81569453D01*
X109739792Y-78740000D01*
X109680891Y-78443883D01*
X109513154Y-78192846D01*
X109513151Y-78192844D01*
X109005154Y-77684846D01*
X108754118Y-77517109D01*
X108458000Y-77458207D01*
X108253403Y-77498904D01*
X109132154Y-76620153D01*
X109140238Y-76608055D01*
X109152030Y-76599528D01*
X109223827Y-76482955D01*
X109299891Y-76369118D01*
X109302730Y-76354845D01*
X109310361Y-76342455D01*
X109332081Y-76207292D01*
X109358793Y-76073000D01*
X109355954Y-76058726D01*
X109358262Y-76044361D01*
X109231792Y-72629671D01*
X109231792Y-72438648D01*
X109457589Y-72438648D01*
X109642962Y-72887285D01*
X109985910Y-73230832D01*
X110434222Y-73416988D01*
X110919648Y-73417411D01*
X111368285Y-73232038D01*
X111711832Y-72889090D01*
X111897988Y-72440778D01*
X111898411Y-71955352D01*
X111713038Y-71506715D01*
X111370090Y-71163168D01*
X110921778Y-70977012D01*
X110436352Y-70976589D01*
X109987715Y-71161962D01*
X109644168Y-71504910D01*
X109458012Y-71953222D01*
X109457589Y-72438648D01*
X109231792Y-72438648D01*
X109231792Y-69898648D01*
X109457589Y-69898648D01*
X109642962Y-70347285D01*
X109985910Y-70690832D01*
X110434222Y-70876988D01*
X110919648Y-70877411D01*
X111368285Y-70692038D01*
X111711832Y-70349090D01*
X111897988Y-69900778D01*
X111898411Y-69415352D01*
X111713038Y-68966715D01*
X111370090Y-68623168D01*
X110921778Y-68437012D01*
X110436352Y-68436589D01*
X109987715Y-68621962D01*
X109644168Y-68964910D01*
X109458012Y-69413222D01*
X109457589Y-69898648D01*
X109231792Y-69898648D01*
X109231792Y-69596000D01*
X109172891Y-69299883D01*
X109005154Y-69048846D01*
X108754117Y-68881109D01*
X108458000Y-68822208D01*
X108080376Y-68822208D01*
X108100669Y-68722000D01*
X108100669Y-67422000D01*
X108088749Y-67358648D01*
X109457589Y-67358648D01*
X109642962Y-67807285D01*
X109985910Y-68150832D01*
X110434222Y-68336988D01*
X110919648Y-68337411D01*
X111368285Y-68152038D01*
X111711832Y-67809090D01*
X111897988Y-67360778D01*
X111898411Y-66875352D01*
X111713038Y-66426715D01*
X111370090Y-66083168D01*
X110921778Y-65897012D01*
X110436352Y-65896589D01*
X109987715Y-66081962D01*
X109644168Y-66424910D01*
X109458012Y-66873222D01*
X109457589Y-67358648D01*
X108088749Y-67358648D01*
X108077644Y-67299635D01*
X108005327Y-67187251D01*
X107894983Y-67111856D01*
X107764000Y-67085331D01*
X107707792Y-67085331D01*
X107707792Y-66802000D01*
X107648891Y-66505883D01*
X107481154Y-66254846D01*
X107481151Y-66254844D01*
X107227154Y-66000846D01*
X106976118Y-65833109D01*
X106680000Y-65774207D01*
X106383882Y-65833109D01*
X106132846Y-66000846D01*
X105965109Y-66251882D01*
X105906207Y-66548000D01*
X105965109Y-66844118D01*
X106132846Y-67095154D01*
X106145349Y-67107657D01*
X106141635Y-67108356D01*
X106029251Y-67180673D01*
X105953856Y-67291017D01*
X105927331Y-67422000D01*
X105927331Y-68722000D01*
X105946187Y-68822208D01*
X105380376Y-68822208D01*
X105400669Y-68722000D01*
X105400669Y-67422000D01*
X105377644Y-67299635D01*
X105305327Y-67187251D01*
X105194983Y-67111856D01*
X105087792Y-67090149D01*
X105087792Y-64916516D01*
X105957154Y-64047154D01*
X106124891Y-63796118D01*
X106183793Y-63500000D01*
X106124891Y-63203882D01*
X105957154Y-62952846D01*
X105706118Y-62785109D01*
X105410000Y-62726207D01*
X105113882Y-62785109D01*
X104862846Y-62952846D01*
X103766846Y-64048846D01*
X103599109Y-64299882D01*
X103540207Y-64596000D01*
X103540208Y-64596005D01*
X103540208Y-64892935D01*
X103339360Y-64788781D01*
X103038549Y-64762940D01*
X102750747Y-64854183D01*
X102519770Y-65048616D01*
X100487770Y-67588616D01*
X100437627Y-67685312D01*
X100377109Y-67775883D01*
X100368677Y-67818272D01*
X100348781Y-67856640D01*
X100339458Y-67965169D01*
X100318208Y-68072000D01*
X100318208Y-78231995D01*
X100318207Y-78232000D01*
X100377109Y-78528118D01*
X100433331Y-78612260D01*
X100433331Y-79390000D01*
X100456356Y-79512365D01*
X100528673Y-79624749D01*
X100639017Y-79700144D01*
X100770000Y-79726669D01*
X102270000Y-79726669D01*
X102392365Y-79703644D01*
X102504749Y-79631327D01*
X102580144Y-79520983D01*
X102606669Y-79390000D01*
X102606669Y-78090000D01*
X102583644Y-77967635D01*
X102511327Y-77855251D01*
X102400983Y-77779856D01*
X102270000Y-77753331D01*
X101865792Y-77753331D01*
X101865792Y-76572565D01*
X101901109Y-76750117D01*
X102068846Y-77001154D01*
X102319883Y-77168891D01*
X102616000Y-77227792D01*
X102912117Y-77168891D01*
X103163154Y-77001154D01*
X103330891Y-76750117D01*
X103389792Y-76454000D01*
X103389792Y-74385614D01*
X103432331Y-74394076D01*
X103432331Y-74430000D01*
X103455356Y-74552365D01*
X103527673Y-74664749D01*
X103638017Y-74740144D01*
X103769000Y-74766669D01*
X105019000Y-74766669D01*
X105141365Y-74743644D01*
X105253749Y-74671327D01*
X105329144Y-74560983D01*
X105355669Y-74430000D01*
X105355669Y-72930000D01*
X105332644Y-72807635D01*
X105260327Y-72695251D01*
X105149983Y-72619856D01*
X105019000Y-72593331D01*
X103769000Y-72593331D01*
X103676958Y-72610650D01*
X103163154Y-72096846D01*
X103135792Y-72078563D01*
X103135792Y-72050610D01*
X103179017Y-72080144D01*
X103310000Y-72106669D01*
X104810000Y-72106669D01*
X104932365Y-72083644D01*
X105044749Y-72011327D01*
X105120144Y-71900983D01*
X105146669Y-71770000D01*
X105146669Y-70699639D01*
X105476516Y-70369792D01*
X105693624Y-70369792D01*
X105673331Y-70470000D01*
X105673331Y-71770000D01*
X105696356Y-71892365D01*
X105768673Y-72004749D01*
X105879017Y-72080144D01*
X105986208Y-72101851D01*
X105986208Y-72570305D01*
X105965109Y-72601882D01*
X105906207Y-72898000D01*
X105965109Y-73194118D01*
X106132846Y-73445154D01*
X106383882Y-73612891D01*
X106680000Y-73671793D01*
X106976118Y-73612891D01*
X107227154Y-73445154D01*
X107307154Y-73365154D01*
X107474891Y-73114118D01*
X107533793Y-72818000D01*
X107533792Y-72817995D01*
X107533792Y-72102192D01*
X107632365Y-72083644D01*
X107684208Y-72050284D01*
X107684208Y-72644000D01*
X107687047Y-72658271D01*
X107684738Y-72672639D01*
X107799249Y-75764444D01*
X105597484Y-77966208D01*
X105282726Y-77966208D01*
X105211327Y-77855251D01*
X105167792Y-77825505D01*
X105167792Y-77226639D01*
X105253749Y-77171327D01*
X105329144Y-77060983D01*
X105355669Y-76930000D01*
X105355669Y-75430000D01*
X105332644Y-75307635D01*
X105260327Y-75195251D01*
X105149983Y-75119856D01*
X105019000Y-75093331D01*
X103769000Y-75093331D01*
X103646635Y-75116356D01*
X103534251Y-75188673D01*
X103458856Y-75299017D01*
X103432331Y-75430000D01*
X103432331Y-76930000D01*
X103455356Y-77052365D01*
X103527673Y-77164749D01*
X103620208Y-77227976D01*
X103620208Y-77753331D01*
X103470000Y-77753331D01*
X103347635Y-77776356D01*
X103235251Y-77848673D01*
X103159856Y-77959017D01*
X103133331Y-78090000D01*
X103133331Y-79390000D01*
X103156356Y-79512365D01*
X103228673Y-79624749D01*
X103339017Y-79700144D01*
X103366208Y-79705650D01*
X103366208Y-85090000D01*
X103425109Y-85386117D01*
X103592846Y-85637154D01*
X103843883Y-85804891D01*
X104140000Y-85863792D01*
X104436117Y-85804891D01*
X104687154Y-85637154D01*
X104854891Y-85386117D01*
X104913792Y-85090000D01*
X104913792Y-79726669D01*
X104970000Y-79726669D01*
X105092365Y-79703644D01*
X105204749Y-79631327D01*
X105280144Y-79520983D01*
X105281600Y-79513792D01*
X105917995Y-79513792D01*
X105918000Y-79513793D01*
X106214118Y-79454891D01*
X106465154Y-79287154D01*
X107724904Y-78027403D01*
X107684207Y-78232000D01*
X107743109Y-78528118D01*
X107910846Y-78779154D01*
X108192208Y-79060515D01*
X108192208Y-85597995D01*
X108192207Y-85598000D01*
X108251109Y-85894118D01*
X108418846Y-86145154D01*
X108462723Y-86189031D01*
X108505109Y-86402118D01*
X108672846Y-86653154D01*
X108926844Y-86907151D01*
X108926846Y-86907154D01*
X109177883Y-87074891D01*
X109390969Y-87117276D01*
X109434844Y-87161151D01*
X109434846Y-87161154D01*
X109685883Y-87328891D01*
X109982000Y-87387792D01*
X111505995Y-87387792D01*
X111506000Y-87387793D01*
X111802118Y-87328891D01*
X112053154Y-87161154D01*
X113069154Y-86145154D01*
X113236891Y-85894118D01*
X113295793Y-85598000D01*
X113295792Y-85597995D01*
X113295792Y-83312000D01*
X113236891Y-83015883D01*
X113103195Y-82815792D01*
X115050208Y-82815792D01*
X115050208Y-86359995D01*
X115050207Y-86360000D01*
X115109109Y-86656118D01*
X115146636Y-86712281D01*
X114501509Y-86242488D01*
X114227463Y-86115786D01*
X113925790Y-86103602D01*
X113642418Y-86207791D01*
X113420488Y-86412491D01*
X113293786Y-86686537D01*
X113281602Y-86988210D01*
X113385791Y-87271582D01*
X113590491Y-87493512D01*
X114985677Y-88509512D01*
X115068864Y-88547972D01*
X115145069Y-88598891D01*
X115204615Y-88610735D01*
X115259723Y-88636214D01*
X115351300Y-88639913D01*
X115373859Y-88644400D01*
X98055600Y-88644400D01*
X98055600Y-84083432D01*
X98999570Y-84083432D01*
X99201654Y-84572513D01*
X99575519Y-84947031D01*
X100064246Y-85149968D01*
X100593432Y-85150430D01*
X101082513Y-84948346D01*
X101457031Y-84574481D01*
X101659968Y-84085754D01*
X101660430Y-83556568D01*
X101458346Y-83067487D01*
X101084481Y-82692969D01*
X100595754Y-82490032D01*
X100066568Y-82489570D01*
X99577487Y-82691654D01*
X99202969Y-83065519D01*
X99000032Y-83554246D01*
X98999570Y-84083432D01*
X98055600Y-84083432D01*
X98055600Y-55509000D01*
X101001331Y-55509000D01*
X101001331Y-56759000D01*
X101024356Y-56881365D01*
X101096673Y-56993749D01*
X101207017Y-57069144D01*
X101334208Y-57094901D01*
X101334208Y-59999045D01*
X101215635Y-60021356D01*
X101103251Y-60093673D01*
X101027856Y-60204017D01*
X101001331Y-60335000D01*
X101001331Y-61585000D01*
X101024356Y-61707365D01*
X101096673Y-61819749D01*
X101207017Y-61895144D01*
X101334208Y-61920901D01*
X101334208Y-63246000D01*
X101393109Y-63542117D01*
X101560846Y-63793154D01*
X101811883Y-63960891D01*
X102108000Y-64019792D01*
X102404117Y-63960891D01*
X102655154Y-63793154D01*
X102822891Y-63542117D01*
X102881792Y-63246000D01*
X102881792Y-61913429D01*
X102960365Y-61898644D01*
X103072749Y-61826327D01*
X103148144Y-61715983D01*
X103174669Y-61585000D01*
X103174669Y-60335000D01*
X103151644Y-60212635D01*
X103079327Y-60100251D01*
X102968983Y-60024856D01*
X102881792Y-60007199D01*
X102881792Y-57087429D01*
X102960365Y-57072644D01*
X103072749Y-57000327D01*
X103135976Y-56907792D01*
X105410000Y-56907792D01*
X105706117Y-56848891D01*
X105947684Y-56687481D01*
X105906207Y-56896000D01*
X105906208Y-56896005D01*
X105906208Y-57083485D01*
X105624846Y-57364846D01*
X105457109Y-57615882D01*
X105398207Y-57912000D01*
X105457109Y-58208118D01*
X105624846Y-58459154D01*
X105875882Y-58626891D01*
X106172000Y-58685793D01*
X106468118Y-58626891D01*
X106719154Y-58459154D01*
X107227151Y-57951156D01*
X107227154Y-57951154D01*
X107394891Y-57700117D01*
X107451446Y-57415792D01*
X107622805Y-57415792D01*
X107489109Y-57615883D01*
X107430208Y-57912000D01*
X107430208Y-59057236D01*
X107171015Y-59315977D01*
X106985012Y-59763922D01*
X106984588Y-60248950D01*
X107169809Y-60697219D01*
X107512477Y-61040485D01*
X107684208Y-61111794D01*
X107684208Y-63783331D01*
X107628000Y-63783331D01*
X107505635Y-63806356D01*
X107393251Y-63878673D01*
X107317856Y-63989017D01*
X107291331Y-64120000D01*
X107291331Y-65420000D01*
X107314356Y-65542365D01*
X107386673Y-65654749D01*
X107497017Y-65730144D01*
X107628000Y-65756669D01*
X109128000Y-65756669D01*
X109250365Y-65733644D01*
X109362749Y-65661327D01*
X109438144Y-65550983D01*
X109464669Y-65420000D01*
X109464669Y-64120000D01*
X109991331Y-64120000D01*
X109991331Y-65420000D01*
X110014356Y-65542365D01*
X110086673Y-65654749D01*
X110197017Y-65730144D01*
X110328000Y-65756669D01*
X111045260Y-65756669D01*
X111252000Y-65797792D01*
X112584571Y-65797792D01*
X112599356Y-65876365D01*
X112671673Y-65988749D01*
X112764208Y-66051976D01*
X112764208Y-69087995D01*
X112764207Y-69088000D01*
X112823109Y-69384118D01*
X112990846Y-69635154D01*
X114260846Y-70905153D01*
X114511882Y-71072890D01*
X114808000Y-71131792D01*
X115104118Y-71072890D01*
X115355153Y-70905153D01*
X115522890Y-70654118D01*
X115581792Y-70358000D01*
X115522890Y-70061882D01*
X115355153Y-69810846D01*
X114311792Y-68767484D01*
X114311792Y-66050639D01*
X114397749Y-65995327D01*
X114473144Y-65884983D01*
X114499669Y-65754000D01*
X114499669Y-64254000D01*
X114476644Y-64131635D01*
X114404327Y-64019251D01*
X114293983Y-63943856D01*
X114163000Y-63917331D01*
X112913000Y-63917331D01*
X112790635Y-63940356D01*
X112678251Y-64012673D01*
X112602856Y-64123017D01*
X112577099Y-64250208D01*
X112164669Y-64250208D01*
X112164669Y-64120000D01*
X112141644Y-63997635D01*
X112069327Y-63885251D01*
X111958983Y-63809856D01*
X111828000Y-63783331D01*
X110328000Y-63783331D01*
X110205635Y-63806356D01*
X110093251Y-63878673D01*
X110017856Y-63989017D01*
X109991331Y-64120000D01*
X109464669Y-64120000D01*
X109441644Y-63997635D01*
X109369327Y-63885251D01*
X109258983Y-63809856D01*
X109231792Y-63804350D01*
X109231792Y-60704207D01*
X109236985Y-60699023D01*
X109422988Y-60251078D01*
X109422989Y-60248950D01*
X112064588Y-60248950D01*
X112249809Y-60697219D01*
X112510208Y-60958072D01*
X112510208Y-62229995D01*
X112510207Y-62230000D01*
X112569109Y-62526118D01*
X112576331Y-62536926D01*
X112576331Y-63254000D01*
X112599356Y-63376365D01*
X112671673Y-63488749D01*
X112782017Y-63564144D01*
X112913000Y-63590669D01*
X114163000Y-63590669D01*
X114285365Y-63567644D01*
X114397749Y-63495327D01*
X114473144Y-63384983D01*
X114499669Y-63254000D01*
X114499669Y-61754000D01*
X114476644Y-61631635D01*
X114404327Y-61519251D01*
X114293983Y-61443856D01*
X114163000Y-61417331D01*
X114057792Y-61417331D01*
X114057792Y-60957764D01*
X114316985Y-60699023D01*
X114502988Y-60251078D01*
X114503412Y-59766050D01*
X114318191Y-59317781D01*
X113975523Y-58974515D01*
X113527578Y-58788512D01*
X113042550Y-58788088D01*
X112594281Y-58973309D01*
X112251015Y-59315977D01*
X112065012Y-59763922D01*
X112064588Y-60248950D01*
X109422989Y-60248950D01*
X109423412Y-59766050D01*
X109238191Y-59317781D01*
X108977792Y-59056928D01*
X108977792Y-58256100D01*
X109180846Y-58459153D01*
X109431882Y-58626890D01*
X109728000Y-58685792D01*
X110024118Y-58626890D01*
X110275153Y-58459153D01*
X110442890Y-58208118D01*
X110501792Y-57912000D01*
X110442890Y-57615882D01*
X110275153Y-57364846D01*
X110247792Y-57337485D01*
X110247792Y-56642000D01*
X110188891Y-56345883D01*
X110021154Y-56094846D01*
X109770117Y-55927109D01*
X109474000Y-55868208D01*
X106934000Y-55868208D01*
X106637883Y-55927109D01*
X106386846Y-56094846D01*
X106386844Y-56094849D01*
X106143095Y-56338597D01*
X106183792Y-56134000D01*
X106124891Y-55837883D01*
X105957154Y-55586846D01*
X105706117Y-55419109D01*
X105410000Y-55360208D01*
X103134639Y-55360208D01*
X103079327Y-55274251D01*
X102968983Y-55198856D01*
X102838000Y-55172331D01*
X101338000Y-55172331D01*
X101215635Y-55195356D01*
X101103251Y-55267673D01*
X101027856Y-55378017D01*
X101001331Y-55509000D01*
X98055600Y-55509000D01*
X98055600Y-51993950D01*
X104444588Y-51993950D01*
X104629809Y-52442219D01*
X104972477Y-52785485D01*
X105420422Y-52971488D01*
X105905450Y-52971912D01*
X106353719Y-52786691D01*
X106696985Y-52444023D01*
X106882988Y-51996078D01*
X106882989Y-51993950D01*
X106984588Y-51993950D01*
X107169809Y-52442219D01*
X107512477Y-52785485D01*
X107960422Y-52971488D01*
X108445450Y-52971912D01*
X108893719Y-52786691D01*
X109236985Y-52444023D01*
X109422988Y-51996078D01*
X109423255Y-51691053D01*
X109524942Y-51589366D01*
X109524588Y-51993950D01*
X109709809Y-52442219D01*
X110052477Y-52785485D01*
X110500422Y-52971488D01*
X110551225Y-52971532D01*
X110732208Y-53152515D01*
X110732208Y-56387995D01*
X110732207Y-56388000D01*
X110791109Y-56684118D01*
X110958846Y-56935154D01*
X112228846Y-58205153D01*
X112479882Y-58372890D01*
X112776000Y-58431792D01*
X113072118Y-58372890D01*
X113323153Y-58205153D01*
X113490890Y-57954118D01*
X113549792Y-57658000D01*
X113490890Y-57361882D01*
X113323153Y-57110846D01*
X112279792Y-56067484D01*
X112279792Y-52832005D01*
X112279793Y-52832000D01*
X112220891Y-52535882D01*
X112107457Y-52366117D01*
X112053154Y-52284846D01*
X112053151Y-52284844D01*
X112009276Y-52240969D01*
X111966890Y-52027882D01*
X111956339Y-52012091D01*
X111962988Y-51996078D01*
X111962989Y-51993950D01*
X112064588Y-51993950D01*
X112249809Y-52442219D01*
X112510208Y-52703072D01*
X112510208Y-55626000D01*
X112569109Y-55922117D01*
X112736846Y-56173154D01*
X112987883Y-56340891D01*
X113284000Y-56399792D01*
X113580117Y-56340891D01*
X113831154Y-56173154D01*
X113998891Y-55922117D01*
X114057792Y-55626000D01*
X114057792Y-54170299D01*
X118541611Y-54170299D01*
X118707538Y-54571873D01*
X119014511Y-54879382D01*
X119415795Y-55046010D01*
X119850299Y-55046389D01*
X120251873Y-54880462D01*
X120559382Y-54573489D01*
X120726010Y-54172205D01*
X120726389Y-53737701D01*
X120560462Y-53336127D01*
X120253489Y-53028618D01*
X119852205Y-52861990D01*
X119417701Y-52861611D01*
X119016127Y-53027538D01*
X118708618Y-53334511D01*
X118541990Y-53735795D01*
X118541611Y-54170299D01*
X114057792Y-54170299D01*
X114057792Y-52702764D01*
X114316985Y-52444023D01*
X114502988Y-51996078D01*
X114503412Y-51511050D01*
X114403936Y-51270299D01*
X118503611Y-51270299D01*
X118669538Y-51671873D01*
X118976511Y-51979382D01*
X119377795Y-52146010D01*
X119812299Y-52146389D01*
X120213873Y-51980462D01*
X120521382Y-51673489D01*
X120688010Y-51272205D01*
X120688011Y-51270299D01*
X129671611Y-51270299D01*
X129837538Y-51671873D01*
X130144511Y-51979382D01*
X130545795Y-52146010D01*
X130980299Y-52146389D01*
X131381873Y-51980462D01*
X131689382Y-51673489D01*
X131856010Y-51272205D01*
X131856389Y-50837701D01*
X131690462Y-50436127D01*
X131383489Y-50128618D01*
X130982205Y-49961990D01*
X130547701Y-49961611D01*
X130146127Y-50127538D01*
X129838618Y-50434511D01*
X129671990Y-50835795D01*
X129671611Y-51270299D01*
X120688011Y-51270299D01*
X120688389Y-50837701D01*
X120522462Y-50436127D01*
X120215489Y-50128618D01*
X119814205Y-49961990D01*
X119379701Y-49961611D01*
X118978127Y-50127538D01*
X118670618Y-50434511D01*
X118503990Y-50835795D01*
X118503611Y-51270299D01*
X114403936Y-51270299D01*
X114333201Y-51099107D01*
X116371153Y-49061154D01*
X116538890Y-48810118D01*
X116554767Y-48730299D01*
X129671611Y-48730299D01*
X129837538Y-49131873D01*
X130144511Y-49439382D01*
X130545795Y-49606010D01*
X130980299Y-49606389D01*
X131381873Y-49440462D01*
X131689382Y-49133489D01*
X131856010Y-48732205D01*
X131856389Y-48297701D01*
X131690462Y-47896127D01*
X131383489Y-47588618D01*
X130982205Y-47421990D01*
X130547701Y-47421611D01*
X130146127Y-47587538D01*
X129838618Y-47894511D01*
X129671990Y-48295795D01*
X129671611Y-48730299D01*
X116554767Y-48730299D01*
X116597792Y-48514000D01*
X116538890Y-48217882D01*
X116371153Y-47966847D01*
X116120118Y-47799110D01*
X115824000Y-47740208D01*
X115527882Y-47799110D01*
X115276846Y-47966847D01*
X112736846Y-50506846D01*
X112596035Y-50717584D01*
X112594281Y-50718309D01*
X112251015Y-51060977D01*
X112065012Y-51508922D01*
X112064588Y-51993950D01*
X111962989Y-51993950D01*
X111963412Y-51511050D01*
X111778191Y-51062781D01*
X111527639Y-50811792D01*
X111759995Y-50811792D01*
X111760000Y-50811793D01*
X112056118Y-50752891D01*
X112307154Y-50585154D01*
X116371154Y-46521154D01*
X116538891Y-46270118D01*
X116554768Y-46190299D01*
X129671611Y-46190299D01*
X129837538Y-46591873D01*
X130144511Y-46899382D01*
X130545795Y-47066010D01*
X130980299Y-47066389D01*
X131381873Y-46900462D01*
X131689382Y-46593489D01*
X131856010Y-46192205D01*
X131856389Y-45757701D01*
X131690462Y-45356127D01*
X131383489Y-45048618D01*
X130982205Y-44881990D01*
X130547701Y-44881611D01*
X130146127Y-45047538D01*
X129838618Y-45354511D01*
X129671990Y-45755795D01*
X129671611Y-46190299D01*
X116554768Y-46190299D01*
X116597793Y-45974000D01*
X116538891Y-45677882D01*
X116371154Y-45426846D01*
X116120118Y-45259109D01*
X115824000Y-45200207D01*
X115527882Y-45259109D01*
X115276846Y-45426846D01*
X111439484Y-49264208D01*
X110862565Y-49264208D01*
X111040117Y-49228891D01*
X111291154Y-49061154D01*
X111458891Y-48810117D01*
X111517792Y-48514000D01*
X111517792Y-46736000D01*
X111476669Y-46529260D01*
X111476669Y-45812000D01*
X111453644Y-45689635D01*
X111381327Y-45577251D01*
X111270983Y-45501856D01*
X111140000Y-45475331D01*
X109840000Y-45475331D01*
X109717635Y-45498356D01*
X109605251Y-45570673D01*
X109529856Y-45681017D01*
X109524350Y-45708208D01*
X107950000Y-45708208D01*
X107653883Y-45767109D01*
X107402846Y-45934846D01*
X107235109Y-46185883D01*
X107176208Y-46482000D01*
X107235109Y-46778117D01*
X107402846Y-47029154D01*
X107653883Y-47196891D01*
X107950000Y-47255792D01*
X109503331Y-47255792D01*
X109503331Y-47312000D01*
X109526356Y-47434365D01*
X109598673Y-47546749D01*
X109709017Y-47622144D01*
X109840000Y-47648669D01*
X109970208Y-47648669D01*
X109970208Y-48514000D01*
X110029109Y-48810117D01*
X110196846Y-49061154D01*
X110447883Y-49228891D01*
X110625435Y-49264208D01*
X109982000Y-49264208D01*
X109685883Y-49323109D01*
X109434846Y-49490846D01*
X109434844Y-49490849D01*
X109180846Y-49744846D01*
X109079107Y-49897110D01*
X108926846Y-49998847D01*
X108392229Y-50533464D01*
X107962550Y-50533088D01*
X107514281Y-50718309D01*
X107171015Y-51060977D01*
X106985012Y-51508922D01*
X106984588Y-51993950D01*
X106882989Y-51993950D01*
X106883412Y-51511050D01*
X106698191Y-51062781D01*
X106355523Y-50719515D01*
X105907578Y-50533512D01*
X105422550Y-50533088D01*
X104974281Y-50718309D01*
X104631015Y-51060977D01*
X104445012Y-51508922D01*
X104444588Y-51993950D01*
X98055600Y-51993950D01*
X98055600Y-46698299D01*
X103087611Y-46698299D01*
X103253538Y-47099873D01*
X103560511Y-47407382D01*
X103961795Y-47574010D01*
X104396299Y-47574389D01*
X104797873Y-47408462D01*
X105105382Y-47101489D01*
X105272010Y-46700205D01*
X105272389Y-46265701D01*
X105106462Y-45864127D01*
X104799489Y-45556618D01*
X104398205Y-45389990D01*
X103963701Y-45389611D01*
X103562127Y-45555538D01*
X103254618Y-45862511D01*
X103087990Y-46263795D01*
X103087611Y-46698299D01*
X98055600Y-46698299D01*
X98055600Y-44158299D01*
X103087611Y-44158299D01*
X103253538Y-44559873D01*
X103560511Y-44867382D01*
X103961795Y-45034010D01*
X104396299Y-45034389D01*
X104797873Y-44868462D01*
X104950810Y-44715792D01*
X109522861Y-44715792D01*
X109526356Y-44734365D01*
X109598673Y-44846749D01*
X109709017Y-44922144D01*
X109840000Y-44948669D01*
X111140000Y-44948669D01*
X111262365Y-44925644D01*
X111374749Y-44853327D01*
X111450144Y-44742983D01*
X111455650Y-44715792D01*
X111693485Y-44715792D01*
X111720846Y-44743153D01*
X111971882Y-44910890D01*
X112268000Y-44969792D01*
X112564118Y-44910890D01*
X112815153Y-44743153D01*
X112982890Y-44492118D01*
X113013884Y-44336299D01*
X116165611Y-44336299D01*
X116331538Y-44737873D01*
X116638511Y-45045382D01*
X117039795Y-45212010D01*
X117474299Y-45212389D01*
X117875873Y-45046462D01*
X118183382Y-44739489D01*
X118350010Y-44338205D01*
X118350011Y-44336299D01*
X121165611Y-44336299D01*
X121331538Y-44737873D01*
X121638511Y-45045382D01*
X122039795Y-45212010D01*
X122474299Y-45212389D01*
X122875873Y-45046462D01*
X123183382Y-44739489D01*
X123350010Y-44338205D01*
X123350389Y-43903701D01*
X123184462Y-43502127D01*
X122877489Y-43194618D01*
X122476205Y-43027990D01*
X122041701Y-43027611D01*
X121640127Y-43193538D01*
X121332618Y-43500511D01*
X121165990Y-43901795D01*
X121165611Y-44336299D01*
X118350011Y-44336299D01*
X118350389Y-43903701D01*
X118184462Y-43502127D01*
X117877489Y-43194618D01*
X117476205Y-43027990D01*
X117041701Y-43027611D01*
X116640127Y-43193538D01*
X116332618Y-43500511D01*
X116165990Y-43901795D01*
X116165611Y-44336299D01*
X113013884Y-44336299D01*
X113041792Y-44196000D01*
X112982890Y-43899882D01*
X112815153Y-43648846D01*
X112561154Y-43394846D01*
X112310118Y-43227109D01*
X112014000Y-43168207D01*
X112013995Y-43168208D01*
X111476669Y-43168208D01*
X111476669Y-43112000D01*
X111453644Y-42989635D01*
X111381327Y-42877251D01*
X111270983Y-42801856D01*
X111140000Y-42775331D01*
X109840000Y-42775331D01*
X109717635Y-42798356D01*
X109605251Y-42870673D01*
X109529856Y-42981017D01*
X109503331Y-43112000D01*
X109503331Y-43168208D01*
X104950815Y-43168208D01*
X104799489Y-43016618D01*
X104398205Y-42849990D01*
X103963701Y-42849611D01*
X103562127Y-43015538D01*
X103254618Y-43322511D01*
X103087990Y-43723795D01*
X103087611Y-44158299D01*
X98055600Y-44158299D01*
X98055600Y-41665432D01*
X99253570Y-41665432D01*
X99455654Y-42154513D01*
X99829519Y-42529031D01*
X100318246Y-42731968D01*
X100847432Y-42732430D01*
X101336513Y-42530346D01*
X101711031Y-42156481D01*
X101913968Y-41667754D01*
X101914011Y-41618299D01*
X103087611Y-41618299D01*
X103253538Y-42019873D01*
X103560511Y-42327382D01*
X103961795Y-42494010D01*
X104396299Y-42494389D01*
X104797873Y-42328462D01*
X105105382Y-42021489D01*
X105272010Y-41620205D01*
X105272389Y-41185701D01*
X105106462Y-40784127D01*
X104799489Y-40476618D01*
X104398205Y-40309990D01*
X103963701Y-40309611D01*
X103562127Y-40475538D01*
X103254618Y-40782511D01*
X103087990Y-41183795D01*
X103087611Y-41618299D01*
X101914011Y-41618299D01*
X101914430Y-41138568D01*
X101712346Y-40649487D01*
X101338481Y-40274969D01*
X100849754Y-40072032D01*
X100320568Y-40071570D01*
X99831487Y-40273654D01*
X99456969Y-40647519D01*
X99254032Y-41136246D01*
X99253570Y-41665432D01*
X98055600Y-41665432D01*
X98055600Y-38555600D01*
X127996670Y-38555600D01*
X127976846Y-38568846D01*
X127976846Y-38568846D01*
G37*
X127976846Y-38568846D02*
X127976844Y-38568849D01*
X127468846Y-39076846D01*
X127301109Y-39327882D01*
X127242207Y-39624000D01*
X127242208Y-39624005D01*
X127242208Y-40573485D01*
X125182846Y-42632846D01*
X125015109Y-42883882D01*
X124956207Y-43180000D01*
X125015109Y-43476118D01*
X125182846Y-43727154D01*
X125433882Y-43894891D01*
X125730000Y-43953793D01*
X126026118Y-43894891D01*
X126277154Y-43727154D01*
X126354008Y-43650299D01*
X129671611Y-43650299D01*
X129837538Y-44051873D01*
X130144511Y-44359382D01*
X130545795Y-44526010D01*
X130980299Y-44526389D01*
X131381873Y-44360462D01*
X131689382Y-44053489D01*
X131856010Y-43652205D01*
X131856389Y-43217701D01*
X131690462Y-42816127D01*
X131383489Y-42508618D01*
X130982205Y-42341990D01*
X130547701Y-42341611D01*
X130146127Y-42507538D01*
X129838618Y-42814511D01*
X129671990Y-43215795D01*
X129671611Y-43650299D01*
X126354008Y-43650299D01*
X128563151Y-41441156D01*
X128563154Y-41441154D01*
X128730891Y-41190117D01*
X128789792Y-40894000D01*
X128789792Y-39944516D01*
X128844515Y-39889792D01*
X130334287Y-39889792D01*
X130146127Y-39967538D01*
X129838618Y-40274511D01*
X129671990Y-40675795D01*
X129671611Y-41110299D01*
X129837538Y-41511873D01*
X130144511Y-41819382D01*
X130545795Y-41986010D01*
X130980299Y-41986389D01*
X131381873Y-41820462D01*
X131689382Y-41513489D01*
X131856010Y-41112205D01*
X131856389Y-40677701D01*
X131690462Y-40276127D01*
X131383489Y-39968618D01*
X131193655Y-39889792D01*
X137855484Y-39889792D01*
X140450208Y-42484516D01*
X140450208Y-54101995D01*
X140450207Y-54102000D01*
X140509109Y-54398118D01*
X140676846Y-54649154D01*
X142990208Y-56962515D01*
X142990208Y-71882000D01*
X143006743Y-71965125D01*
X143008634Y-72049859D01*
X143035911Y-72111767D01*
X143049109Y-72178117D01*
X143096196Y-72248589D01*
X143130370Y-72326148D01*
X143179261Y-72372904D01*
X143216846Y-72429154D01*
X143287317Y-72476241D01*
X143348570Y-72534819D01*
X143799314Y-72821656D01*
X143747701Y-72821611D01*
X143346127Y-72987538D01*
X143038618Y-73294511D01*
X142871990Y-73695795D01*
X142871611Y-74130299D01*
X143037538Y-74531873D01*
X143344511Y-74839382D01*
X143745795Y-75006010D01*
X144180299Y-75006389D01*
X144581873Y-74840462D01*
X144889382Y-74533489D01*
X145056010Y-74132205D01*
X145056389Y-73697701D01*
X145013734Y-73594469D01*
X145511802Y-73911421D01*
X145511611Y-74130299D01*
X145677538Y-74531873D01*
X145984511Y-74839382D01*
X146385795Y-75006010D01*
X146820299Y-75006389D01*
X147221873Y-74840462D01*
X147529382Y-74533489D01*
X147696010Y-74132205D01*
X147696389Y-73697701D01*
X147530462Y-73296127D01*
X147223489Y-72988618D01*
X146822205Y-72821990D01*
X146682222Y-72821868D01*
X144746901Y-71590299D01*
X145511611Y-71590299D01*
X145677538Y-71991873D01*
X145984511Y-72299382D01*
X146385795Y-72466010D01*
X146820299Y-72466389D01*
X147221873Y-72300462D01*
X147529382Y-71993489D01*
X147696010Y-71592205D01*
X147696389Y-71157701D01*
X147530462Y-70756127D01*
X147223489Y-70448618D01*
X146822205Y-70281990D01*
X146387701Y-70281611D01*
X145986127Y-70447538D01*
X145678618Y-70754511D01*
X145511990Y-71155795D01*
X145511611Y-71590299D01*
X144746901Y-71590299D01*
X144537792Y-71457230D01*
X144537792Y-69050299D01*
X145511611Y-69050299D01*
X145677538Y-69451873D01*
X145984511Y-69759382D01*
X146385795Y-69926010D01*
X146820299Y-69926389D01*
X147221873Y-69760462D01*
X147529382Y-69453489D01*
X147696010Y-69052205D01*
X147696389Y-68617701D01*
X147530462Y-68216127D01*
X147223489Y-67908618D01*
X146822205Y-67741990D01*
X146387701Y-67741611D01*
X145986127Y-67907538D01*
X145678618Y-68214511D01*
X145511990Y-68615795D01*
X145511611Y-69050299D01*
X144537792Y-69050299D01*
X144537792Y-66510299D01*
X145511611Y-66510299D01*
X145677538Y-66911873D01*
X145984511Y-67219382D01*
X146385795Y-67386010D01*
X146820299Y-67386389D01*
X147221873Y-67220462D01*
X147529382Y-66913489D01*
X147696010Y-66512205D01*
X147696389Y-66077701D01*
X147530462Y-65676127D01*
X147223489Y-65368618D01*
X146822205Y-65201990D01*
X146387701Y-65201611D01*
X145986127Y-65367538D01*
X145678618Y-65674511D01*
X145511990Y-66075795D01*
X145511611Y-66510299D01*
X144537792Y-66510299D01*
X144537792Y-63970299D01*
X145511611Y-63970299D01*
X145677538Y-64371873D01*
X145984511Y-64679382D01*
X146385795Y-64846010D01*
X146820299Y-64846389D01*
X147221873Y-64680462D01*
X147529382Y-64373489D01*
X147696010Y-63972205D01*
X147696389Y-63537701D01*
X147530462Y-63136127D01*
X147223489Y-62828618D01*
X146822205Y-62661990D01*
X146387701Y-62661611D01*
X145986127Y-62827538D01*
X145678618Y-63134511D01*
X145511990Y-63535795D01*
X145511611Y-63970299D01*
X144537792Y-63970299D01*
X144537792Y-61430299D01*
X145511611Y-61430299D01*
X145677538Y-61831873D01*
X145984511Y-62139382D01*
X146385795Y-62306010D01*
X146820299Y-62306389D01*
X147221873Y-62140462D01*
X147529382Y-61833489D01*
X147696010Y-61432205D01*
X147696389Y-60997701D01*
X147530462Y-60596127D01*
X147223489Y-60288618D01*
X146822205Y-60121990D01*
X146387701Y-60121611D01*
X145986127Y-60287538D01*
X145678618Y-60594511D01*
X145511990Y-60995795D01*
X145511611Y-61430299D01*
X144537792Y-61430299D01*
X144537792Y-58890299D01*
X145511611Y-58890299D01*
X145677538Y-59291873D01*
X145984511Y-59599382D01*
X146385795Y-59766010D01*
X146820299Y-59766389D01*
X147221873Y-59600462D01*
X147529382Y-59293489D01*
X147696010Y-58892205D01*
X147696389Y-58457701D01*
X147530462Y-58056127D01*
X147223489Y-57748618D01*
X146822205Y-57581990D01*
X146387701Y-57581611D01*
X145986127Y-57747538D01*
X145678618Y-58054511D01*
X145511990Y-58455795D01*
X145511611Y-58890299D01*
X144537792Y-58890299D01*
X144537792Y-56642000D01*
X144479770Y-56350299D01*
X145511611Y-56350299D01*
X145677538Y-56751873D01*
X145984511Y-57059382D01*
X146385795Y-57226010D01*
X146820299Y-57226389D01*
X147221873Y-57060462D01*
X147529382Y-56753489D01*
X147696010Y-56352205D01*
X147696389Y-55917701D01*
X147530462Y-55516127D01*
X147223489Y-55208618D01*
X146822205Y-55041990D01*
X146387701Y-55041611D01*
X145986127Y-55207538D01*
X145678618Y-55514511D01*
X145511990Y-55915795D01*
X145511611Y-56350299D01*
X144479770Y-56350299D01*
X144478891Y-56345883D01*
X144311154Y-56094846D01*
X144311151Y-56094844D01*
X142026607Y-53810299D01*
X142971611Y-53810299D01*
X143137538Y-54211873D01*
X143444511Y-54519382D01*
X143845795Y-54686010D01*
X144280299Y-54686389D01*
X144681873Y-54520462D01*
X144989382Y-54213489D01*
X145156010Y-53812205D01*
X145156011Y-53810299D01*
X145511611Y-53810299D01*
X145677538Y-54211873D01*
X145984511Y-54519382D01*
X146385795Y-54686010D01*
X146820299Y-54686389D01*
X147221873Y-54520462D01*
X147529382Y-54213489D01*
X147696010Y-53812205D01*
X147696389Y-53377701D01*
X147530462Y-52976127D01*
X147223489Y-52668618D01*
X146822205Y-52501990D01*
X146387701Y-52501611D01*
X145986127Y-52667538D01*
X145678618Y-52974511D01*
X145511990Y-53375795D01*
X145511611Y-53810299D01*
X145156011Y-53810299D01*
X145156389Y-53377701D01*
X144990462Y-52976127D01*
X144683489Y-52668618D01*
X144282205Y-52501990D01*
X143847701Y-52501611D01*
X143446127Y-52667538D01*
X143138618Y-52974511D01*
X142971990Y-53375795D01*
X142971611Y-53810299D01*
X142026607Y-53810299D01*
X141997792Y-53781484D01*
X141997792Y-51270299D01*
X142971611Y-51270299D01*
X143137538Y-51671873D01*
X143444511Y-51979382D01*
X143845795Y-52146010D01*
X144280299Y-52146389D01*
X144681873Y-51980462D01*
X144989382Y-51673489D01*
X145156010Y-51272205D01*
X145156011Y-51270299D01*
X145511611Y-51270299D01*
X145677538Y-51671873D01*
X145984511Y-51979382D01*
X146385795Y-52146010D01*
X146820299Y-52146389D01*
X147221873Y-51980462D01*
X147529382Y-51673489D01*
X147696010Y-51272205D01*
X147696389Y-50837701D01*
X147530462Y-50436127D01*
X147223489Y-50128618D01*
X146822205Y-49961990D01*
X146387701Y-49961611D01*
X145986127Y-50127538D01*
X145678618Y-50434511D01*
X145511990Y-50835795D01*
X145511611Y-51270299D01*
X145156011Y-51270299D01*
X145156389Y-50837701D01*
X144990462Y-50436127D01*
X144683489Y-50128618D01*
X144282205Y-49961990D01*
X143847701Y-49961611D01*
X143446127Y-50127538D01*
X143138618Y-50434511D01*
X142971990Y-50835795D01*
X142971611Y-51270299D01*
X141997792Y-51270299D01*
X141997792Y-48730299D01*
X142971611Y-48730299D01*
X143137538Y-49131873D01*
X143444511Y-49439382D01*
X143845795Y-49606010D01*
X144280299Y-49606389D01*
X144681873Y-49440462D01*
X144989382Y-49133489D01*
X145156010Y-48732205D01*
X145156011Y-48730299D01*
X145511611Y-48730299D01*
X145677538Y-49131873D01*
X145984511Y-49439382D01*
X146385795Y-49606010D01*
X146820299Y-49606389D01*
X147221873Y-49440462D01*
X147529382Y-49133489D01*
X147696010Y-48732205D01*
X147696389Y-48297701D01*
X147530462Y-47896127D01*
X147223489Y-47588618D01*
X146822205Y-47421990D01*
X146387701Y-47421611D01*
X145986127Y-47587538D01*
X145678618Y-47894511D01*
X145511990Y-48295795D01*
X145511611Y-48730299D01*
X145156011Y-48730299D01*
X145156389Y-48297701D01*
X144990462Y-47896127D01*
X144683489Y-47588618D01*
X144282205Y-47421990D01*
X143847701Y-47421611D01*
X143446127Y-47587538D01*
X143138618Y-47894511D01*
X142971990Y-48295795D01*
X142971611Y-48730299D01*
X141997792Y-48730299D01*
X141997792Y-46190299D01*
X145511611Y-46190299D01*
X145677538Y-46591873D01*
X145984511Y-46899382D01*
X146385795Y-47066010D01*
X146820299Y-47066389D01*
X147221873Y-46900462D01*
X147529382Y-46593489D01*
X147696010Y-46192205D01*
X147696389Y-45757701D01*
X147530462Y-45356127D01*
X147223489Y-45048618D01*
X146822205Y-44881990D01*
X146387701Y-44881611D01*
X145986127Y-45047538D01*
X145678618Y-45354511D01*
X145511990Y-45755795D01*
X145511611Y-46190299D01*
X141997792Y-46190299D01*
X141997792Y-43650299D01*
X142971611Y-43650299D01*
X143137538Y-44051873D01*
X143444511Y-44359382D01*
X143845795Y-44526010D01*
X144280299Y-44526389D01*
X144681873Y-44360462D01*
X144989382Y-44053489D01*
X145156010Y-43652205D01*
X145156011Y-43650299D01*
X145511611Y-43650299D01*
X145677538Y-44051873D01*
X145984511Y-44359382D01*
X146385795Y-44526010D01*
X146820299Y-44526389D01*
X147221873Y-44360462D01*
X147529382Y-44053489D01*
X147696010Y-43652205D01*
X147696389Y-43217701D01*
X147530462Y-42816127D01*
X147223489Y-42508618D01*
X146822205Y-42341990D01*
X146387701Y-42341611D01*
X145986127Y-42507538D01*
X145678618Y-42814511D01*
X145511990Y-43215795D01*
X145511611Y-43650299D01*
X145156011Y-43650299D01*
X145156389Y-43217701D01*
X144990462Y-42816127D01*
X144683489Y-42508618D01*
X144282205Y-42341990D01*
X143847701Y-42341611D01*
X143446127Y-42507538D01*
X143138618Y-42814511D01*
X142971990Y-43215795D01*
X142971611Y-43650299D01*
X141997792Y-43650299D01*
X141997792Y-42164005D01*
X141997793Y-42164000D01*
X141938891Y-41867882D01*
X141771154Y-41616846D01*
X141264607Y-41110299D01*
X145511611Y-41110299D01*
X145677538Y-41511873D01*
X145984511Y-41819382D01*
X146385795Y-41986010D01*
X146820299Y-41986389D01*
X147221873Y-41820462D01*
X147529382Y-41513489D01*
X147696010Y-41112205D01*
X147696389Y-40677701D01*
X147530462Y-40276127D01*
X147223489Y-39968618D01*
X146822205Y-39801990D01*
X146387701Y-39801611D01*
X145986127Y-39967538D01*
X145678618Y-40274511D01*
X145511990Y-40675795D01*
X145511611Y-41110299D01*
X141264607Y-41110299D01*
X138723154Y-38568846D01*
X138703330Y-38555600D01*
X148144400Y-38555600D01*
X148144400Y-88644400D01*
X124273331Y-88644400D01*
X124502118Y-88598891D01*
X124753154Y-88431154D01*
X124773151Y-88411156D01*
X124773154Y-88411154D01*
X124940891Y-88160117D01*
X124999792Y-87864000D01*
X124999792Y-86868000D01*
X125210208Y-86868000D01*
X125269109Y-87164117D01*
X125436846Y-87415154D01*
X125687883Y-87582891D01*
X125984000Y-87641792D01*
X126735361Y-87641792D01*
X126790673Y-87727749D01*
X126901017Y-87803144D01*
X127032000Y-87829669D01*
X128532000Y-87829669D01*
X128654365Y-87806644D01*
X128766749Y-87734327D01*
X128842144Y-87623983D01*
X128868669Y-87493000D01*
X128868669Y-86243000D01*
X129195331Y-86243000D01*
X129195331Y-87493000D01*
X129218356Y-87615365D01*
X129290673Y-87727749D01*
X129401017Y-87803144D01*
X129532000Y-87829669D01*
X131032000Y-87829669D01*
X131154365Y-87806644D01*
X131266749Y-87734327D01*
X131329976Y-87641792D01*
X136306896Y-87641792D01*
X136659519Y-87995031D01*
X137148246Y-88197968D01*
X137677432Y-88198430D01*
X138166513Y-87996346D01*
X138541031Y-87622481D01*
X138743968Y-87133754D01*
X138744430Y-86604568D01*
X138542346Y-86115487D01*
X138168481Y-85740969D01*
X137679754Y-85538032D01*
X137150568Y-85537570D01*
X136661487Y-85739654D01*
X136306314Y-86094208D01*
X131328639Y-86094208D01*
X131273327Y-86008251D01*
X131162983Y-85932856D01*
X131075792Y-85915199D01*
X131075792Y-84700569D01*
X131111109Y-84878118D01*
X131278846Y-85129154D01*
X131529882Y-85296891D01*
X131826000Y-85355793D01*
X132122118Y-85296891D01*
X132373154Y-85129154D01*
X133135151Y-84367156D01*
X133135154Y-84367154D01*
X133243562Y-84204910D01*
X133302891Y-84116118D01*
X133361793Y-83820000D01*
X133361792Y-83819995D01*
X133361792Y-78486000D01*
X133302891Y-78189883D01*
X133135154Y-77938846D01*
X133135151Y-77938844D01*
X132837276Y-77640969D01*
X132794891Y-77427883D01*
X132627154Y-77176846D01*
X132627151Y-77176844D01*
X132599792Y-77149485D01*
X132599792Y-76962000D01*
X132540891Y-76665883D01*
X132373154Y-76414846D01*
X132122117Y-76247109D01*
X131826000Y-76188208D01*
X131529883Y-76247109D01*
X131278846Y-76414846D01*
X131111109Y-76665883D01*
X131052208Y-76962000D01*
X131052208Y-77469995D01*
X131052207Y-77470000D01*
X131111109Y-77766118D01*
X131278846Y-78017154D01*
X131322723Y-78061031D01*
X131365109Y-78274118D01*
X131507392Y-78487059D01*
X131275882Y-78533110D01*
X131024846Y-78700847D01*
X129754846Y-79970846D01*
X129587109Y-80221882D01*
X129528207Y-80518000D01*
X129528208Y-80518005D01*
X129528208Y-85907045D01*
X129409635Y-85929356D01*
X129297251Y-86001673D01*
X129221856Y-86112017D01*
X129195331Y-86243000D01*
X128868669Y-86243000D01*
X128845644Y-86120635D01*
X128773327Y-86008251D01*
X128662983Y-85932856D01*
X128532000Y-85906331D01*
X127032000Y-85906331D01*
X126909635Y-85929356D01*
X126797251Y-86001673D01*
X126734024Y-86094208D01*
X125984000Y-86094208D01*
X125687883Y-86153109D01*
X125436846Y-86320846D01*
X125269109Y-86571883D01*
X125210208Y-86868000D01*
X124999792Y-86868000D01*
X124999792Y-84777192D01*
X125098365Y-84758644D01*
X125210749Y-84686327D01*
X125286144Y-84575983D01*
X125312669Y-84445000D01*
X125312669Y-83195000D01*
X125289644Y-83072635D01*
X125217327Y-82960251D01*
X125106983Y-82884856D01*
X124979792Y-82859099D01*
X124979792Y-81280000D01*
X124920891Y-80983883D01*
X124753154Y-80732846D01*
X124502117Y-80565109D01*
X124206000Y-80506208D01*
X123909883Y-80565109D01*
X123658846Y-80732846D01*
X123491109Y-80983883D01*
X123432208Y-81280000D01*
X123432208Y-82866571D01*
X123353635Y-82881356D01*
X123241251Y-82953673D01*
X123165856Y-83064017D01*
X123139331Y-83195000D01*
X123139331Y-84445000D01*
X123162356Y-84567365D01*
X123234673Y-84679749D01*
X123345017Y-84755144D01*
X123452208Y-84776851D01*
X123452208Y-87110208D01*
X121231195Y-87110208D01*
X121364891Y-86910117D01*
X121423792Y-86614000D01*
X121423792Y-78298516D01*
X121490307Y-78232000D01*
X124194208Y-78232000D01*
X124253109Y-78528117D01*
X124420846Y-78779154D01*
X124671883Y-78946891D01*
X124968000Y-79005792D01*
X125778861Y-79005792D01*
X125782356Y-79024365D01*
X125854673Y-79136749D01*
X125965017Y-79212144D01*
X126096000Y-79238669D01*
X127185023Y-79238669D01*
X126658361Y-79765331D01*
X126096000Y-79765331D01*
X125973635Y-79788356D01*
X125861251Y-79860673D01*
X125785856Y-79971017D01*
X125759331Y-80102000D01*
X125759331Y-81602000D01*
X125782356Y-81724365D01*
X125854673Y-81836749D01*
X125965017Y-81912144D01*
X125972208Y-81913600D01*
X125972208Y-82859045D01*
X125853635Y-82881356D01*
X125741251Y-82953673D01*
X125665856Y-83064017D01*
X125639331Y-83195000D01*
X125639331Y-84445000D01*
X125662356Y-84567365D01*
X125734673Y-84679749D01*
X125845017Y-84755144D01*
X125976000Y-84781669D01*
X127476000Y-84781669D01*
X127598365Y-84758644D01*
X127710749Y-84686327D01*
X127786144Y-84575983D01*
X127812669Y-84445000D01*
X127812669Y-83195000D01*
X127789644Y-83072635D01*
X127717327Y-82960251D01*
X127606983Y-82884856D01*
X127519792Y-82867199D01*
X127519792Y-81914726D01*
X127630749Y-81843327D01*
X127706144Y-81732983D01*
X127732669Y-81602000D01*
X127732669Y-80879639D01*
X128082516Y-80529792D01*
X128270000Y-80529792D01*
X128566117Y-80470891D01*
X128817154Y-80303154D01*
X128984891Y-80052117D01*
X129043792Y-79756000D01*
X129043792Y-74930000D01*
X128984891Y-74633883D01*
X128817154Y-74382846D01*
X128817151Y-74382844D01*
X128789792Y-74355485D01*
X128789792Y-74130299D01*
X129671611Y-74130299D01*
X129837538Y-74531873D01*
X130144511Y-74839382D01*
X130545795Y-75006010D01*
X130980299Y-75006389D01*
X131381873Y-74840462D01*
X131689382Y-74533489D01*
X131856010Y-74132205D01*
X131856011Y-74130299D01*
X132311611Y-74130299D01*
X132477538Y-74531873D01*
X132784511Y-74839382D01*
X133185795Y-75006010D01*
X133620299Y-75006389D01*
X134021873Y-74840462D01*
X134329382Y-74533489D01*
X134496010Y-74132205D01*
X134496011Y-74130299D01*
X134951611Y-74130299D01*
X135117538Y-74531873D01*
X135424511Y-74839382D01*
X135825795Y-75006010D01*
X136260299Y-75006389D01*
X136661873Y-74840462D01*
X136969382Y-74533489D01*
X137136010Y-74132205D01*
X137136011Y-74130299D01*
X140231611Y-74130299D01*
X140397538Y-74531873D01*
X140704511Y-74839382D01*
X141105795Y-75006010D01*
X141540299Y-75006389D01*
X141941873Y-74840462D01*
X142249382Y-74533489D01*
X142416010Y-74132205D01*
X142416389Y-73697701D01*
X142250462Y-73296127D01*
X141943489Y-72988618D01*
X141542205Y-72821990D01*
X141107701Y-72821611D01*
X140706127Y-72987538D01*
X140398618Y-73294511D01*
X140231990Y-73695795D01*
X140231611Y-74130299D01*
X137136011Y-74130299D01*
X137136389Y-73697701D01*
X136970462Y-73296127D01*
X136663489Y-72988618D01*
X136262205Y-72821990D01*
X135827701Y-72821611D01*
X135426127Y-72987538D01*
X135118618Y-73294511D01*
X134951990Y-73695795D01*
X134951611Y-74130299D01*
X134496011Y-74130299D01*
X134496389Y-73697701D01*
X134330462Y-73296127D01*
X134023489Y-72988618D01*
X133622205Y-72821990D01*
X133187701Y-72821611D01*
X132786127Y-72987538D01*
X132478618Y-73294511D01*
X132311990Y-73695795D01*
X132311611Y-74130299D01*
X131856011Y-74130299D01*
X131856389Y-73697701D01*
X131690462Y-73296127D01*
X131383489Y-72988618D01*
X130982205Y-72821990D01*
X130547701Y-72821611D01*
X130146127Y-72987538D01*
X129838618Y-73294511D01*
X129671990Y-73695795D01*
X129671611Y-74130299D01*
X128789792Y-74130299D01*
X128789792Y-73152000D01*
X128730891Y-72855883D01*
X128563154Y-72604846D01*
X128563151Y-72604844D01*
X127548607Y-71590299D01*
X129671611Y-71590299D01*
X129837538Y-71991873D01*
X130144511Y-72299382D01*
X130545795Y-72466010D01*
X130980299Y-72466389D01*
X131381873Y-72300462D01*
X131689382Y-71993489D01*
X131856010Y-71592205D01*
X131856389Y-71157701D01*
X131690462Y-70756127D01*
X131383489Y-70448618D01*
X130982205Y-70281990D01*
X130547701Y-70281611D01*
X130146127Y-70447538D01*
X129838618Y-70754511D01*
X129671990Y-71155795D01*
X129671611Y-71590299D01*
X127548607Y-71590299D01*
X127293154Y-71334846D01*
X127042118Y-71167109D01*
X126746000Y-71108207D01*
X126449882Y-71167109D01*
X126198846Y-71334846D01*
X126031109Y-71585882D01*
X125972207Y-71882000D01*
X126031109Y-72178118D01*
X126198846Y-72429154D01*
X127242208Y-73472515D01*
X127242208Y-74675995D01*
X127242207Y-74676000D01*
X127301109Y-74972118D01*
X127468846Y-75223154D01*
X127496208Y-75250516D01*
X127496208Y-77085624D01*
X127396000Y-77065331D01*
X127181638Y-77065331D01*
X125769154Y-75652846D01*
X125518118Y-75485109D01*
X125222000Y-75426207D01*
X124925882Y-75485109D01*
X124674846Y-75652846D01*
X124507109Y-75903882D01*
X124448207Y-76200000D01*
X124507109Y-76496118D01*
X124674846Y-76747154D01*
X125385900Y-77458208D01*
X124968000Y-77458208D01*
X124671883Y-77517109D01*
X124420846Y-77684846D01*
X124253109Y-77935883D01*
X124194208Y-78232000D01*
X121490307Y-78232000D01*
X124499153Y-75223154D01*
X124666890Y-74972118D01*
X124725792Y-74676000D01*
X124666890Y-74379882D01*
X124499153Y-74128847D01*
X124248118Y-73961110D01*
X123952000Y-73902208D01*
X123655882Y-73961110D01*
X123404846Y-74128847D01*
X120158115Y-77375577D01*
X120158411Y-77035352D01*
X119973038Y-76586715D01*
X119630090Y-76243168D01*
X119181778Y-76057012D01*
X118696352Y-76056589D01*
X118247715Y-76241962D01*
X117904168Y-76584910D01*
X117867792Y-76672513D01*
X117867792Y-75342167D01*
X117902962Y-75427285D01*
X118245910Y-75770832D01*
X118694222Y-75956988D01*
X119179648Y-75957411D01*
X119628285Y-75772038D01*
X119971832Y-75429090D01*
X120157988Y-74980778D01*
X120158411Y-74495352D01*
X119973038Y-74046715D01*
X119630090Y-73703168D01*
X119181778Y-73517012D01*
X118696352Y-73516589D01*
X118247715Y-73701962D01*
X117904168Y-74044910D01*
X117867792Y-74132513D01*
X117867792Y-72802167D01*
X117902962Y-72887285D01*
X118245910Y-73230832D01*
X118694222Y-73416988D01*
X119179648Y-73417411D01*
X119628285Y-73232038D01*
X119971832Y-72889090D01*
X120157988Y-72440778D01*
X120158411Y-71955352D01*
X119973038Y-71506715D01*
X119630090Y-71163168D01*
X119181778Y-70977012D01*
X118696352Y-70976589D01*
X118247715Y-71161962D01*
X117904168Y-71504910D01*
X117867792Y-71592513D01*
X117867792Y-70262167D01*
X117902962Y-70347285D01*
X118245910Y-70690832D01*
X118694222Y-70876988D01*
X119179648Y-70877411D01*
X119628285Y-70692038D01*
X119971832Y-70349090D01*
X120157988Y-69900778D01*
X120158310Y-69530997D01*
X121400208Y-68289099D01*
X121400208Y-69088000D01*
X121459109Y-69384117D01*
X121626846Y-69635154D01*
X121877883Y-69802891D01*
X122174000Y-69861792D01*
X122470117Y-69802891D01*
X122721154Y-69635154D01*
X122888891Y-69384117D01*
X122947792Y-69088000D01*
X122947792Y-65852516D01*
X126226208Y-62574099D01*
X126226208Y-69088000D01*
X126285109Y-69384117D01*
X126452846Y-69635154D01*
X126703883Y-69802891D01*
X127000000Y-69861792D01*
X127296117Y-69802891D01*
X127547154Y-69635154D01*
X127714891Y-69384117D01*
X127773792Y-69088000D01*
X127773792Y-67682569D01*
X127809109Y-67860118D01*
X127976846Y-68111154D01*
X129246844Y-69381151D01*
X129246846Y-69381154D01*
X129497883Y-69548891D01*
X129794000Y-69607792D01*
X129993185Y-69607792D01*
X130144511Y-69759382D01*
X130545795Y-69926010D01*
X130980299Y-69926389D01*
X131381873Y-69760462D01*
X131689382Y-69453489D01*
X131856010Y-69052205D01*
X131856389Y-68617701D01*
X131690462Y-68216127D01*
X131383489Y-67908618D01*
X130982205Y-67741990D01*
X130547701Y-67741611D01*
X130146127Y-67907538D01*
X130053906Y-67999599D01*
X129297792Y-67243484D01*
X129297792Y-66510299D01*
X129671611Y-66510299D01*
X129837538Y-66911873D01*
X130144511Y-67219382D01*
X130545795Y-67386010D01*
X130980299Y-67386389D01*
X131381873Y-67220462D01*
X131689382Y-66913489D01*
X131856010Y-66512205D01*
X131856389Y-66077701D01*
X131690462Y-65676127D01*
X131383489Y-65368618D01*
X130982205Y-65201990D01*
X130547701Y-65201611D01*
X130146127Y-65367538D01*
X129838618Y-65674511D01*
X129671990Y-66075795D01*
X129671611Y-66510299D01*
X129297792Y-66510299D01*
X129297792Y-65786000D01*
X129238891Y-65489883D01*
X129071154Y-65238846D01*
X128820117Y-65071109D01*
X128524000Y-65012208D01*
X128227883Y-65071109D01*
X127976846Y-65238846D01*
X127809109Y-65489883D01*
X127773792Y-65667435D01*
X127773792Y-63970299D01*
X129671611Y-63970299D01*
X129837538Y-64371873D01*
X130144511Y-64679382D01*
X130545795Y-64846010D01*
X130980299Y-64846389D01*
X131381873Y-64680462D01*
X131689382Y-64373489D01*
X131856010Y-63972205D01*
X131856389Y-63537701D01*
X131690462Y-63136127D01*
X131383489Y-62828618D01*
X130982205Y-62661990D01*
X130547701Y-62661611D01*
X130146127Y-62827538D01*
X129838618Y-63134511D01*
X129671990Y-63535795D01*
X129671611Y-63970299D01*
X127773792Y-63970299D01*
X127773792Y-61430299D01*
X129671611Y-61430299D01*
X129837538Y-61831873D01*
X130144511Y-62139382D01*
X130545795Y-62306010D01*
X130980299Y-62306389D01*
X131381873Y-62140462D01*
X131689382Y-61833489D01*
X131856010Y-61432205D01*
X131856389Y-60997701D01*
X131690462Y-60596127D01*
X131383489Y-60288618D01*
X130982205Y-60121990D01*
X130547701Y-60121611D01*
X130146127Y-60287538D01*
X129838618Y-60594511D01*
X129671990Y-60995795D01*
X129671611Y-61430299D01*
X127773792Y-61430299D01*
X127773792Y-58890299D01*
X129671611Y-58890299D01*
X129837538Y-59291873D01*
X130144511Y-59599382D01*
X130545795Y-59766010D01*
X130980299Y-59766389D01*
X131381873Y-59600462D01*
X131689382Y-59293489D01*
X131856010Y-58892205D01*
X131856389Y-58457701D01*
X131690462Y-58056127D01*
X131383489Y-57748618D01*
X130982205Y-57581990D01*
X130547701Y-57581611D01*
X130146127Y-57747538D01*
X129838618Y-58054511D01*
X129671990Y-58455795D01*
X129671611Y-58890299D01*
X127773792Y-58890299D01*
X127773792Y-58674005D01*
X127773793Y-58674000D01*
X127714891Y-58377882D01*
X127631023Y-58252365D01*
X127547154Y-58126846D01*
X127547151Y-58126844D01*
X126208669Y-56788361D01*
X126208669Y-56350299D01*
X129671611Y-56350299D01*
X129837538Y-56751873D01*
X130144511Y-57059382D01*
X130545795Y-57226010D01*
X130980299Y-57226389D01*
X131381873Y-57060462D01*
X131689382Y-56753489D01*
X131856010Y-56352205D01*
X131856389Y-55917701D01*
X131690462Y-55516127D01*
X131383489Y-55208618D01*
X130982205Y-55041990D01*
X130547701Y-55041611D01*
X130146127Y-55207538D01*
X129838618Y-55514511D01*
X129671990Y-55915795D01*
X129671611Y-56350299D01*
X126208669Y-56350299D01*
X126208669Y-56226000D01*
X126185644Y-56103635D01*
X126113327Y-55991251D01*
X126002983Y-55915856D01*
X125872000Y-55889331D01*
X124572000Y-55889331D01*
X124449635Y-55912356D01*
X124337251Y-55984673D01*
X124261856Y-56095017D01*
X124235331Y-56226000D01*
X124235331Y-57726000D01*
X124258356Y-57848365D01*
X124330673Y-57960749D01*
X124441017Y-58036144D01*
X124572000Y-58062669D01*
X125294361Y-58062669D01*
X126226208Y-58994515D01*
X126226208Y-60361900D01*
X124245154Y-58380846D01*
X123994118Y-58213109D01*
X123698000Y-58154207D01*
X123697995Y-58154208D01*
X120486100Y-58154208D01*
X122240516Y-56399792D01*
X123190000Y-56399792D01*
X123486117Y-56340891D01*
X123737154Y-56173154D01*
X123904891Y-55922117D01*
X123963792Y-55626000D01*
X123904891Y-55329883D01*
X123737154Y-55078846D01*
X123618082Y-54999285D01*
X123872000Y-55049792D01*
X124239808Y-55049792D01*
X124258356Y-55148365D01*
X124330673Y-55260749D01*
X124441017Y-55336144D01*
X124572000Y-55362669D01*
X125872000Y-55362669D01*
X125994365Y-55339644D01*
X126106749Y-55267327D01*
X126182144Y-55156983D01*
X126208669Y-55026000D01*
X126208669Y-53810299D01*
X129671611Y-53810299D01*
X129837538Y-54211873D01*
X130144511Y-54519382D01*
X130545795Y-54686010D01*
X130980299Y-54686389D01*
X131381873Y-54520462D01*
X131689382Y-54213489D01*
X131856010Y-53812205D01*
X131856389Y-53377701D01*
X131690462Y-52976127D01*
X131383489Y-52668618D01*
X130982205Y-52501990D01*
X130547701Y-52501611D01*
X130146127Y-52667538D01*
X129838618Y-52974511D01*
X129671990Y-53375795D01*
X129671611Y-53810299D01*
X126208669Y-53810299D01*
X126208669Y-53526000D01*
X126185644Y-53403635D01*
X126113327Y-53291251D01*
X126002983Y-53215856D01*
X125872000Y-53189331D01*
X124572000Y-53189331D01*
X124449635Y-53212356D01*
X124337251Y-53284673D01*
X124261856Y-53395017D01*
X124240149Y-53502208D01*
X124192516Y-53502208D01*
X123991154Y-53300846D01*
X123740118Y-53133109D01*
X123444000Y-53074207D01*
X123147882Y-53133109D01*
X122896846Y-53300846D01*
X122729109Y-53551882D01*
X122670207Y-53848000D01*
X122729109Y-54144118D01*
X122896846Y-54395154D01*
X123324844Y-54823151D01*
X123324846Y-54823154D01*
X123443918Y-54902715D01*
X123190000Y-54852208D01*
X121920005Y-54852208D01*
X121920000Y-54852207D01*
X121623882Y-54911109D01*
X121372846Y-55078846D01*
X119340846Y-57110846D01*
X119173109Y-57361882D01*
X119114207Y-57658000D01*
X119173109Y-57954118D01*
X119306805Y-58154208D01*
X118110000Y-58154208D01*
X117813883Y-58213109D01*
X117562846Y-58380846D01*
X117562844Y-58380849D01*
X116292846Y-59650846D01*
X116125109Y-59901882D01*
X116066207Y-60198000D01*
X116066208Y-60198005D01*
X116066208Y-63889435D01*
X116030891Y-63711883D01*
X115863154Y-63460846D01*
X115612117Y-63293109D01*
X115316000Y-63234208D01*
X115019883Y-63293109D01*
X114768846Y-63460846D01*
X114601109Y-63711883D01*
X114542208Y-64008000D01*
X114542208Y-68580000D01*
X114601109Y-68876117D01*
X114768846Y-69127154D01*
X115019883Y-69294891D01*
X115316000Y-69353792D01*
X115612117Y-69294891D01*
X115863154Y-69127154D01*
X116030891Y-68876117D01*
X116089792Y-68580000D01*
X116089792Y-64380569D01*
X116125109Y-64558118D01*
X116292846Y-64809154D01*
X116320208Y-64836516D01*
X116320208Y-74077901D01*
X115863154Y-73620846D01*
X115612118Y-73453109D01*
X115316000Y-73394207D01*
X115315995Y-73394208D01*
X114645104Y-73394208D01*
X114292481Y-73040969D01*
X113803754Y-72838032D01*
X113274568Y-72837570D01*
X112785487Y-73039654D01*
X112410969Y-73413519D01*
X112208032Y-73902246D01*
X112207570Y-74431432D01*
X112409654Y-74920513D01*
X112783519Y-75295031D01*
X113272246Y-75497968D01*
X113801432Y-75498430D01*
X114290513Y-75296346D01*
X114645686Y-74941792D01*
X114995484Y-74941792D01*
X115276846Y-75223153D01*
X115527882Y-75390890D01*
X115824000Y-75449792D01*
X116120118Y-75390890D01*
X116320208Y-75257194D01*
X116320208Y-81460805D01*
X116120117Y-81327109D01*
X115824000Y-81268208D01*
X114881195Y-81268208D01*
X115014891Y-81068117D01*
X115073792Y-80772000D01*
X115073792Y-77216000D01*
X115014891Y-76919883D01*
X114847154Y-76668846D01*
X114596117Y-76501109D01*
X114300000Y-76442208D01*
X114003883Y-76501109D01*
X113752846Y-76668846D01*
X113585109Y-76919883D01*
X113526208Y-77216000D01*
X113526208Y-80772000D01*
X113585109Y-81068117D01*
X113718805Y-81268208D01*
X113041792Y-81268208D01*
X113041792Y-76200000D01*
X112982891Y-75903883D01*
X112815154Y-75652846D01*
X112815151Y-75652844D01*
X111898201Y-74735894D01*
X111898411Y-74495352D01*
X111713038Y-74046715D01*
X111370090Y-73703168D01*
X110921778Y-73517012D01*
X110436352Y-73516589D01*
X109987715Y-73701962D01*
X109644168Y-74044910D01*
X109458012Y-74493222D01*
X109457589Y-74978648D01*
X109642962Y-75427285D01*
X109985910Y-75770832D01*
X110434222Y-75956988D01*
X110919648Y-75957411D01*
X110927754Y-75954062D01*
X111108053Y-76134360D01*
X110921778Y-76057012D01*
X110436352Y-76056589D01*
X109987715Y-76241962D01*
X109644168Y-76584910D01*
X109458012Y-77033222D01*
X109457589Y-77518648D01*
X109642962Y-77967285D01*
X109985910Y-78310832D01*
X110434222Y-78496988D01*
X110919648Y-78497411D01*
X111368285Y-78312038D01*
X111494208Y-78186335D01*
X111494208Y-81447503D01*
X111370090Y-81323168D01*
X110921778Y-81137012D01*
X110436352Y-81136589D01*
X109987715Y-81321962D01*
X109739792Y-81569453D01*
X109739792Y-78740000D01*
X109680891Y-78443883D01*
X109513154Y-78192846D01*
X109513151Y-78192844D01*
X109005154Y-77684846D01*
X108754118Y-77517109D01*
X108458000Y-77458207D01*
X108253403Y-77498904D01*
X109132154Y-76620153D01*
X109140238Y-76608055D01*
X109152030Y-76599528D01*
X109223827Y-76482955D01*
X109299891Y-76369118D01*
X109302730Y-76354845D01*
X109310361Y-76342455D01*
X109332081Y-76207292D01*
X109358793Y-76073000D01*
X109355954Y-76058726D01*
X109358262Y-76044361D01*
X109231792Y-72629671D01*
X109231792Y-72438648D01*
X109457589Y-72438648D01*
X109642962Y-72887285D01*
X109985910Y-73230832D01*
X110434222Y-73416988D01*
X110919648Y-73417411D01*
X111368285Y-73232038D01*
X111711832Y-72889090D01*
X111897988Y-72440778D01*
X111898411Y-71955352D01*
X111713038Y-71506715D01*
X111370090Y-71163168D01*
X110921778Y-70977012D01*
X110436352Y-70976589D01*
X109987715Y-71161962D01*
X109644168Y-71504910D01*
X109458012Y-71953222D01*
X109457589Y-72438648D01*
X109231792Y-72438648D01*
X109231792Y-69898648D01*
X109457589Y-69898648D01*
X109642962Y-70347285D01*
X109985910Y-70690832D01*
X110434222Y-70876988D01*
X110919648Y-70877411D01*
X111368285Y-70692038D01*
X111711832Y-70349090D01*
X111897988Y-69900778D01*
X111898411Y-69415352D01*
X111713038Y-68966715D01*
X111370090Y-68623168D01*
X110921778Y-68437012D01*
X110436352Y-68436589D01*
X109987715Y-68621962D01*
X109644168Y-68964910D01*
X109458012Y-69413222D01*
X109457589Y-69898648D01*
X109231792Y-69898648D01*
X109231792Y-69596000D01*
X109172891Y-69299883D01*
X109005154Y-69048846D01*
X108754117Y-68881109D01*
X108458000Y-68822208D01*
X108080376Y-68822208D01*
X108100669Y-68722000D01*
X108100669Y-67422000D01*
X108088749Y-67358648D01*
X109457589Y-67358648D01*
X109642962Y-67807285D01*
X109985910Y-68150832D01*
X110434222Y-68336988D01*
X110919648Y-68337411D01*
X111368285Y-68152038D01*
X111711832Y-67809090D01*
X111897988Y-67360778D01*
X111898411Y-66875352D01*
X111713038Y-66426715D01*
X111370090Y-66083168D01*
X110921778Y-65897012D01*
X110436352Y-65896589D01*
X109987715Y-66081962D01*
X109644168Y-66424910D01*
X109458012Y-66873222D01*
X109457589Y-67358648D01*
X108088749Y-67358648D01*
X108077644Y-67299635D01*
X108005327Y-67187251D01*
X107894983Y-67111856D01*
X107764000Y-67085331D01*
X107707792Y-67085331D01*
X107707792Y-66802000D01*
X107648891Y-66505883D01*
X107481154Y-66254846D01*
X107481151Y-66254844D01*
X107227154Y-66000846D01*
X106976118Y-65833109D01*
X106680000Y-65774207D01*
X106383882Y-65833109D01*
X106132846Y-66000846D01*
X105965109Y-66251882D01*
X105906207Y-66548000D01*
X105965109Y-66844118D01*
X106132846Y-67095154D01*
X106145349Y-67107657D01*
X106141635Y-67108356D01*
X106029251Y-67180673D01*
X105953856Y-67291017D01*
X105927331Y-67422000D01*
X105927331Y-68722000D01*
X105946187Y-68822208D01*
X105380376Y-68822208D01*
X105400669Y-68722000D01*
X105400669Y-67422000D01*
X105377644Y-67299635D01*
X105305327Y-67187251D01*
X105194983Y-67111856D01*
X105087792Y-67090149D01*
X105087792Y-64916516D01*
X105957154Y-64047154D01*
X106124891Y-63796118D01*
X106183793Y-63500000D01*
X106124891Y-63203882D01*
X105957154Y-62952846D01*
X105706118Y-62785109D01*
X105410000Y-62726207D01*
X105113882Y-62785109D01*
X104862846Y-62952846D01*
X103766846Y-64048846D01*
X103599109Y-64299882D01*
X103540207Y-64596000D01*
X103540208Y-64596005D01*
X103540208Y-64892935D01*
X103339360Y-64788781D01*
X103038549Y-64762940D01*
X102750747Y-64854183D01*
X102519770Y-65048616D01*
X100487770Y-67588616D01*
X100437627Y-67685312D01*
X100377109Y-67775883D01*
X100368677Y-67818272D01*
X100348781Y-67856640D01*
X100339458Y-67965169D01*
X100318208Y-68072000D01*
X100318208Y-78231995D01*
X100318207Y-78232000D01*
X100377109Y-78528118D01*
X100433331Y-78612260D01*
X100433331Y-79390000D01*
X100456356Y-79512365D01*
X100528673Y-79624749D01*
X100639017Y-79700144D01*
X100770000Y-79726669D01*
X102270000Y-79726669D01*
X102392365Y-79703644D01*
X102504749Y-79631327D01*
X102580144Y-79520983D01*
X102606669Y-79390000D01*
X102606669Y-78090000D01*
X102583644Y-77967635D01*
X102511327Y-77855251D01*
X102400983Y-77779856D01*
X102270000Y-77753331D01*
X101865792Y-77753331D01*
X101865792Y-76572565D01*
X101901109Y-76750117D01*
X102068846Y-77001154D01*
X102319883Y-77168891D01*
X102616000Y-77227792D01*
X102912117Y-77168891D01*
X103163154Y-77001154D01*
X103330891Y-76750117D01*
X103389792Y-76454000D01*
X103389792Y-74385614D01*
X103432331Y-74394076D01*
X103432331Y-74430000D01*
X103455356Y-74552365D01*
X103527673Y-74664749D01*
X103638017Y-74740144D01*
X103769000Y-74766669D01*
X105019000Y-74766669D01*
X105141365Y-74743644D01*
X105253749Y-74671327D01*
X105329144Y-74560983D01*
X105355669Y-74430000D01*
X105355669Y-72930000D01*
X105332644Y-72807635D01*
X105260327Y-72695251D01*
X105149983Y-72619856D01*
X105019000Y-72593331D01*
X103769000Y-72593331D01*
X103676958Y-72610650D01*
X103163154Y-72096846D01*
X103135792Y-72078563D01*
X103135792Y-72050610D01*
X103179017Y-72080144D01*
X103310000Y-72106669D01*
X104810000Y-72106669D01*
X104932365Y-72083644D01*
X105044749Y-72011327D01*
X105120144Y-71900983D01*
X105146669Y-71770000D01*
X105146669Y-70699639D01*
X105476516Y-70369792D01*
X105693624Y-70369792D01*
X105673331Y-70470000D01*
X105673331Y-71770000D01*
X105696356Y-71892365D01*
X105768673Y-72004749D01*
X105879017Y-72080144D01*
X105986208Y-72101851D01*
X105986208Y-72570305D01*
X105965109Y-72601882D01*
X105906207Y-72898000D01*
X105965109Y-73194118D01*
X106132846Y-73445154D01*
X106383882Y-73612891D01*
X106680000Y-73671793D01*
X106976118Y-73612891D01*
X107227154Y-73445154D01*
X107307154Y-73365154D01*
X107474891Y-73114118D01*
X107533793Y-72818000D01*
X107533792Y-72817995D01*
X107533792Y-72102192D01*
X107632365Y-72083644D01*
X107684208Y-72050284D01*
X107684208Y-72644000D01*
X107687047Y-72658271D01*
X107684738Y-72672639D01*
X107799249Y-75764444D01*
X105597484Y-77966208D01*
X105282726Y-77966208D01*
X105211327Y-77855251D01*
X105167792Y-77825505D01*
X105167792Y-77226639D01*
X105253749Y-77171327D01*
X105329144Y-77060983D01*
X105355669Y-76930000D01*
X105355669Y-75430000D01*
X105332644Y-75307635D01*
X105260327Y-75195251D01*
X105149983Y-75119856D01*
X105019000Y-75093331D01*
X103769000Y-75093331D01*
X103646635Y-75116356D01*
X103534251Y-75188673D01*
X103458856Y-75299017D01*
X103432331Y-75430000D01*
X103432331Y-76930000D01*
X103455356Y-77052365D01*
X103527673Y-77164749D01*
X103620208Y-77227976D01*
X103620208Y-77753331D01*
X103470000Y-77753331D01*
X103347635Y-77776356D01*
X103235251Y-77848673D01*
X103159856Y-77959017D01*
X103133331Y-78090000D01*
X103133331Y-79390000D01*
X103156356Y-79512365D01*
X103228673Y-79624749D01*
X103339017Y-79700144D01*
X103366208Y-79705650D01*
X103366208Y-85090000D01*
X103425109Y-85386117D01*
X103592846Y-85637154D01*
X103843883Y-85804891D01*
X104140000Y-85863792D01*
X104436117Y-85804891D01*
X104687154Y-85637154D01*
X104854891Y-85386117D01*
X104913792Y-85090000D01*
X104913792Y-79726669D01*
X104970000Y-79726669D01*
X105092365Y-79703644D01*
X105204749Y-79631327D01*
X105280144Y-79520983D01*
X105281600Y-79513792D01*
X105917995Y-79513792D01*
X105918000Y-79513793D01*
X106214118Y-79454891D01*
X106465154Y-79287154D01*
X107724904Y-78027403D01*
X107684207Y-78232000D01*
X107743109Y-78528118D01*
X107910846Y-78779154D01*
X108192208Y-79060515D01*
X108192208Y-85597995D01*
X108192207Y-85598000D01*
X108251109Y-85894118D01*
X108418846Y-86145154D01*
X108462723Y-86189031D01*
X108505109Y-86402118D01*
X108672846Y-86653154D01*
X108926844Y-86907151D01*
X108926846Y-86907154D01*
X109177883Y-87074891D01*
X109390969Y-87117276D01*
X109434844Y-87161151D01*
X109434846Y-87161154D01*
X109685883Y-87328891D01*
X109982000Y-87387792D01*
X111505995Y-87387792D01*
X111506000Y-87387793D01*
X111802118Y-87328891D01*
X112053154Y-87161154D01*
X113069154Y-86145154D01*
X113236891Y-85894118D01*
X113295793Y-85598000D01*
X113295792Y-85597995D01*
X113295792Y-83312000D01*
X113236891Y-83015883D01*
X113103195Y-82815792D01*
X115050208Y-82815792D01*
X115050208Y-86359995D01*
X115050207Y-86360000D01*
X115109109Y-86656118D01*
X115146636Y-86712281D01*
X114501509Y-86242488D01*
X114227463Y-86115786D01*
X113925790Y-86103602D01*
X113642418Y-86207791D01*
X113420488Y-86412491D01*
X113293786Y-86686537D01*
X113281602Y-86988210D01*
X113385791Y-87271582D01*
X113590491Y-87493512D01*
X114985677Y-88509512D01*
X115068864Y-88547972D01*
X115145069Y-88598891D01*
X115204615Y-88610735D01*
X115259723Y-88636214D01*
X115351300Y-88639913D01*
X115373859Y-88644400D01*
X98055600Y-88644400D01*
X98055600Y-84083432D01*
X98999570Y-84083432D01*
X99201654Y-84572513D01*
X99575519Y-84947031D01*
X100064246Y-85149968D01*
X100593432Y-85150430D01*
X101082513Y-84948346D01*
X101457031Y-84574481D01*
X101659968Y-84085754D01*
X101660430Y-83556568D01*
X101458346Y-83067487D01*
X101084481Y-82692969D01*
X100595754Y-82490032D01*
X100066568Y-82489570D01*
X99577487Y-82691654D01*
X99202969Y-83065519D01*
X99000032Y-83554246D01*
X98999570Y-84083432D01*
X98055600Y-84083432D01*
X98055600Y-55509000D01*
X101001331Y-55509000D01*
X101001331Y-56759000D01*
X101024356Y-56881365D01*
X101096673Y-56993749D01*
X101207017Y-57069144D01*
X101334208Y-57094901D01*
X101334208Y-59999045D01*
X101215635Y-60021356D01*
X101103251Y-60093673D01*
X101027856Y-60204017D01*
X101001331Y-60335000D01*
X101001331Y-61585000D01*
X101024356Y-61707365D01*
X101096673Y-61819749D01*
X101207017Y-61895144D01*
X101334208Y-61920901D01*
X101334208Y-63246000D01*
X101393109Y-63542117D01*
X101560846Y-63793154D01*
X101811883Y-63960891D01*
X102108000Y-64019792D01*
X102404117Y-63960891D01*
X102655154Y-63793154D01*
X102822891Y-63542117D01*
X102881792Y-63246000D01*
X102881792Y-61913429D01*
X102960365Y-61898644D01*
X103072749Y-61826327D01*
X103148144Y-61715983D01*
X103174669Y-61585000D01*
X103174669Y-60335000D01*
X103151644Y-60212635D01*
X103079327Y-60100251D01*
X102968983Y-60024856D01*
X102881792Y-60007199D01*
X102881792Y-57087429D01*
X102960365Y-57072644D01*
X103072749Y-57000327D01*
X103135976Y-56907792D01*
X105410000Y-56907792D01*
X105706117Y-56848891D01*
X105947684Y-56687481D01*
X105906207Y-56896000D01*
X105906208Y-56896005D01*
X105906208Y-57083485D01*
X105624846Y-57364846D01*
X105457109Y-57615882D01*
X105398207Y-57912000D01*
X105457109Y-58208118D01*
X105624846Y-58459154D01*
X105875882Y-58626891D01*
X106172000Y-58685793D01*
X106468118Y-58626891D01*
X106719154Y-58459154D01*
X107227151Y-57951156D01*
X107227154Y-57951154D01*
X107394891Y-57700117D01*
X107451446Y-57415792D01*
X107622805Y-57415792D01*
X107489109Y-57615883D01*
X107430208Y-57912000D01*
X107430208Y-59057236D01*
X107171015Y-59315977D01*
X106985012Y-59763922D01*
X106984588Y-60248950D01*
X107169809Y-60697219D01*
X107512477Y-61040485D01*
X107684208Y-61111794D01*
X107684208Y-63783331D01*
X107628000Y-63783331D01*
X107505635Y-63806356D01*
X107393251Y-63878673D01*
X107317856Y-63989017D01*
X107291331Y-64120000D01*
X107291331Y-65420000D01*
X107314356Y-65542365D01*
X107386673Y-65654749D01*
X107497017Y-65730144D01*
X107628000Y-65756669D01*
X109128000Y-65756669D01*
X109250365Y-65733644D01*
X109362749Y-65661327D01*
X109438144Y-65550983D01*
X109464669Y-65420000D01*
X109464669Y-64120000D01*
X109991331Y-64120000D01*
X109991331Y-65420000D01*
X110014356Y-65542365D01*
X110086673Y-65654749D01*
X110197017Y-65730144D01*
X110328000Y-65756669D01*
X111045260Y-65756669D01*
X111252000Y-65797792D01*
X112584571Y-65797792D01*
X112599356Y-65876365D01*
X112671673Y-65988749D01*
X112764208Y-66051976D01*
X112764208Y-69087995D01*
X112764207Y-69088000D01*
X112823109Y-69384118D01*
X112990846Y-69635154D01*
X114260846Y-70905153D01*
X114511882Y-71072890D01*
X114808000Y-71131792D01*
X115104118Y-71072890D01*
X115355153Y-70905153D01*
X115522890Y-70654118D01*
X115581792Y-70358000D01*
X115522890Y-70061882D01*
X115355153Y-69810846D01*
X114311792Y-68767484D01*
X114311792Y-66050639D01*
X114397749Y-65995327D01*
X114473144Y-65884983D01*
X114499669Y-65754000D01*
X114499669Y-64254000D01*
X114476644Y-64131635D01*
X114404327Y-64019251D01*
X114293983Y-63943856D01*
X114163000Y-63917331D01*
X112913000Y-63917331D01*
X112790635Y-63940356D01*
X112678251Y-64012673D01*
X112602856Y-64123017D01*
X112577099Y-64250208D01*
X112164669Y-64250208D01*
X112164669Y-64120000D01*
X112141644Y-63997635D01*
X112069327Y-63885251D01*
X111958983Y-63809856D01*
X111828000Y-63783331D01*
X110328000Y-63783331D01*
X110205635Y-63806356D01*
X110093251Y-63878673D01*
X110017856Y-63989017D01*
X109991331Y-64120000D01*
X109464669Y-64120000D01*
X109441644Y-63997635D01*
X109369327Y-63885251D01*
X109258983Y-63809856D01*
X109231792Y-63804350D01*
X109231792Y-60704207D01*
X109236985Y-60699023D01*
X109422988Y-60251078D01*
X109422989Y-60248950D01*
X112064588Y-60248950D01*
X112249809Y-60697219D01*
X112510208Y-60958072D01*
X112510208Y-62229995D01*
X112510207Y-62230000D01*
X112569109Y-62526118D01*
X112576331Y-62536926D01*
X112576331Y-63254000D01*
X112599356Y-63376365D01*
X112671673Y-63488749D01*
X112782017Y-63564144D01*
X112913000Y-63590669D01*
X114163000Y-63590669D01*
X114285365Y-63567644D01*
X114397749Y-63495327D01*
X114473144Y-63384983D01*
X114499669Y-63254000D01*
X114499669Y-61754000D01*
X114476644Y-61631635D01*
X114404327Y-61519251D01*
X114293983Y-61443856D01*
X114163000Y-61417331D01*
X114057792Y-61417331D01*
X114057792Y-60957764D01*
X114316985Y-60699023D01*
X114502988Y-60251078D01*
X114503412Y-59766050D01*
X114318191Y-59317781D01*
X113975523Y-58974515D01*
X113527578Y-58788512D01*
X113042550Y-58788088D01*
X112594281Y-58973309D01*
X112251015Y-59315977D01*
X112065012Y-59763922D01*
X112064588Y-60248950D01*
X109422989Y-60248950D01*
X109423412Y-59766050D01*
X109238191Y-59317781D01*
X108977792Y-59056928D01*
X108977792Y-58256100D01*
X109180846Y-58459153D01*
X109431882Y-58626890D01*
X109728000Y-58685792D01*
X110024118Y-58626890D01*
X110275153Y-58459153D01*
X110442890Y-58208118D01*
X110501792Y-57912000D01*
X110442890Y-57615882D01*
X110275153Y-57364846D01*
X110247792Y-57337485D01*
X110247792Y-56642000D01*
X110188891Y-56345883D01*
X110021154Y-56094846D01*
X109770117Y-55927109D01*
X109474000Y-55868208D01*
X106934000Y-55868208D01*
X106637883Y-55927109D01*
X106386846Y-56094846D01*
X106386844Y-56094849D01*
X106143095Y-56338597D01*
X106183792Y-56134000D01*
X106124891Y-55837883D01*
X105957154Y-55586846D01*
X105706117Y-55419109D01*
X105410000Y-55360208D01*
X103134639Y-55360208D01*
X103079327Y-55274251D01*
X102968983Y-55198856D01*
X102838000Y-55172331D01*
X101338000Y-55172331D01*
X101215635Y-55195356D01*
X101103251Y-55267673D01*
X101027856Y-55378017D01*
X101001331Y-55509000D01*
X98055600Y-55509000D01*
X98055600Y-51993950D01*
X104444588Y-51993950D01*
X104629809Y-52442219D01*
X104972477Y-52785485D01*
X105420422Y-52971488D01*
X105905450Y-52971912D01*
X106353719Y-52786691D01*
X106696985Y-52444023D01*
X106882988Y-51996078D01*
X106882989Y-51993950D01*
X106984588Y-51993950D01*
X107169809Y-52442219D01*
X107512477Y-52785485D01*
X107960422Y-52971488D01*
X108445450Y-52971912D01*
X108893719Y-52786691D01*
X109236985Y-52444023D01*
X109422988Y-51996078D01*
X109423255Y-51691053D01*
X109524942Y-51589366D01*
X109524588Y-51993950D01*
X109709809Y-52442219D01*
X110052477Y-52785485D01*
X110500422Y-52971488D01*
X110551225Y-52971532D01*
X110732208Y-53152515D01*
X110732208Y-56387995D01*
X110732207Y-56388000D01*
X110791109Y-56684118D01*
X110958846Y-56935154D01*
X112228846Y-58205153D01*
X112479882Y-58372890D01*
X112776000Y-58431792D01*
X113072118Y-58372890D01*
X113323153Y-58205153D01*
X113490890Y-57954118D01*
X113549792Y-57658000D01*
X113490890Y-57361882D01*
X113323153Y-57110846D01*
X112279792Y-56067484D01*
X112279792Y-52832005D01*
X112279793Y-52832000D01*
X112220891Y-52535882D01*
X112107457Y-52366117D01*
X112053154Y-52284846D01*
X112053151Y-52284844D01*
X112009276Y-52240969D01*
X111966890Y-52027882D01*
X111956339Y-52012091D01*
X111962988Y-51996078D01*
X111962989Y-51993950D01*
X112064588Y-51993950D01*
X112249809Y-52442219D01*
X112510208Y-52703072D01*
X112510208Y-55626000D01*
X112569109Y-55922117D01*
X112736846Y-56173154D01*
X112987883Y-56340891D01*
X113284000Y-56399792D01*
X113580117Y-56340891D01*
X113831154Y-56173154D01*
X113998891Y-55922117D01*
X114057792Y-55626000D01*
X114057792Y-54170299D01*
X118541611Y-54170299D01*
X118707538Y-54571873D01*
X119014511Y-54879382D01*
X119415795Y-55046010D01*
X119850299Y-55046389D01*
X120251873Y-54880462D01*
X120559382Y-54573489D01*
X120726010Y-54172205D01*
X120726389Y-53737701D01*
X120560462Y-53336127D01*
X120253489Y-53028618D01*
X119852205Y-52861990D01*
X119417701Y-52861611D01*
X119016127Y-53027538D01*
X118708618Y-53334511D01*
X118541990Y-53735795D01*
X118541611Y-54170299D01*
X114057792Y-54170299D01*
X114057792Y-52702764D01*
X114316985Y-52444023D01*
X114502988Y-51996078D01*
X114503412Y-51511050D01*
X114403936Y-51270299D01*
X118503611Y-51270299D01*
X118669538Y-51671873D01*
X118976511Y-51979382D01*
X119377795Y-52146010D01*
X119812299Y-52146389D01*
X120213873Y-51980462D01*
X120521382Y-51673489D01*
X120688010Y-51272205D01*
X120688011Y-51270299D01*
X129671611Y-51270299D01*
X129837538Y-51671873D01*
X130144511Y-51979382D01*
X130545795Y-52146010D01*
X130980299Y-52146389D01*
X131381873Y-51980462D01*
X131689382Y-51673489D01*
X131856010Y-51272205D01*
X131856389Y-50837701D01*
X131690462Y-50436127D01*
X131383489Y-50128618D01*
X130982205Y-49961990D01*
X130547701Y-49961611D01*
X130146127Y-50127538D01*
X129838618Y-50434511D01*
X129671990Y-50835795D01*
X129671611Y-51270299D01*
X120688011Y-51270299D01*
X120688389Y-50837701D01*
X120522462Y-50436127D01*
X120215489Y-50128618D01*
X119814205Y-49961990D01*
X119379701Y-49961611D01*
X118978127Y-50127538D01*
X118670618Y-50434511D01*
X118503990Y-50835795D01*
X118503611Y-51270299D01*
X114403936Y-51270299D01*
X114333201Y-51099107D01*
X116371153Y-49061154D01*
X116538890Y-48810118D01*
X116554767Y-48730299D01*
X129671611Y-48730299D01*
X129837538Y-49131873D01*
X130144511Y-49439382D01*
X130545795Y-49606010D01*
X130980299Y-49606389D01*
X131381873Y-49440462D01*
X131689382Y-49133489D01*
X131856010Y-48732205D01*
X131856389Y-48297701D01*
X131690462Y-47896127D01*
X131383489Y-47588618D01*
X130982205Y-47421990D01*
X130547701Y-47421611D01*
X130146127Y-47587538D01*
X129838618Y-47894511D01*
X129671990Y-48295795D01*
X129671611Y-48730299D01*
X116554767Y-48730299D01*
X116597792Y-48514000D01*
X116538890Y-48217882D01*
X116371153Y-47966847D01*
X116120118Y-47799110D01*
X115824000Y-47740208D01*
X115527882Y-47799110D01*
X115276846Y-47966847D01*
X112736846Y-50506846D01*
X112596035Y-50717584D01*
X112594281Y-50718309D01*
X112251015Y-51060977D01*
X112065012Y-51508922D01*
X112064588Y-51993950D01*
X111962989Y-51993950D01*
X111963412Y-51511050D01*
X111778191Y-51062781D01*
X111527639Y-50811792D01*
X111759995Y-50811792D01*
X111760000Y-50811793D01*
X112056118Y-50752891D01*
X112307154Y-50585154D01*
X116371154Y-46521154D01*
X116538891Y-46270118D01*
X116554768Y-46190299D01*
X129671611Y-46190299D01*
X129837538Y-46591873D01*
X130144511Y-46899382D01*
X130545795Y-47066010D01*
X130980299Y-47066389D01*
X131381873Y-46900462D01*
X131689382Y-46593489D01*
X131856010Y-46192205D01*
X131856389Y-45757701D01*
X131690462Y-45356127D01*
X131383489Y-45048618D01*
X130982205Y-44881990D01*
X130547701Y-44881611D01*
X130146127Y-45047538D01*
X129838618Y-45354511D01*
X129671990Y-45755795D01*
X129671611Y-46190299D01*
X116554768Y-46190299D01*
X116597793Y-45974000D01*
X116538891Y-45677882D01*
X116371154Y-45426846D01*
X116120118Y-45259109D01*
X115824000Y-45200207D01*
X115527882Y-45259109D01*
X115276846Y-45426846D01*
X111439484Y-49264208D01*
X110862565Y-49264208D01*
X111040117Y-49228891D01*
X111291154Y-49061154D01*
X111458891Y-48810117D01*
X111517792Y-48514000D01*
X111517792Y-46736000D01*
X111476669Y-46529260D01*
X111476669Y-45812000D01*
X111453644Y-45689635D01*
X111381327Y-45577251D01*
X111270983Y-45501856D01*
X111140000Y-45475331D01*
X109840000Y-45475331D01*
X109717635Y-45498356D01*
X109605251Y-45570673D01*
X109529856Y-45681017D01*
X109524350Y-45708208D01*
X107950000Y-45708208D01*
X107653883Y-45767109D01*
X107402846Y-45934846D01*
X107235109Y-46185883D01*
X107176208Y-46482000D01*
X107235109Y-46778117D01*
X107402846Y-47029154D01*
X107653883Y-47196891D01*
X107950000Y-47255792D01*
X109503331Y-47255792D01*
X109503331Y-47312000D01*
X109526356Y-47434365D01*
X109598673Y-47546749D01*
X109709017Y-47622144D01*
X109840000Y-47648669D01*
X109970208Y-47648669D01*
X109970208Y-48514000D01*
X110029109Y-48810117D01*
X110196846Y-49061154D01*
X110447883Y-49228891D01*
X110625435Y-49264208D01*
X109982000Y-49264208D01*
X109685883Y-49323109D01*
X109434846Y-49490846D01*
X109434844Y-49490849D01*
X109180846Y-49744846D01*
X109079107Y-49897110D01*
X108926846Y-49998847D01*
X108392229Y-50533464D01*
X107962550Y-50533088D01*
X107514281Y-50718309D01*
X107171015Y-51060977D01*
X106985012Y-51508922D01*
X106984588Y-51993950D01*
X106882989Y-51993950D01*
X106883412Y-51511050D01*
X106698191Y-51062781D01*
X106355523Y-50719515D01*
X105907578Y-50533512D01*
X105422550Y-50533088D01*
X104974281Y-50718309D01*
X104631015Y-51060977D01*
X104445012Y-51508922D01*
X104444588Y-51993950D01*
X98055600Y-51993950D01*
X98055600Y-46698299D01*
X103087611Y-46698299D01*
X103253538Y-47099873D01*
X103560511Y-47407382D01*
X103961795Y-47574010D01*
X104396299Y-47574389D01*
X104797873Y-47408462D01*
X105105382Y-47101489D01*
X105272010Y-46700205D01*
X105272389Y-46265701D01*
X105106462Y-45864127D01*
X104799489Y-45556618D01*
X104398205Y-45389990D01*
X103963701Y-45389611D01*
X103562127Y-45555538D01*
X103254618Y-45862511D01*
X103087990Y-46263795D01*
X103087611Y-46698299D01*
X98055600Y-46698299D01*
X98055600Y-44158299D01*
X103087611Y-44158299D01*
X103253538Y-44559873D01*
X103560511Y-44867382D01*
X103961795Y-45034010D01*
X104396299Y-45034389D01*
X104797873Y-44868462D01*
X104950810Y-44715792D01*
X109522861Y-44715792D01*
X109526356Y-44734365D01*
X109598673Y-44846749D01*
X109709017Y-44922144D01*
X109840000Y-44948669D01*
X111140000Y-44948669D01*
X111262365Y-44925644D01*
X111374749Y-44853327D01*
X111450144Y-44742983D01*
X111455650Y-44715792D01*
X111693485Y-44715792D01*
X111720846Y-44743153D01*
X111971882Y-44910890D01*
X112268000Y-44969792D01*
X112564118Y-44910890D01*
X112815153Y-44743153D01*
X112982890Y-44492118D01*
X113013884Y-44336299D01*
X116165611Y-44336299D01*
X116331538Y-44737873D01*
X116638511Y-45045382D01*
X117039795Y-45212010D01*
X117474299Y-45212389D01*
X117875873Y-45046462D01*
X118183382Y-44739489D01*
X118350010Y-44338205D01*
X118350011Y-44336299D01*
X121165611Y-44336299D01*
X121331538Y-44737873D01*
X121638511Y-45045382D01*
X122039795Y-45212010D01*
X122474299Y-45212389D01*
X122875873Y-45046462D01*
X123183382Y-44739489D01*
X123350010Y-44338205D01*
X123350389Y-43903701D01*
X123184462Y-43502127D01*
X122877489Y-43194618D01*
X122476205Y-43027990D01*
X122041701Y-43027611D01*
X121640127Y-43193538D01*
X121332618Y-43500511D01*
X121165990Y-43901795D01*
X121165611Y-44336299D01*
X118350011Y-44336299D01*
X118350389Y-43903701D01*
X118184462Y-43502127D01*
X117877489Y-43194618D01*
X117476205Y-43027990D01*
X117041701Y-43027611D01*
X116640127Y-43193538D01*
X116332618Y-43500511D01*
X116165990Y-43901795D01*
X116165611Y-44336299D01*
X113013884Y-44336299D01*
X113041792Y-44196000D01*
X112982890Y-43899882D01*
X112815153Y-43648846D01*
X112561154Y-43394846D01*
X112310118Y-43227109D01*
X112014000Y-43168207D01*
X112013995Y-43168208D01*
X111476669Y-43168208D01*
X111476669Y-43112000D01*
X111453644Y-42989635D01*
X111381327Y-42877251D01*
X111270983Y-42801856D01*
X111140000Y-42775331D01*
X109840000Y-42775331D01*
X109717635Y-42798356D01*
X109605251Y-42870673D01*
X109529856Y-42981017D01*
X109503331Y-43112000D01*
X109503331Y-43168208D01*
X104950815Y-43168208D01*
X104799489Y-43016618D01*
X104398205Y-42849990D01*
X103963701Y-42849611D01*
X103562127Y-43015538D01*
X103254618Y-43322511D01*
X103087990Y-43723795D01*
X103087611Y-44158299D01*
X98055600Y-44158299D01*
X98055600Y-41665432D01*
X99253570Y-41665432D01*
X99455654Y-42154513D01*
X99829519Y-42529031D01*
X100318246Y-42731968D01*
X100847432Y-42732430D01*
X101336513Y-42530346D01*
X101711031Y-42156481D01*
X101913968Y-41667754D01*
X101914011Y-41618299D01*
X103087611Y-41618299D01*
X103253538Y-42019873D01*
X103560511Y-42327382D01*
X103961795Y-42494010D01*
X104396299Y-42494389D01*
X104797873Y-42328462D01*
X105105382Y-42021489D01*
X105272010Y-41620205D01*
X105272389Y-41185701D01*
X105106462Y-40784127D01*
X104799489Y-40476618D01*
X104398205Y-40309990D01*
X103963701Y-40309611D01*
X103562127Y-40475538D01*
X103254618Y-40782511D01*
X103087990Y-41183795D01*
X103087611Y-41618299D01*
X101914011Y-41618299D01*
X101914430Y-41138568D01*
X101712346Y-40649487D01*
X101338481Y-40274969D01*
X100849754Y-40072032D01*
X100320568Y-40071570D01*
X99831487Y-40273654D01*
X99456969Y-40647519D01*
X99254032Y-41136246D01*
X99253570Y-41665432D01*
X98055600Y-41665432D01*
X98055600Y-38555600D01*
X127996670Y-38555600D01*
X127976846Y-38568846D01*
M02*
