G04 #@! TF.FileFunction,Soldermask,Bot*
%FSLAX46Y46*%
G04 Gerber Fmt 4.6, Leading zero omitted, Abs format (unit mm)*
G04 Created by KiCad (PCBNEW 4.0.7) date 10/29/17 06:02:24*
%MOMM*%
%LPD*%
G01*
G04 APERTURE LIST*
%ADD10C,0.100000*%
%ADD11R,1.900000X1.700000*%
%ADD12C,2.180000*%
%ADD13C,1.924000*%
%ADD14R,1.650000X1.900000*%
%ADD15R,1.900000X1.650000*%
%ADD16R,1.700000X1.900000*%
%ADD17C,2.178000*%
%ADD18C,2.400000*%
G04 APERTURE END LIST*
D10*
D11*
X104060000Y-87884000D03*
X106760000Y-87884000D03*
D12*
X110678000Y-67117000D03*
X110678000Y-69657000D03*
X110678000Y-72197000D03*
X110678000Y-74737000D03*
X110678000Y-77277000D03*
X110678000Y-79817000D03*
X110678000Y-82357000D03*
X110678000Y-84897000D03*
X118938000Y-67117000D03*
X118938000Y-69657000D03*
X118938000Y-72197000D03*
X118938000Y-74737000D03*
X118938000Y-77277000D03*
X118938000Y-79817000D03*
X118938000Y-82357000D03*
X118938000Y-84897000D03*
D13*
X119596000Y-51054000D03*
X119634000Y-48154000D03*
X119634000Y-53954000D03*
D14*
X106934000Y-41422000D03*
X106934000Y-43922000D03*
X113284000Y-46502000D03*
X113284000Y-49002000D03*
D15*
X129774000Y-76200000D03*
X127274000Y-76200000D03*
D11*
X110824000Y-56134000D03*
X108124000Y-56134000D03*
D16*
X101346000Y-65198000D03*
X101346000Y-67898000D03*
X125222000Y-70438000D03*
X125222000Y-67738000D03*
X129794000Y-78152000D03*
X129794000Y-80852000D03*
X134874000Y-80438000D03*
X134874000Y-83138000D03*
X122174000Y-72818000D03*
X122174000Y-75518000D03*
D11*
X106506000Y-82042000D03*
X103806000Y-82042000D03*
D13*
X146604000Y-40894000D03*
X146604000Y-43434000D03*
X146604000Y-45974000D03*
X146604000Y-48514000D03*
X146604000Y-51054000D03*
X146604000Y-53594000D03*
X146604000Y-56134000D03*
X146604000Y-58674000D03*
X146604000Y-61214000D03*
X146604000Y-63754000D03*
X146604000Y-66294000D03*
X146604000Y-68834000D03*
X146604000Y-71374000D03*
X146604000Y-73914000D03*
X130764000Y-40894000D03*
X130764000Y-43434000D03*
X130764000Y-45974000D03*
X130764000Y-48514000D03*
X130764000Y-51054000D03*
X130764000Y-53594000D03*
X130764000Y-56134000D03*
X130764000Y-58674000D03*
X130764000Y-61214000D03*
X130764000Y-63754000D03*
X130764000Y-66294000D03*
X130764000Y-68834000D03*
X130764000Y-71374000D03*
X130764000Y-73914000D03*
X133404000Y-73914000D03*
X136044000Y-73914000D03*
X138684000Y-73914000D03*
X141324000Y-73914000D03*
X143964000Y-73914000D03*
X144064000Y-43434000D03*
X144064000Y-48514000D03*
X144064000Y-51054000D03*
X144064000Y-53594000D03*
X104180000Y-46482000D03*
X104180000Y-43942000D03*
X104180000Y-41402000D03*
D17*
X113284000Y-60007500D03*
X113284000Y-51752500D03*
X110744000Y-60007500D03*
X108204000Y-60007500D03*
X105664000Y-60007500D03*
X110744000Y-51752500D03*
X108204000Y-51752500D03*
X105664000Y-51752500D03*
D18*
X100330000Y-83820000D03*
X100584000Y-41402000D03*
D13*
X122258000Y-44120000D03*
X119758000Y-44120000D03*
X117258000Y-44120000D03*
X118534000Y-61392000D03*
X121034000Y-61392000D03*
X123534000Y-61392000D03*
D18*
X100584000Y-46736000D03*
X113538000Y-74168000D03*
X137414000Y-86868000D03*
M02*
