M48
;DRILL file {KiCad 4.0.7} date 10/29/17 06:02:23
;FORMAT={-:-/ absolute / metric / decimal}
FMAT,2
METRIC,TZ
T1C0.250
T2C0.400
T3C0.432
T4C0.559
T5C0.580
T6C0.762
T7C1.000
%
G90
G05
M71
T2
X102.108Y-63.246
X102.616Y-76.454
X103.124Y-65.532
X104.14Y-85.09
X105.41Y-56.134
X105.41Y-63.5
X106.172Y-57.912
X106.68Y-66.548
X106.68Y-72.898
X107.95Y-46.482
X108.204Y-57.912
X108.458Y-78.232
X109.728Y-57.912
X110.744Y-48.514
X112.268Y-44.196
X112.522Y-83.312
X112.776Y-57.658
X113.284Y-55.626
X114.046Y-86.868
X114.3Y-77.216
X114.3Y-80.772
X114.808Y-70.358
X115.316Y-64.008
X115.316Y-68.58
X115.824Y-45.974
X115.824Y-48.514
X115.824Y-74.676
X117.094Y-84.582
X119.888Y-57.658
X122.174Y-69.088
X123.19Y-55.626
X123.444Y-53.848
X123.952Y-74.676
X124.206Y-81.28
X124.968Y-78.232
X125.222Y-76.2
X125.73Y-43.18
X125.984Y-86.868
X126.746Y-71.882
X127.Y-69.088
X128.524Y-65.786
X131.572Y-79.248
X131.826Y-76.962
X131.826Y-84.582
T4
X105.664Y-51.752
X105.664Y-60.008
X108.204Y-51.752
X108.204Y-60.008
X110.744Y-51.752
X110.744Y-60.008
X113.284Y-51.752
X113.284Y-60.008
T6
X117.258Y-44.12
X118.534Y-61.392
X119.758Y-44.12
X121.034Y-61.392
X122.258Y-44.12
X123.534Y-61.392
X130.764Y-40.894
X130.764Y-43.434
X130.764Y-45.974
X130.764Y-48.514
X130.764Y-51.054
X130.764Y-53.594
X130.764Y-56.134
X130.764Y-58.674
X130.764Y-61.214
X130.764Y-63.754
X130.764Y-66.294
X130.764Y-68.834
X130.764Y-71.374
X130.764Y-73.914
X133.404Y-73.914
X136.044Y-73.914
X138.684Y-73.914
X141.324Y-73.914
X143.964Y-73.914
X144.064Y-43.434
X144.064Y-48.514
X144.064Y-51.054
X144.064Y-53.594
X146.604Y-40.894
X146.604Y-43.434
X146.604Y-45.974
X146.604Y-48.514
X146.604Y-51.054
X146.604Y-53.594
X146.604Y-56.134
X146.604Y-58.674
X146.604Y-61.214
X146.604Y-63.754
X146.604Y-66.294
X146.604Y-68.834
X146.604Y-71.374
X146.604Y-73.914
T7
X100.33Y-83.82
X100.584Y-41.402
X100.584Y-46.736
X113.538Y-74.168
X137.414Y-86.868
T1
X110.678Y-67.257G85X110.678Y-66.977
G05
X110.678Y-69.797G85X110.678Y-69.517
G05
X110.678Y-72.337G85X110.678Y-72.057
G05
X110.678Y-74.877G85X110.678Y-74.597
G05
X110.678Y-77.417G85X110.678Y-77.137
G05
X110.678Y-79.957G85X110.678Y-79.677
G05
X110.678Y-82.497G85X110.678Y-82.217
G05
X110.678Y-85.037G85X110.678Y-84.757
G05
X118.938Y-67.257G85X118.938Y-66.977
G05
X118.938Y-69.797G85X118.938Y-69.517
G05
X118.938Y-72.337G85X118.938Y-72.057
G05
X118.938Y-74.877G85X118.938Y-74.597
G05
X118.938Y-77.417G85X118.938Y-77.137
G05
X118.938Y-79.957G85X118.938Y-79.677
G05
X118.938Y-82.497G85X118.938Y-82.217
G05
X118.938Y-85.037G85X118.938Y-84.757
G05
T3
X119.596Y-51.079G85X119.596Y-51.029
G05
X119.634Y-48.179G85X119.634Y-48.129
G05
X119.634Y-53.979G85X119.634Y-53.929
G05
T5
X104.18Y-41.237G85X104.18Y-41.567
G05
X104.18Y-43.777G85X104.18Y-44.107
G05
X104.18Y-46.317G85X104.18Y-46.647
G05
T0
M30
